/* XPM */
static char *result[] = {
/* columns rows colors chars-per-pixel */
"64 64 159 2 ",
"   c #BF277E",
".  c #B9287F",
"X  c #CD1266",
"o  c #CC166B",
"O  c #CF186E",
"+  c #D3166A",
"@  c #D41A6D",
"#  c #DB1C6D",
"$  c #C61B72",
"%  c #CC1E74",
"&  c #D31F70",
"*  c #D91E72",
"=  c #E01B6A",
"-  c #E01F73",
";  c #DD206F",
":  c #C52177",
">  c #CA2276",
",  c #C4247A",
"<  c #CD2279",
"1  c #C3287F",
"2  c #CE2B7C",
"3  c #D22173",
"4  c #DB2175",
"5  c #D3257A",
"6  c #DE2479",
"7  c #E3216F",
"8  c #E8216C",
"9  c #E42470",
"0  c #EA2671",
"q  c #EC2A73",
"w  c #E1267A",
"e  c #E42A7E",
"r  c #EB2D7E",
"t  c #F22E75",
"y  c #F63177",
"u  c #F83277",
"i  c #F63379",
"p  c #F9357B",
"a  c #7D64C5",
"s  c #766CCD",
"d  c #7969CA",
"f  c #736ED0",
"g  c #6E74D7",
"h  c #6C76D9",
"j  c #677ADE",
"k  c #6979DC",
"l  c #7171D3",
"z  c #7C7DD6",
"x  c #657DE2",
"c  c #9F3C9A",
"v  c #B52C85",
"b  c #BB2B82",
"n  c #B22F88",
"m  c #AD348E",
"M  c #B3338B",
"N  c #B83088",
"B  c #AB3790",
"V  c #A63B95",
"C  c #A93A94",
"Z  c #A43D99",
"A  c #B13B90",
"S  c #C72D80",
"D  c #CD3382",
"F  c #D13480",
"G  c #DE3780",
"H  c #DC3A86",
"J  c #E62D81",
"K  c #E82E82",
"L  c #EB3386",
"P  c #EE3689",
"I  c #E83A89",
"U  c #FA3780",
"Y  c #F73885",
"T  c #FA3A85",
"R  c #F1378A",
"E  c #F43B8D",
"W  c #FB3E8B",
"Q  c #F63D91",
"!  c #9E429E",
"~  c #A2419C",
"^  c #A6499F",
"/  c #9745A2",
"(  c #9D45A1",
")  c #974BA7",
"_  c #9A48A5",
"`  c #954CA9",
"'  c #9151AE",
"]  c #8C54B3",
"[  c #8958B7",
"{  c #855CBC",
"}  c #8260BF",
"|  c #9963B7",
" . c #9061BA",
".. c #9B6ABB",
"X. c #A861AE",
"o. c #B767AB",
"O. c #AD6EB5",
"+. c #DD4489",
"@. c #E8478F",
"#. c #FC408F",
"$. c #E44D92",
"%. c #F74093",
"&. c #FC4394",
"*. c #FE4699",
"=. c #FE4A9B",
"-. c #E65395",
";. c #E95B97",
":. c #E35798",
">. c #EC5398",
",. c #ED5D9C",
"<. c #FD519F",
"1. c #FD54A1",
"2. c #FC5BA4",
"3. c #EF64A2",
"4. c #FC65A9",
"5. c #F66FAC",
"6. c #FC6BAC",
"7. c #EF71A9",
"8. c #F473AD",
"9. c #F972AF",
"0. c #FC75B2",
"q. c #FB7EB6",
"w. c #8161C1",
"e. c #A377C0",
"r. c #5F83E7",
"t. c #5D86EB",
"y. c #5A89EE",
"u. c #578DF3",
"i. c #588EF2",
"p. c #5390F6",
"a. c #5E91F2",
"s. c #6181E5",
"d. c #6E8DE8",
"f. c #6394F2",
"g. c #6897F1",
"h. c #6798F2",
"j. c #6B9AF1",
"k. c #729EF1",
"l. c #76A1F1",
"z. c #7CA4F1",
"x. c #F78BBB",
"c. c #F989BB",
"v. c #9391D8",
"b. c #989BDD",
"n. c #A789CB",
"m. c #A98ACA",
"M. c #849DE7",
"N. c #97B3EE",
"B. c #9EB9EF",
"V. c #81A7F1",
"C. c #85AAF1",
"Z. c #8BAEF0",
"A. c #8FB0F1",
"S. c #93B4F0",
"D. c #99B7F0",
"F. c #9CBAF0",
"G. c #A0B1E8",
"H. c #A1BCF0",
"J. c #FB92C1",
/* pixels */
"u.u.u.u.i.i.i.u.u.i.u.u.u.u.u.p.u.u.u.u.u.u.u.u.p.u.u.u.u.u.u.p.i.i.u.u.u.p.i.i.u.u.u.u.u.u.u.u.u.u.i.u.u.u.u.u.u.u.u.u.u.i.u.i.",
"u.u.u.u.u.u.i.i.u.u.u.u.u.u.i.i.u.u.u.u.u.u.u.u.u.u.u.u.i.u.u.u.u.i.u.u.u.u.u.i.u.u.u.u.i.p.u.u.u.u.u.u.u.p.u.u.i.u.i.u.u.u.p.i.",
"u.u.u.u.u.u.u.u.u.u.u.u.u.u.i.u.u.u.u.u.u.u.u.u.p.i.u.u.u.u.u.u.p.u.u.u.u.u.u.u.u.u.u.u.u.u.u.u.u.u.u.u.u.u.a.u.i.p.i.u.u.u.i.i.",
"u.u.u.u.u.u.u.u.u.u.u.u.u.u.u.p.u.u.u.u.u.u.u.u.u.i.i.i.u.u.u.u.u.u.u.u.u.u.u.u.u.u.u.u.u.u.u.u.u.u.u.i.u.u.u.u.i.i.i.i.u.i.u.i.",
"u.a.u.u.u.u.u.u.u.u.x y.u.u.u.u.u.u.u.u.u.u.u.u.i.i.u.u.i.u.u.u.u.u.u.y.i.u.u.u.u.u.u.u.u.u.u.u.u.u.i.i.i.u.u.u.u.u.u.u.u.i.i.p.",
"u.u.u.u.i.u.u.u.u.y.a g u.u.u.u.u.y.j y.u.u.u.u.u.i.u.u.u.u.u.u.u.u.u.u.u.u.u.u.a.l.C.A.Z.C.j.a.u.u.p.u.u.u.u.u.u.u.u.u.u.p.i.i.",
"u.u.u.u.i.i.p.u.u.y.a g u.u.u.y.u.d V y.u.u.u.u.i.u.u.u.u.i.u.u.k.Z.k.u.u.u.u.a.A.B.F.B.B.B.B.j.u.u.u.u.u.u.u.u.u.u.u.u.u.u.u.i.",
"u.u.p.u.i.i.u.u.p.x { x u.u.u.u.u.) / u.u.u.u.u.u.u.u.i.p.i.u.i.k.D.D.k.i.i.f.Z.F.A.l.h.j.z.N.l.u.u.u.i.u.u.u.u.u.u.i.u.u.i.i.p.",
"u.u.u.u.u.u.u.u.p.l a x p.u.u.u.r.B d p.u.u.u.u.u.u.u.u.u.u.u.u.a.V.D.D.Z.Z.D.F.Z.f.u.u.u.u.f.u.u.u.u.i.u.u.u.u.u.u.u.u.u.u.u.u.",
"u.u.u.u.u.y.u.i.s { x u.p.p.u.u.d m r.u.u.u.u.u.u.u.u.u.u.u.u.u.i.i.k.S.F.D.D.C.h.u.u.u.u.u.u.u.u.u.u.u.i.u.u.u.u.u.u.u.a.u.u.u.",
"u.u.u.u.u.u.y.a } x p.u.u.u.u.x c ] p.u.u.u.u.u.u.u.u.u.u.u.u.u.u.u.i.f.h.j.f.u.u.u.u.u.u.u.u.u.u.u.i.u.i.u.u.u.u.u.u.u.u.u.u.a.",
"u.u.u.u.u.u.f { y.u.u.u.u.u.p.g n h u.y.u.u.u.u.u.u.u.u.u.u.u.u.u.u.u.u.u.u.u.u.u.y.i.i.u.u.u.u.u.u.u.u.i.u.u.u.u.u.u.u.u.u.u.u.",
"u.u.u.u.u.i.[ s.u.u.i.u.u.u.j m [ u.u.u.u.u.u.u.u.u.i.u.u.u.u.u.u.u.j f f f l s [ c / / { h y.u.u.u.u.u.u.u.u.u.u.u.u.u.u.u.u.i.",
"u.u.u.u.u.h { p.u.u.y.i.u.x V / y.u.u.u.u.u.u.u.u.u.u.u.u.u.u.x a Z S < 5 2 2 2 F @.>.:.H 1 V d y.u.u.u.u.u.a.k.V.V.k.j.a.p.u.u.",
"u.u.u.u.p.s d p.i.k.C.C.M.^ c x u.u.u.u.u.u.u.u.u.u.u.u.y.j ] M 5 K Q *.1.x.c.1.1.J.J.J.4.Q K < ] x u.u.u.j.S.H.H.H.H.D.V.i.u.u.",
"k.V.f.u.u.l a f.Z.F.H.G.o.^ b.f.u.u.u.u.u.u.u.u.u.u.u.f c . I 7.J.1.*.*.1.0.6.=.=.1.2.1.*.*.*.e O n d u.j.S.D.A.k.k.V.S.S.f.u.i.",
"C.F.S.j.i.x  .Z.B.Z.M.X.A v.D.l.u.u.u.u.u.u.u.u.y.f _ 1 4 P 9.q.6.=.*.*.*.=.*.*.*.*.*.*.*.*.*.K * P S e.D.F.C.i.u.u.u.j.j.u.u.u.",
"h.Z.F.S.V.C.O.B.Z.z c m h a.j.u.u.u.u.y.u.u.u.j ) $ - R *.*.=.*.&.*.*.*.*.=.*.*.*.*.*.=.*.*.*.R * 1.3.S n.C.f.u.u.u.i.u.u.y.u.u.",
"u.f.C.F.B.F.m...| n ' x u.u.u.u.u.u.u.u.u.u.l v O J &.*.*.*.*.*.*.*.*.=.*.*.=.*.*.*.*.*.*.*.=.R * *.1.$.M x u.u.u.u.u.u.u.u.u.u.",
"i.u.i.j.l.l.d.^ . d u.u.u.u.u.u.u.u.u.u.u.h n @ I %.Q &.*.*.*.*.*.*.*.*.=.*.*.*.*.=.*.*.=.*.*.K J *.*.2.+._ y.u.u.u.u.u.u.u.u.u.",
"u.u.u.u.u.u.j n ! f u.u.u.u.u.u.u.u.u.u.k n * Q *.6 @ 6 &.*.*.*.*.*.*.*.*.*.*.*.*.*.*.*.*.*.*.6 J *.*.<.8.S f u.u.u.u.u.u.u.u.u.",
"u.u.u.u.u.u.` Z x [ a u.u.u.u.u.u.i.s.d m 3 Q *.%.@ X * &.*.*.*.*.*.*.*.*.*.*.&.*.*.*.*.*.*.E 3 Q *.*.*.6.-.Z y.u.u.u.u.u.u.u.u.",
"u.u.u.u.p.x m s u.t.a } j t.y.u.t.{ . < J %.*.*.&.K 4 L *.*.*.*.*.*.&.&.W #.W &.&.&.&.&.&.&.6 L *.*.*.*.=.5.D f u.u.u.u.u.u.u.i.",
"u.u.u.u.u.s B r.u.u.u.g { [ { { V % e Q *.*.*.*.*.&.%.*.*.*.*.&.W W U u u p u p p U p T W r 4 %.*.*.*.*.*.2.$.' y.u.u.u.u.u.p.a.",
"u.u.u.u.u.f B x u.u.u.u.y.x ) O J E &.*.*.*.*.*.*.*.*.*.#.T p i t q 9 9 * # # ; ; ; ; q 7 @ L *.*.*.*.*.=.=.,.b x u.u.u.u.u.u.i.",
"u.u.u.u.u.x m h p.u.y.u.y.{ $ 4 W &.*.*.*.*.*.*.*.&.&.T u 0 4 > S v V / [ [ [ [ ] ] V : + q i #.*.*.*.*.*.*.I o w.u.u.u.u.u.u.u.",
"u.u.u.u.u.u.C ] p.p.p.x ] v . # i U U T #.#.&.#.W p p q #   ] g x x u.y.u.u.u.u.u.u.t.g V # y p %.*.*.*.*.P 5 G ' u.u.u.i.i.u.i.",
"u.u.u.u.u.u.d v ` [ ` V V s g c 3 0 t u u p p p i y 7 > ) k t.u.u.u.u.u.u.u.u.u.u.u.u.u.r.) ; t U &.*.R e * >.;.( p.u.u.i.i.i.i.",
"u.u.u.u.u.u.i.a c ! / a t.u.u.y.{ v O # 7 8 0 0 7 > B f u.u.u.u.u.u.u.p.u.u.u.u.u.u.u.u.u.s.b 8 q e w * J Q 2.,.! p.u.u.u.u.i.i.",
"u.u.u.u.u.u.u.u.y.u.u.u.u.u.u.u.u.x [ c ~ ~ V ~ ' d r.u.u.u.u.u.u.a.a.a.a.i.u.u.u.u.u.u.u.t.B # # e L Q *.<.2.$.( u.u.i.u.u.i.p.",
"u.u.u.u.u.u.u.u.u.u.u.u.u.u.u.u.u.u.y.y.y.y.t.y.f.f.y.u.u.u.u.u.l.Z.D.D.N.C.g.u.u.u.u.u.u.r.B 8 U &.*.*.2.J.J.>._ u.u.u.i.p.i.i.",
"u.p.u.u.u.u.u.u.u.u.u.u.u.u.u.u.u.u.u.u.u.u.u.f.A.Z.g.u.u.u.u.z.B.B.S.S.D.B.N.a.u.u.u.u.u.k : t W &.*.*.=.2.5.H ` u.u.i.i.u.u.i.",
"u.u.u.u.u.u.u.u.u.u.u.u.u.u.u.u.i.u.u.u.u.u.u.a.A.F.A.j.f.h.z.D.N.l.f.a.f.z.C.a.u.u.u.u.p.] = p p U Y i r Y J + { u.u.u.u.u.u.u.",
"u.a.u.u.u.u.u.p.u.u.u.u.u.u.u.u.u.u.u.u.u.u.u.u.a.C.F.F.D.F.F.N.j.u.u.u.u.u.a.u.u.u.u.u.u.V 8 0 7 # @ @ # @ @ $ h u.u.u.u.u.u.i.",
"u.u.u.u.u.u.u.a.u.a.u.u.u.u.u.u.u.u.u.u.u.u.u.u.u.a.z.A.S.A.C.j.u.u.u.u.u.u.u.u.u.u.u.u.g   + 4 J P E U y t = m r.u.u.u.i.u.u.i.",
"u.u.u.u.u.u.u.u.u.u.u.u.u.u.u.u.u.u.u.u.u.u.u.u.u.u.a.a.a.a.u.u.u.u.u.u.u.u.u.u.u.u.u.u.] o e E *.*.*.&.U y * ] u.u.u.u.u.u.u.u.",
"u.u.u.u.u.u.u.u.u.u.u.u.i.u.i.u.i.u.u.u.u.u.u.u.u.u.u.u.u.u.u.u.u.u.u.u.u.u.u.u.u.u.u.r.m K *.*.*.*.*.&.U 0 . j u.u.u.u.u.u.u.a.",
"u.u.u.u.u.u.u.u.u.u.u.u.p.u.u.u.u.u.i.u.u.u.u.u.u.u.u.u.u.u.u.u.u.u.u.u.u.u.u.u.u.u.u.d < %.*.*.*.&.Y p q : a u.i.u.u.u.u.u.u.u.",
"u.a.u.u.u.u.u.u.u.u.u.u.i.u.u.p.i.i.u.u.u.u.u.u.u.u.j g f g x i.u.y.u.u.u.u.u.u.u.u.s v K *.*.*.W U i q : w.i.u.i.u.u.u.u.u.u.u.",
"u.u.u.u.u.a.u.u.u.u.u.u.u.u.u.u.u.i.p.u.u.u.u.u.x ) b $ % % m a t.u.u.u.y.u.u.u.y.} , e %.%.%.Y i t 0 < { u.u.u.u.u.u.u.u.u.i.p.",
"u.u.u.u.u.u.u.u.i.i.u.u.i.u.i.i.u.u.u.u.a.u.u.r.V 6 Q Q Q E L 5 c s.u.u.i.i.p.s.! $ + @ ; # * # @ + $ a y.u.u.u.u.u.u.u.u.u.u.a.",
"u.u.p.a.u.u.u.u.i.i.u.u.u.u.i.p.u.u.u.u.u.u.u.[ 6 Q *.*.*.*.*.Q 6 N w.s.t.j s B O ; q q q t q 8 @ n s y.u.u.u.u.u.u.u.u.u.u.p.i.",
"u.u.u.u.u.u.u.u.u.u.u.i.u.u.u.u.u.u.u.u.u.u.x M R &.&.Q &.&.&.&.&.r 3 n C   & 7 t y u u y 8 # : ` x u.u.u.u.p.i.u.u.u.u.i.i.u.u.",
"u.u.u.u.u.u.u.u.u.u.p.i.u.i.u.u.u.u.u.u.y.u.h S R Q U p p p p p p p y 0 0 q y y u u y 7 3 m { g u.u.u.u.u.u.u.u.u.u.u.u.i.i.u.u.",
"u.u.a.u.u.a.u.u.u.u.u.u.u.u.u.u.u.u.u.u.u.u.y.' % @ * - - - - e T T p u u u u y 7 3   ! d r.u.u.u.u.u.u.i.p.i.i.u.u.i.u.i.i.i.i.",
"u.u.p.u.u.u.u.u.u.u.u.u.u.u.u.u.u.u.u.u.u.u.u.t.w.( b X + - J P *.*.p u u u y 3 ~ } k y.u.u.u.u.u.u.u.u.p.u.i.u.u.u.u.u.p.i.u.i.",
"u.u.u.u.u.u.u.u.u.u.u.u.u.u.u.u.u.u.u.u.u.u.u.u.u.t.[ % R &.*.*.*.*.#.u u y 4 ! r.u.u.u.u.u.u.u.u.u.u.u.u.u.i.u.i.u.u.u.i.i.u.i.",
"u.u.u.u.u.u.u.u.u.u.u.u.u.u.u.u.u.u.u.u.u.u.u.u.i.t.C K *.&.*.*.*.&.p u u 0 v k u.u.u.u.u.u.u.u.u.u.u.u.u.u.u.u.u.u.i.u.u.p.u.i.",
"u.u.u.a.u.u.u.u.u.u.u.u.u.u.u.u.u.u.u.y.u.u.u.u.u.x B P *.*.*.*.Q Y p p - b s i.u.u.u.i.u.p.u.u.u.u.u.u.i.u.u.u.u.u.u.u.u.u.y.u.",
"u.u.u.u.u.u.u.u.u.u.u.u.y.u.a.j.k.k.k.a.u.u.u.u.u.u.[ * Q Q Q *.W t 0 * N s u.u.u.u.u.u.u.u.u.u.u.u.u.u.u.i.u.u.u.u.u.a.j.l.l.j.",
"u.u.u.u.u.f.k.f.u.u.u.u.a.k.D.H.H.H.H.A.f.u.u.u.u.u.x ( S * S * & % B ] x i.u.u.u.u.u.p.u.i.u.i.u.u.i.k.j.u.u.u.u.u.h.Z.B.H.H.H.",
"u.u.u.u.u.V.F.A.f.u.u.u.k.D.D.C.V.V.A.H.V.u.u.u.u.u.u.y.x s d s f x x u.u.i.u.u.u.u.u.i.u.u.u.u.u.u.g.N.D.l.u.y.u.h.N.D.S.z.z.C.",
"u.u.u.u.u.h.Z.H.S.z.l.C.H.H.k.i.u.u.a.k.f.u.u.u.u.u.u.u.u.u.u.u.u.u.u.u.u.u.u.u.u.u.u.i.i.i.i.u.i.u.i.k.H.D.V.k.z.N.B.C.a.u.u.a.",
"u.u.u.u.u.u.f.C.F.H.H.F.S.k.i.i.u.u.u.u.u.u.u.u.u.u.u.u.u.u.u.u.u.u.u.u.u.u.u.u.u.u.u.u.i.u.i.i.u.u.u.u.k.D.H.H.H.D.Z.f.u.u.u.u.",
"u.u.u.u.u.u.u.i.k.V.z.k.f.i.i.i.i.u.u.u.u.u.u.u.u.u.u.u.u.u.u.u.u.u.u.u.u.u.u.u.u.u.u.u.u.u.u.u.u.u.u.u.i.j.V.V.z.j.y.u.u.u.u.p.",
"u.u.u.u.u.u.u.u.u.i.u.u.y.u.i.i.u.u.u.u.u.u.u.u.u.u.u.i.u.u.u.u.u.u.u.u.u.u.u.u.u.u.u.u.u.u.u.u.u.u.u.u.i.u.u.u.u.p.u.u.u.u.u.i.",
"u.u.u.u.u.u.u.u.i.u.u.u.i.u.u.u.p.i.i.u.i.u.u.u.u.u.u.u.u.u.u.u.u.u.u.u.u.u.u.u.u.u.u.u.u.u.u.u.u.i.u.u.u.i.u.i.u.u.u.u.u.u.i.i.",
"u.u.u.u.p.i.u.u.u.u.u.u.u.u.u.u.u.u.i.u.u.u.u.u.i.u.u.u.u.u.u.u.u.u.u.u.u.u.u.u.u.u.u.u.u.u.u.u.u.u.u.u.u.u.u.i.u.u.u.u.u.u.u.a.",
"u.u.u.u.i.i.i.u.u.u.u.u.u.u.u.u.u.u.u.u.u.i.i.p.u.u.u.u.u.u.u.u.u.u.u.u.i.u.i.h.f.f.i.u.u.u.u.u.u.u.u.i.u.u.p.i.u.p.y.i.u.u.u.u.",
"u.u.u.u.u.u.u.u.u.i.u.u.u.u.u.u.i.u.u.u.u.p.i.u.u.u.u.u.u.f.f.i.u.u.u.y.a.V.S.D.F.D.A.k.u.u.u.u.p.u.u.u.u.u.u.u.u.u.p.i.u.u.u.u.",
"u.u.u.u.i.i.p.u.u.u.i.p.u.u.u.u.p.u.i.i.u.u.u.u.u.u.u.u.f.S.S.j.u.u.u.f.C.F.D.A.A.S.D.A.a.u.u.u.i.u.p.u.u.i.i.i.u.u.u.u.u.i.u.u.",
"u.u.u.u.p.u.u.u.u.i.i.u.u.u.u.u.i.i.i.i.u.u.u.u.u.u.u.u.f.C.F.S.k.j.j.C.H.S.j.i.u.i.V.V.a.u.u.u.i.i.u.u.u.u.i.i.u.p.u.a.p.i.u.u.",
"a.u.u.u.u.u.u.u.u.i.i.u.i.i.i.i.i.i.u.u.u.u.u.u.u.u.u.u.i.a.C.F.D.D.F.F.S.h.i.u.u.u.u.u.u.u.u.u.u.u.i.u.u.u.i.u.u.u.u.u.u.u.u.a.",
"u.u.u.u.u.u.i.u.u.u.u.u.i.p.i.i.u.u.u.u.u.u.u.u.u.u.u.u.u.u.i.z.Z.Z.Z.z.f.y.u.i.u.u.y.u.u.u.u.u.i.i.p.u.u.u.p.u.u.u.u.u.u.u.u.u."
};
