/* XPM */
static char *result[] = {
/* columns rows colors chars-per-pixel */
"64 64 148 2 ",
"   c #141414",
".  c #1D1D1D",
"X  c #201F1F",
"o  c #1F1F21",
"O  c #1F2125",
"+  c #232323",
"@  c #282727",
"#  c #21242A",
"$  c #26282C",
"%  c #2C2C2C",
"&  c #31312F",
"*  c #222730",
"=  c #232934",
"-  c #2D2E31",
";  c #262E3E",
":  c #282E38",
">  c #2F3030",
",  c #29303D",
"<  c #333333",
"1  c #393734",
"2  c #3B3936",
"3  c #373739",
"4  c #3D3D3D",
"5  c #262F40",
"6  c #273143",
"7  c #2A3344",
"8  c #2A364D",
"9  c #333946",
"0  c #3D3E41",
"q  c #363D49",
"w  c #2B3750",
"e  c #2D3A52",
"r  c #2E3E5B",
"t  c #303D56",
"y  c #313F59",
"u  c #3F4040",
"i  c #3E424B",
"p  c #3B4454",
"a  c #2F4060",
"s  c #314364",
"d  c #3E4B65",
"f  c #32456A",
"g  c #3D4D6C",
"h  c #354B74",
"j  c #374E7B",
"k  c #444343",
"l  c #4B4A4A",
"z  c #545454",
"x  c #585757",
"c  c #50545B",
"v  c #5D5C5C",
"b  c #435068",
"n  c #495A78",
"m  c #656464",
"M  c #6D6D6D",
"N  c #747373",
"B  c #787777",
"V  c #7D7C7C",
"C  c #807F7F",
"Z  c #385181",
"A  c #3A568A",
"S  c #3B588F",
"D  c #3D5B94",
"F  c #3F5F9B",
"G  c #485C82",
"H  c #435F93",
"J  c #52678D",
"K  c #576889",
"L  c #43639D",
"P  c #62718C",
"I  c #64789F",
"U  c #4163A4",
"Y  c #4266A9",
"T  c #4469AE",
"R  c #516DA1",
"E  c #466CB3",
"W  c #476FB9",
"Q  c #4971BD",
"!  c #4A73C1",
"~  c #4B77C8",
"^  c #4D79CB",
"/  c #587DC2",
"(  c #4E7CD3",
")  c #4F7FD8",
"_  c #517ED3",
"`  c #507FD9",
"'  c #7387AB",
"]  c #5D87D5",
"[  c #5181DD",
"{  c #6386C9",
"}  c #7595D0",
"|  c #5285E3",
" . c #5D8BE0",
".. c #5487E9",
"X. c #5489EC",
"o. c #5A8CEB",
"O. c #5F91ED",
"+. c #578DF3",
"@. c #588EF2",
"#. c #588FF8",
"$. c #5D91F2",
"%. c #5790F8",
"&. c #5890F8",
"*. c #6895EB",
"=. c #6294F2",
"-. c #6798F2",
";. c #6C9BF3",
":. c #729EF1",
">. c #75A0EF",
",. c #75A0F1",
"<. c #7BA5F4",
"1. c #838383",
"2. c #888787",
"3. c #8B8989",
"4. c #929090",
"5. c #999797",
"6. c #9D9C9C",
"7. c #A5A3A3",
"8. c #A9A7A7",
"9. c #ADACAC",
"0. c #B0AEAE",
"q. c #B6B4B4",
"w. c #B9B6B6",
"e. c #BCBABA",
"r. c #81A0D8",
"t. c #91ACDD",
"y. c #A9B2C2",
"u. c #BBBDC2",
"i. c #94B1E8",
"p. c #80A7F1",
"a. c #85AAF1",
"s. c #8AAEF1",
"d. c #8EB0F0",
"f. c #94B4F0",
"g. c #99B7F0",
"h. c #9CB9F0",
"j. c #A2BEF4",
"k. c #B5CCF7",
"l. c #C0C1C2",
"z. c #D2D3D5",
"x. c #D7D8D9",
"c. c #CAD4E5",
"v. c #CDDCF8",
"b. c #D2DFF8",
"n. c #DEE2E8",
"m. c #DEE8FB",
"M. c #E0E3EA",
"N. c #E2EBFC",
/* pixels */
";.@.+.+.+.+.+.+.+.+.+.+.+.+.&.@.+.+.+.+.+.+.+.+.+.+.+.+.+.+.+.+.+.+.+.+.+.+.+.+.+.+.+.+.+.+.+.+.+.+.+.+.+.+.+.+.+.&.+.+.+.+.+.<.",
";.@.+.+.+.+.+.+.+.+.+.+.+.+.+.@.+.+.+.+.@.%.+.+.+.+.+.+.+.@.+.+.+.+.+.+.@.+.+.+.+.+.+.+.+.+.+.+.+.+.+.+.+.+.+.+.@.@.+.+.+.+.+.<.",
";.@.+.+.+.+.%.+.+.&.+.+.+.+.+.+.+.+.+.+.@.+.+.+.+.+.+.+.+.+.%.@.+.+.+.+.+.+.+.+.+.+.+.@.@.+.+.+.+.+.+.+.+.+.+.+.+.+.+.+.+.+.#.<.",
";.&.+.+.+.@.@.+.+.+.+.+.+.+.+.+.+.+.+.+.+.+.+.+.+.+.+.+.X.+.@.@.+.@.+.+.+.+.+.%.+.+.+.+.+.+.+.+.+.+.+.+.+.&.+.+.+.+.+.+.+.+.@.<.",
";.$.+.+.+.+.+.+.+.+.@.&.+.+.+.+.+.+.@.+.@.@.X.Q W ^ | X.+.+.X.@.+.@.@.@.+.[ ^ L U o.=.$.@.@.X.+.+.+.+.+.+.+.+.+.+.+.+.+.+.@.@.<.",
";.@.+.+.+.+.+.+.+.+.@.+.+.+.+.+.+.+.+.+.+.$.Q 9 i 9 g L Q | X.X.O.X.[ E S d i 3 q r.f.f.s.:.$.+.+.+.+.+.+.+.+.+.#.+.+.+.+.#.@.<.",
";.@.+.+.+.+.+.+.+.+.+.+.+.+.&.+.+.+.+.+.+.+.T , 4 u 1 1 i b G R I J d 4 2 4 u 4 P i.g.g.h.h.:.@.+.+.+.+.+.+.+.+.+.+.+.+.+.+.@.<.",
";.$.+.+.%.+.+.+.+.+.+.+.+.+.+.+.+.+.+.+.+.+.( r % 3 u u 4 4 4 4 4 4 4 u u 4 < i } -.=.=.:.d.;.+.+.+.+.+.+.+.#.+.+.+.+.+.+.+.@.<.",
";.+.+.+.+.+.+.+.+.+.@.@.+.+.+.+.+.+.+.+.+.+.X.U $ + < 4 u u 4 u 4 4 u 4 < $ + G o.@.+.+.+.@.@.+.+.X.+.+.+.@.+.+.+.#.+.+.+.+.+.:.",
";.+.+.+.+.+.+.+.+.+.&.+.+.+.+.+.+.+.@.+.+.+.+...A O X @ < 4 4 4 4 4 4 & O o w _ @.@.+.+.+.+.+.+.#.#.+.+.+.+.+.+.@.@.+.+.@.+.+.p.",
";.&.+.+.+.+.+.+.+.+.+.+.+.+.+.+.+.+.+.+.+.+.+.+.| a o . o 3 4 u 4 4 < + . O F +.X.+.+.+.+.+.+.@.+.+.#.+.+.+.+.#.@.+.+.+.+.+.#.<.",
";.$.+.+.+.+.+.+.+.+.+.+.+.@.+.+.+.+.+.+.+.+.X.+.+.Q ; . o % 4 4 4 4 @ . o f ..+.+.+.+.+.+.+.@.+.+.+.+.X.+.+.+.+.+.+.+.+.+.+.#.<.",
";.@.@.+.X.@.@.+.+.+.+.+.@.@.@.+.+.+.+.+.+.+.+.X.+.+.U * . O 2 u 4 % . . 8 ^ +.+.+.+.+.X.+.+.@.@.+.@.+.+.@.+.o.$.=.=.#.X.+.X.@.:.",
";.@.+.+.+.+.+.+.+.+.$.-.=.$.+.+.+.+.+.+.+.+.+.+.+.+.X.S . . > 4 < + . O U @.+.X.+.+.+.+.@.@.@.@.+.X.+.+.@.p.d.f.f.d.:.@.+.+.#.p.",
":.-.$.+.+.+.@.@.-.s.f.f.g.d.:.@.+.+.+.+.+.+.+.+.+.+.+.[ 8 . O $ + . . r [ +.+.+.+.+.+.+.=.d.a.=.+.+.X.=.s.h.g.g.f.g.g.p.@.#.@.p.",
"s.g.<.$.+.+.@.;.g.h.i.d.d.g.g.-.+.+.+.+.%.+.+.+.+.+.X...A . . . . . = W +.+.+.+.+.+.+.+.=.s.h.d.-.=.-.a.h.d.;.@.=.:.s.:.@.#.$.:.",
"<.f.h.d.-.-.,.g.h.<.=.$.$.,.<.-.+.+.@.+.+.+.+.@.+.+.+.+.^ 8 . . . O A ` #.+.X.@.+.+.+.+.+.=.a.g.j.f.j.g.d.=.+.+.X.+.@.+.+.X.@.:.",
";.-.d.h.h.g.h.g.<.$.X.@.+.+.@.+.+.X.+.+.+.+.+.%.+.+.+.+.+.F O . o w ` +.X.X.#.+.+.+.#.X.+.+.$.p.s.d.d.:.=.+.+.+.+.+.+.+.+.+.#.p.",
";.@.=.<.s.s.<.:.@.+.+.+.+.+.+.+.+.+.@.+.+.@.+.+.+.+.+.+.+.^ 5 . . f X.+.+.+.#.@.+.+.+.+.X.+.+.o.@.@.@.o.+.+.+.+.+.+.+.+.@.@.@.p.",
";.@.@.@.@.$.$.X.+.+.+.+.+.+.+.+.+.+.+.+.+.+.+.+.+.+.+.X.+.[ 8 . o f X.+.X.#.X.#.+.+.#.+.+.+.+.+.o.@.@.#.@.X.+.+.+.+.+.+.@.#.#.:.",
";.@.+.+.+.+.+.+.+.+.+.+.@.+.%.+.+.@.+.+.+.@.%.+.+.+.+.+.+.[ 6 . . a ..+.+.#.+.#.@.+.#.+.#.+.+.+.#.@.+.+.+.#.+.+.+.+.+.+.@.+.@.:.",
";.@.+.+.@.+.+.+.+.+.+.+.+.+.@.+.+.+.+.+.+.+.+.+.+.+.+.+.+.( ; . . r ` +.X.+.@.X.+.+.+.+.+.+.+.+.@.#.+.+.+.+.#.+.@.+.+.+.+.+.#.p.",
";.@.+.+.+.+.+.+.+.+.+.+.+.+.+.+.+.+.%.+.+.+.+.+.+.+.+.+.+.~ * . o w ` #.+.@.+.+.+.@.+.+.+.+.+.#.@.+.+.@.+.@.+.+.+.+.#.+.+.+.#.p.",
";.@.@.+.+.+.@.+.+.+.+.+.+.+.+.+.+.+.@.+.+.+.@.+.+.+.+.+.X.U O . . * ! #.+.X.+.#.+.+.+.+.+.+.+.+.+.+.+.+.+.+.+.+.+.#.+.+.+.#.$.:.",
";.%.@.@.+.+.@.+.+.@.%.+.+.+.@.+.@.+.+.+.+.+.+.+.+.+.+.+.| a . . . . j X.+.+.+.+.+.+.+.#.+.+.+.+.+.+.@.+.@.+.+.#.+.+.#.+.+.+.+.p.",
";.%.+.@.+.+.+.+.+.+.+.+.+.+.+.+.%.+.@.+.+.+.+.+.+.+.+.+.Q * . . . . 6 ( +.+.+.+.+.+.+.+.+.+.+.+.+.+.+.+.+.+.+.+.+.+.+.+.+.+.$.:.",
";.@.+.+.%.+.+.+.+.+.+.+.+.+.%.+.@.+.+.+.+.+.+.+.+.+.+.X.S . . . . . o U X.+.+.+.#.+.+.+.+.+.#.+.+.@.+.+.+.+.+.+.+.@.+.@.+.+.+.p.",
";.@.@.+.@.+.+.+.+.+.@.+.@.+.+.+.+.+.+.+.+.+.+.+.+.+.+.^ 6 . . . . . . a ` +.+.X.+.+.+.+.+.+.+.+.+.+.#.+.+.+.+.+.+.+.+.+.#.+.#.:.",
";.@.+.+.@.+.@.+.+.@.+.+.@.%.@.+.+.+.+.+.+.+.+.+.+.+.X.j . . . . . . . # T +.+.+.+.+.+.+.+.+.+.+.+.#.+.+.+.+.+.+.+.+.+.#.+.+.@.p.",
";.@.+.+.+.+.+.+.+.%.+.+.+.+.+.+.+.+.+.+.+.+.+.@.$.+.E = . . . . X X .   e ] +.+.#.#.+.+.+.+.+.+.+.+.+.+.#.+.+.@.+.+.+.+.+.+.+.p.",
";.@.@.+.+.%.+.+.+.+.+.+.+.@.+.+.+.+.+.+.+.....*.d.>.p . . . . . . . . o o K -.+.` ` ` +.+.+.+.+.+.+.+.@.+.+.+.+.+.+.+.+.+.+.+.:.",
";.%.@.+.+.@.+.+.+.+.@.+.+.+.+.+.+.+.+.X.E j h J t.' # . . o u x l - . . . 7 / U s a Z ~ #.` +.+.@.+.+.+.+.#.+.+.+.+.+.+.+.+.#.p.",
":.#.+.+.+.+.+.&.+.+.+.@.+.+.+.+.+.+.@.E 7 % & - n p . . X l 6.0.8.3.4 . . o 5 : & & % 7 T @.+.+.+.+.+.+.+.+.+.+.+.+.@.@.@.+.@.<.",
";.+.+.+.+.+.+.+.+.+.+.&.+.+.+.@.+.+.| s < 4 4 < $ X . . % 3.q.q.q.q.B @ . . X < 4 u 4 % Z +.+.+.+.+.+.+.+.+.+.+.+.+.#.+.@.+.+.<.",
";.@.+.+.+.#.+.+.+.+.+.+.+.+.+.&.+.+.[ t < u 4 4 @ o . . z 0.7.m 5.e.7.u . . X < u 4 4 - Z X.+.+.+.+.+.+.@.@.+.+.+.+.#.+.+.+.@.<.",
";.@.+.@.@.@.+.+.+.+.+.+.+.+.+.+.+.+.| s < u 4 4 + . . & 2.e.V X N e.q.N @ . . % 4 4 u < Z +.+.+.+.+.+.+.#.+.+.#.+.+.+.+.+.+.+.<.",
";.@.@.@.+.+.+.+.+.@.+.+.+.+.+.+.+.+...h & 4 4 4 + o . v q.w.v   M e.q.0.l . . + 4 4 4 - D +.+.+.+.+.+.+.+.+.+.+.+.+.+.+.+.+.#.<.",
";.&.@.@.+.+.+.+.+.#.+.+.+.+.+.+.+.+.+.U $ 4 4 < X . % 4.e.0.k   v w.q.e.V + X X < 0 < , ~ +.X.+.+.+.+.#.+.+.+.+.+.#.+.+.+.+.@.<.",
";.@.+.+.+.+.+.@.#.+.+.+.&.+.+.+.+.+.+.) w - u < .   4 7.e.8.<   k 9.q.w.6.& . . < 4 - Z X.+.+.+.+.+.+.+.+.+.+.+.+.#.+.+.+.+.@.<.",
";.+.+.+.+.+.+.@.@.+.+.+.+.+.+.+.+.+.+.+.T : 1 - . . 4 7.w.C     @ B q.q.7.- . . - - r ) +.+.+.+.+.+.+.+.+.+.+.+.+.+.+.+.+.+.@.<.",
";.&.+.+.+.+.%.@.+.+.+.+.+.+.+.+.+.+.+.X.+.j $ - .   < 6.0.l   . X k 7.w.5.% . . + ; Q +.+.+.+.+.@.+.+.#.+.#.+.+.+.+.+.+.#.+.@.:.",
";.@.+.+.+.+.+.@.+.+.+.+.+.+.+.+.+.+.+.+.+.( e + . . + z N 4 . X . + x 2.v X X . + H X.+.+.+.+.+.+.+.+.+.+.+.+.#.@.+.+.+.+.+.#.p.",
";.@.+.+.+.+.+.+.+.+.+.+.+.#.+.+.+.+.+.+.+.+.W * . . . . X . . . . . X @ X . X   f | +.+.+.+.+.+.+.+.+.+.+.+.+.+.+.@.+.+.+.#.@.p.",
";.$.+.+.+.+.+.+.+.+.+.+.+.+.+.+.+.+.+.+.+.@.` 8 . . . . X . . . . . . X . . X . j ..+.+.+.+.+.+.+.+.+.+.+.@.+.+.+.+.+.+.+.#.$.:.",
";.@.+.+.+.+.+.+.+.+.+.+.+.+.+.@.+.+.+.+.+.X.` e . . . . X o . X . X . . o . . . j ..+.+.+.+.+.+.+.+.+.+.+.+.+.+.@.+.X.#.@.X.#.p.",
";.@.+.+.+.+.+.+.+.+.+.+.+.+.+.+.+.+.+.+.+.+...f X . . . . . . . . . X . . . . X S +.+.+.+.+.+.+.#.+.+.@.+.+.+.+.+.@.#.@.+.+.#.:.",
";.@.+.+.+.@.&.@.+.X.+.+.+.+.@.+.+.+.+.+.+.+.X.U m - . . . . . . . . . . . . - c W +.+.+.+.+.+.+.+.+.+.+.+.+.+.+.X.+.+.X.+.#.@.p.",
";.@.+.+.+.+.+.@.+.+.+.+.+.+.@.@.$.$.+.X.+.+.+.{ u.l . . . X X . X . X . . . x y. .+.+.+.+.+.+.+.+.+.X.+.+.+.X.+.+.+.#.$.$.$.$.:.",
";.%.@.@.@.@.$.o.@.@.@.+.@.=.<.d.f.f.s.:.@.+.+.O.c.2.+ X . . . o . o . . . X 1.v.O.#.+.+.+.+.+.+.+.#.=.@.@.@.@.+.+.=.p.d.d.f.s.g.",
";.+.@.@.@.-.d.<.$.+.@.@.=.i.h.h.f.f.g.g.;.+.+.@.k.z.k X X . . . . . . . . l x.j.@.X.+.+.+.+.+.+.X.-.d.p.@.+.+.+.-.d.j.g.i.f.j.j.",
"-.@.+.+.+.-.d.h.a.=.=.;.d.h.s.-.O.=.:.s.-.+.+.X.<.N.5.@ o X . . . X . . @ 6.m.:.+.+.+.@.+.+.+.+.#.*.f.h.a.*.=.;.d.g.a.-.$.$.:.g.",
";.@.+.+.@.@.-.d.h.g.g.h.h.a.$.@.+.+.@.@.+.+.+.+.+.j.n.m   . . X . . . . M M.j.+.+.X.+.@.+.+.+.+.+.@.-.d.h.g.f.g.j.a.=.X.#.+.+.p.",
";.$.+.+.+.+.+.=.p.d.i.a.,.$.@.+.@.+.+.+.+.+.+.+.+.=.b.l.- . . . . . . % l.v.$.X.+.+.+.+.+.#.+.+.+.+.+.=.p.d.d.s.:.$.+.X.+.#.+.:.",
";.@.+.+.+.+.+.+.&.$.$.@.@.@.+.+.+.+.+.+.+.+.#.+.+.+.a.c.m   . X . o . z c.s.+.#.+.#.+.+.+.+.+.+.+.X.+.+.@.@.=.@.$.+.+.+.@.X.#.p.",
";.@.@.+.+.+.+.+.@.@.+.+.+.+.+.+.+.+.+.+.+.+.+.+.+.+.@.{ q X X . . X   y *.$.+.+.+.+.+.+.+.@.+.+.+.+.+.+.@.@.+.+.+.+.+.+.+.+.@.p.",
";.%.@.@.+.+.+.+.@.@.+.+.+.+.+.+.@.+.+.+.+.+.+.+.+.+.+...Y = . . . X - Y ` +.+.X.+.+.+.+.+.+.+.+.+.@.+.+.@.@.+.+.+.+.+.+.#.+.$.:.",
";.+.+.+.+.+.+.+.@.+.+.+.+.+.+.+.+.+.@.+.+.+.+.+.+.+.+.+.X.U * X o 7 Y X.@.@.=.=.$.$.+.+.+.+.#.+.+.+.#.+.+.+.#.+.+.+.+.+.+.+.+.p.",
";.$.+.+.+.+.+.+.+.+.+.+.+.+.+.+.+.@.+.+.+.+.+.@.+.+.+.+.@.O.T f Z ( +.#.;.a.d.f.d.p.-.+.+.+.+.+.+.+.+.+.+.+.+.+.+.+.+.+.+.+.+.p.",
";.&.+.+.+.&.+.+.@.+.+.+.#.+.+.+.+.+.#.+.+.+.+.+.+.+.X.@.:.f.:. ...+.+.:.g.h.g.f.g.j.d.=.X.+.+.+.+.+.@.+.+.+.@.+.+.+.+.+.+.+.+.:.",
";.@.+.+.+.+.+.+.+.+.+.+.+.+.+.+.+.+.+.+.#.+.@.+.+.+.+.+.:.j.h.:.=.=.:.g.g.:.=.=.=.p.s.$.+.+.+.+.@.+.+.+.@.+.+.+.+.+.#.+.+.+.#.p.",
":.&.@.@.@.@.+.+.+.+.+.+.+.+.+.+.+.+.@.+.+.+.+.+.+.+.+.+.@.:.f.h.f.g.h.g.p.@.+.+.X.+.o.+.+.+.+.+.+.+.+.+.+.+.+.+.+.+.+.+.+.+.+.p.",
";.+.@.@.&.+.+.+.+.+.+.+.+.+.+.+.+.+.+.+.+.+.+.+.+.+.+.+.X.+.:.a.d.d.a.;.@.+.+.+.+.+.#.X.+.+.+.+.+.@.+.#.#.+.+.+.+.+.+.+.+.+.` p.",
";.@.+.+.+.+.+.+.&.+.+.+.+.+.+.+.#.+.+.+.+.+.+.+.+.+.+.+.+.+.@.@.O.@.@.+.+.+.X.+.+.+.+.+.+.+.#.+.+.+.+.+.+.+.+.+.#.+.+.#.#.#.#.p.",
";.@.+.+.+.+.+.+.+.+.+.+.&.+.+.+.+.+.+.+.@.+.+.+.+.+.+.+.+.+.+.@.@.@.+.+.+.+.+.+.+.+.@.+.+.+.+.+.@.+.+.+.@.+.+.+.+.+.+.+.+.#.#.:."
};
