/* XPM */
static char *result[] = {
/* columns rows colors chars-per-pixel */
"64 64 198 2 ",
"   c #0B0F3E",
".  c #0D113E",
"X  c #1A143B",
"o  c #15183E",
"O  c #211E3C",
"+  c #1F223E",
"@  c #24263C",
"#  c #36363D",
"$  c #38373F",
"%  c #743D27",
"&  c #0A0E40",
"*  c #0C1040",
"=  c #232742",
"-  c #2F3349",
";  c #353743",
":  c #31354D",
">  c #363A4E",
",  c #393B51",
"<  c #3D4149",
"1  c #3C4257",
"2  c #3C665A",
"3  c #3C5A6C",
"4  c #336F6F",
"5  c #3D7364",
"6  c #3A786A",
"7  c #3A6571",
"8  c #4A4A4A",
"9  c #57574B",
"0  c #4C4F52",
"q  c #444958",
"w  c #44505C",
"e  c #535453",
"r  c #665C43",
"t  c #685B59",
"y  c #54674D",
"u  c #4A6353",
"i  c #446B5E",
"p  c #596A52",
"a  c #676144",
"s  c #736C4C",
"d  c #766C5A",
"f  c #7B7156",
"g  c #7C735A",
"h  c #434E65",
"j  c #495064",
"k  c #565964",
"l  c #465777",
"z  c #437164",
"x  c #6C6B67",
"c  c #726E62",
"v  c #787468",
"b  c #777677",
"n  c #7B7979",
"m  c #9D3E17",
"M  c #9D3E18",
"N  c #914F28",
"B  c #A35122",
"V  c #E05F16",
"C  c #E26015",
"Z  c #857548",
"A  c #867548",
"S  c #877A56",
"D  c #897E63",
"F  c #837F73",
"G  c #998346",
"H  c #8E815C",
"J  c #9B8958",
"K  c #A78E48",
"L  c #AC9248",
"P  c #B89B4A",
"I  c #AA9456",
"U  c #B69C5A",
"Y  c #8C8266",
"T  c #898567",
"R  c #958968",
"E  c #94896B",
"W  c #938A73",
"Q  c #968F7B",
"!  c #B09C67",
"~  c #B8A77A",
"^  c #C9A64A",
"/  c #DDB74D",
"(  c #DFB84D",
")  c #C5A95D",
"_  c #DAB754",
"`  c #DDB850",
"'  c #E1BB4E",
"]  c #D4B664",
"[  c #D7BC72",
"{  c #DFC47B",
"}  c #E2C677",
"|  c #E4C97A",
" . c #465D88",
".. c #496291",
"X. c #4B689D",
"o. c #596D92",
"O. c #4D6CA7",
"+. c #4C6DAB",
"@. c #5874A9",
"#. c #4C71B6",
"$. c #4F74BC",
"%. c #5073B5",
"&. c #597AB7",
"*. c #677DA7",
"=. c #607EB4",
"-. c #5178C6",
";. c #527ED1",
":. c #1C9988",
">. c #209D8A",
",. c #15B29D",
"<. c #12B8A3",
"1. c #7586A7",
"2. c #6E88B8",
"3. c #758BB5",
"4. c #0FC9AF",
"5. c #11C8AC",
"6. c #11CEB1",
"7. c #0ED3B5",
"8. c #0BD9BA",
"9. c #5481D6",
"0. c #5382DA",
"q. c #5D89DA",
"w. c #7191CC",
"e. c #769ADE",
"r. c #7D9DDA",
"t. c #5586E4",
"y. c #568AEC",
"u. c #5D8FEE",
"i. c #5E90EE",
"p. c #4E89FA",
"a. c #578DF3",
"s. c #598DF2",
"d. c #5D91F2",
"f. c #6794E7",
"g. c #6B95E5",
"h. c #6392EB",
"j. c #6C99ED",
"k. c #7197E1",
"l. c #7398E1",
"z. c #6394F2",
"x. c #6897F2",
"c. c #6E9CF3",
"v. c #729EF1",
"b. c #77A1EF",
"n. c #75A0F1",
"m. c #7CA4F1",
"M. c #0AE4C3",
"N. c #08E9C7",
"B. c #08ECC9",
"V. c #08F0CC",
"C. c #9E988B",
"Z. c #8F9195",
"A. c #BB9B8A",
"S. c #B8A38C",
"D. c #A7A39D",
"F. c #B7AE96",
"G. c #BEB49B",
"H. c #8591AA",
"J. c #8693AF",
"K. c #9AA3B6",
"L. c #BFB7A6",
"P. c #ABB0BE",
"I. c #B6B4B4",
"U. c #B8B6B6",
"Y. c #BAB9B9",
"T. c #C1A18F",
"R. c #C9B682",
"E. c #C1B699",
"W. c #C9BC9A",
"Q. c #C4BAA4",
"!. c #D6C28B",
"~. c #DAC488",
"^. c #D3C191",
"/. c #E1CB8E",
"(. c #E5CF91",
"). c #829ED6",
"_. c #809ED8",
"`. c #8EA3CF",
"'. c #99A8C5",
"]. c #9CAAC6",
"[. c #93A6CC",
"{. c #9AA9C9",
"}. c #86A1D4",
"|. c #8AA2D2",
" X c #83A0D8",
".X c #97ACD6",
"XX c #A3ADC2",
"oX c #ACB4C3",
"OX c #A3B5D8",
"+X c #8AACEC",
"@X c #99B6EC",
"#X c #85AAF1",
"$X c #8AAEF1",
"%X c #8EB0F1",
"&X c #94B4F0",
"*X c #98B7F0",
"=X c #9CB9F0",
"-X c #A0BEF6",
/* pixels */
"a.a.a.a.a.a.a.a.a.a.a.a.a.a.a.a.a.a.a.a.d.a.a.a.d.a.a.a.a.a.a.a.a.a.a.a.a.a.a.a.a.a.a.a.a.a.a.a.a.a.a.a.a.a.a.a.a.a.a.a.a.s.s.c.",
"a.a.a.a.a.a.a.a.a.a.a.a.a.a.d.a.a.a.a.a.a.a.a.a.a.a.a.a.a.a.a.a.a.a.a.a.s.a.a.s.a.a.s.a.a.a.a.a.a.a.a.a.a.a.a.a.a.a.a.a.a.a.a.c.",
"a.a.a.a.a.a.a.a.a.d.a.a.a.a.a.a.a.a.a.a.a.a.a.a.a.a.a.a.a.a.a.a.a.a.a.s.a.a.s.a.a.a.a.a.s.a.a.a.a.a.a.a.a.d.a.a.a.a.a.a.a.a.a.c.",
"a.a.a.a.a.a.a.a.a.a.a.a.a.a.a.a.a.a.a.a.a.a.a.a.d.a.a.a.a.a.a.a.a.a.a.a.a.a.a.a.a.a.a.a.a.a.a.a.a.a.a.s.a.a.a.a.a.d.a.a.a.a.a.c.",
"a.a.a.a.a.a.a.a.a.a.a.a.a.a.a.a.a.a.a.a.a.s.s.a.a.a.a.a.a.a.a.a.a.a.a.s.a.a.a.a.a.d.d.d.d.a.y.a.a.a.a.a.a.a.a.a.a.a.a.a.a.a.d.c.",
"d.a.a.a.a.s.a.a.a.a.a.a.a.a.d.a.a.a.a.a.s.a.a.a.a.a.a.a.a.a.a.a.h.r.r.f.a.a.a.d.b.%X&X&X%Xb.d.a.a.a.a.a.a.a.a.a.a.a.a.a.a.a.a.c.",
"a.a.a.a.a.a.a.s.a.a.a.a.a.a.a.a.a.a.a.a.a.a.a.a.a.a.a.a.a.d.p.z..XI.I.{.d.a.d.#X=X=X*X*X=X=Xm.a.a.a.a.a.a.a.a.a.a.a.a.a.a.a.a.c.",
"a.a.a.a.s.a.a.a.a.d.a.a.a.a.a.a.a.a.a.s.a.s.a.a.a.a.a.a.a.a.s.z..XI.I.XXj.x.$X=X%Xv.d.d.c.#Xb.a.a.a.a.a.a.a.a.a.a.a.a.a.a.a.d.c.",
"a.a.a.a.a.a.a.a.a.a.a.a.a.a.a.a.a.a.a.a.a.a.a.a.a.a.a.a.a.a.a.a.k.XXoXOX*X*X=X%Xj.a.a.a.a.s.a.a.a.a.a.a.a.a.a.a.a.d.a.a.a.a.a.c.",
"d.a.a.a.a.a.a.a.a.a.a.a.a.a.d.a.a.a.a.a.a.a.a.a.a.a.a.a.a.a.a.a.s.[.OX@X@X%Xm.j.a.a.a.a.a.a.a.a.a.a.a.a.a.a.a.a.a.a.a.a.a.a.a.c.",
"a.a.a.a.a.a.a.a.a.a.a.a.a.a.a.a.a.a.a.a.a.a.a.a.a.a.a.a.a.a.s.a.y.[.P.oXXXl.a.a.a.a.a.a.a.a.a.a.a.a.a.a.a.a.a.a.a.a.a.a.a.a.d.c.",
"a.a.a.a.a.a.a.a.a.a.a.a.a.a.a.a.a.a.a.a.a.a.a.a.a.a.a.a.a.y.a.s.s.`.}.h.i.s.a.a.a.a.a.y.a.a.a.a.a.a.a.a.a.a.a.a.a.a.a.a.a.a.a.c.",
"a.a.a.a.a.a.a.a.a.a.a.a.p.a.a.a.a.y.a.a.a.a.a.p.s.a.a.a.s.y.l.r.e.].r.y.s.a.a.y.a.a.a.a.a.a.a.a.a.a.a.a.a.a.a.d.d.d.a.a.a.a.a.c.",
"a.a.a.a.a.a.y.a.a.a.d.z.c.d.a.a.a.a.a.a.a.a.a.a.a.a.a.a.s.u.).[.[.P.r.a.s.s.a.a.a.a.a.a.y.s.d.a.a.a.a.a.d.m.%X*X&X%Xm.d.a.a.a.c.",
"a.z.d.a.a.a.a.a.x.#X&X*X*X%Xn.d.a.a.a.a.a.a.a.a.e.`.`.`.).[.[.[.r.{.r.s.s.a.a.a.a.a.a.a.d.$X%Xx.a.a.a.d.m.-X=X&X&X=X-Xm.a.s.a.c.",
"c.&X$Xd.a.a.a.c.&X=X*X%X%X*X*Xn.a.a.a.a.a.a.a.y.f.).r.r.XXXX).).k.[.r.s.s.y.a.a.a.a.a.a.d.#X=X%Xc.z.j.m.=X&Xc.d.d.c.$Xm.a.a.d.c.",
"x.%X=X%Xc.x.n.%X-X#Xx.d.d.c.#Xc.a.a.a.a.a.a.a.a.y.p.u.e.'.{._.g.a.`.'.}.).g.a.a.a.a.a.a.d.d.m.=X=X&X@X=X&Xj.a.a.a.a.a.a.a.y.a.c.",
"a.z.$X=X*X*X=X=Xm.x.a.a.a.a.a.a.a.a.a.a.a.a.a.a.a.a.h.).XXXX).e.a.[.{. X).f.a.a.a.a.a.a.a.a.d.m.%X%X%Xm.z.a.a.a.a.a.a.a.a.a.a.c.",
"a.a.d.m.#X#X#Xv.d.p.a.a.a.a.a.a.a.a.a.a.a.a.a.a.a.a.a.a.).`.u.y.a.[. Xa.y.a.a.a.a.a.a.a.a.a.a.d.d.d.d.d.a.a.a.a.a.a.a.a.a.a.a.c.",
"a.a.a.a.d.u.a.a.a.a.a.a.a.a.a.a.a.a.a.a.a.a.a.a.a.y.a.p.`.).s.s.a.[.r.a.y.a.a.y.a.a.a.a.a.a.a.a.a.a.a.a.a.a.a.a.a.a.a.a.a.a.a.c.",
"a.a.a.a.s.s.a.s.a.a.a.a.d.a.a.a.a.a.a.a.a.a.a.a.s.a.a.y.`.`.a.s.y.[.r.a.a.a.a.a.a.a.a.a.a.a.a.a.a.a.a.a.a.a.a.a.a.a.a.a.a.a.a.v.",
"a.a.a.a.s.s.a.y.a.a.a.a.p.a.a.a.a.a.a.a.a.a.a.a.y.%.O.O.*.*.O.O.O.H.1.O.O.9.a.a.a.a.a.a.d.p.a.a.a.a.a.a.a.a.a.a.a.s.a.a.a.a.a.c.",
"a.a.a.a.a.a.a.a.a.a.a.a.d.a.a.a.a.a.a.a.a.a.a.a.$.e D R R R D E R Q E g q #.a.a.a.a.a.a.a.d.a.a.a.a.a.a.a.a.a.a.s.a.a.a.a.d.a.v.",
"a.a.a.a.a.a.a.a.a.a.a.a.a.a.a.a.a.a.a.a.a.a.a.a. .D (./././././.(.~./.~ u $.a.a.a.a.a.a.a.a.a.a.a.a.a.a.a.a.a.a.a.a.a.a.a.a.a.c.",
"a.a.a.a.a.a.a.a.a.a.a.a.d.a.a.a.a.a.a.a.y.a.a.-.w x T T T R.R.R.[ F.R.~ 0 #.a.a.a.a.a.a.a.a.a.a.a.a.a.a.a.a.a.a.a.a.a.a.a.a.a.c.",
"a.a.a.a.a.a.a.a.a.a.a.d.a.a.a.a.a.a.a.a.a.a.a. .4 :.:.:.u R p i i i y E e #.a.a.a.a.a.a.a.a.a.a.a.a.a.a.a.a.a.a.a.a.a.a.a.a.d.c.",
"a.a.a.a.a.a.a.a.a.a.a.a.a.a.a.a.a.a.a.a.a.a.-.2 5.B.V.8.6 R i 5.7.4.5 S e #.a.a.p.d.a.a.a.p.d.a.a.a.a.a.a.a.a.a.a.a.a.a.a.a.a.c.",
"a.a.a.a.a.a.a.a.a.a.a.a.a.a.a.a.a.a.a.a.a.t. .>.M.N.N.8.5 R z 8.B.M.6 T e #.a.a.d.a.a.a.a.d.a.a.d.a.a.a.d.a.d.p.a.a.a.a.a.a.a.c.",
"a.a.a.a.a.a.a.a.a.a.a.a.a.a.a.a.a.a.a.a.a.0.7 6.N.N.N.8.5 H 5 8.N.M.6 D e #.a.a.a.a.a.a.a.a.a.a.p.a.a.a.a.a.a.d.a.a.a.a.a.a.a.c.",
"s.a.a.a.a.s.a.a.a.a.a.a.d.a.a.a.a.a.a.a.a.0.7 7.N.N.N.8.5 A 2 4.7.6.6 Y e %.a.a.a.a.a.a.a.a.a.a.d.a.a.a.a.a.a.a.a.a.a.a.d.a.a.c.",
"s.a.a.s.a.a.a.a.a.a.a.a.a.a.a.a.a.a.a.a.a.9.4 7.N.N.N.8.5 G a u u u 9 J e 3.c.a.a.a.p.d.a.a.d.a.a.a.a.a.a.a.a.a.d.a.a.a.a.a.d.c.",
"s.s.a.a.a.a.a.a.a.a.a.a.a.a.a.a.a.a.a.a.a.9.7 ,.5.5.5.<.2 P ^ ^ ^ ^ ^ P 9 2.x.a.a.a.d.a.a.a.p.d.a.a.a.a.a.a.a.a.a.a.a.a.a.a.a.c.",
"a.a.a.a.a.a.s.a.a.a.a.a.p.a.a.a.a.a.a.a.a.0.q u p y p y s ^ ' / ( ( ' P 8 %.a.a.a.a.a.a.a.a.a.a.a.a.a.a.d.a.a.a.a.a.a.a.a.a.s.c.",
"a.a.a.a.a.a.a.a.a.a.a.u.f.f.f.f.h.f.h.g.f.q.x U U ) ) ) ) ] ] _ / / / P 8 %.a.a.a.a.a.a.a.a.a.a.a.a.a.a.a.a.a.a.a.a.a.a.a.a.a.n.",
"a.a.a.a.a.a.a.a.a.a.h.{.XX'.'.'.'.].XXXX].'.D.F.W.G.G.G.E.E.E.Q.] ` ` ^ 0 #.a.a.a.a.a.a.a.a.a.a.a.a.a.a.a.a.a.a.a.a.a.a.a.a.a.c.",
"a.a.a.a.a.a.a.a.a.a.e.{.f.u.q.&.&.&.K.1.&.@.p J I I ~ S.I L U F.! K L A 8 ..$.$.;.a.a.a.a.a.a.a.a.a.a.a.a.a.a.a.a.a.a.a.a.a.a.c.",
"a.s.s.p.a.a.a.a.y.y.`.).a.a...0 c v D.F c c s f f f Q C.S d F D.D f g f d d c e l y.a.a.a.a.a.a.a.a.a.a.a.a.a.y.a.a.a.a.a.a.a.n.",
"s.s.s.a.a.a.s.a.a.u.XXk.s.O.q R ~.W.Q.^.~.~.!.!.!.!.L.^.~.~.W.Q.!.!.!.!.!.!./.S l y.a.a.a.a.a.a.a.a.a.a.y.a.a.a.a.a.a.a.a.a.a.c.",
"a.a.a.s.p.s.a.s.p.w.{.s.-.q S [ } W.W.{ } } } } { { L.!.} } W.W.} } } } } } | S l y.a.a.a.a.u.u.s.i.i.u.i.u.u.g.d.p.a.a.a.a.a.n.",
"a.a.a.a.;.O..... .H.H. .q 8 s Z A W C.Z A A A A f H C.H A S Q U / / ` ` ` _ ` Z l y.a.a.a.y.r.{.[.'.{.[.{.{.{.].l.a.a.a.a.a.a.c.",
"a.a.a.a.;.h # O @ k 1 O @ @ @ = @ : : @ o @ + + O = , O O = - r ^ ( ( ( ( / ' A l y.a.y.a.u.`.`.k.{.[.k.r.P.r.[. Xa.a.a.a.a.a.c.",
"a.a.a.s.p.-.> X *     &       *         . . &           & & o $ G ' ( ( ( ( ' A l t.a.a.a.i.[.l.p.|.).p.h.].h.r..Xa.a.a.a.a.a.c.",
"a.a.a.a.y.y...@ . . .       . .       . * .   * . .     *     o r K K K L L L a w %.#.%.#.&.K.2.#.J.J.%.=.K.=.1.H.9.a.a.a.a.a.c.",
"a.a.a.a.a.a.9.1 o * . * .     *     .     . *     .       *   . @ $ $ ; $ $ $ # - : : : - > k < - , q : > j > > 8 ..y.a.a.a.a.v.",
"a.a.a.a.a.a.t.l @ * o                                           . . . . . . . o . . . o . . . . * . . . . . . o ; O.a.a.a.a.a.v.",
"a.a.a.a.a.a.y. .; O X X X X X X X X X X X X X X X X X X X X X X X X X X X X X X X X X X X X X X X X X X X X X @ < -.a.a.a.a.a.c.",
"a.a.a.a.a.a.a.X.; % m m m m m m m m m m m m m m m m m m m m M M m m m m m m m m m m m m m m m m m m M m M M M % q ;.a.a.a.a.a.c.",
"a.a.a.a.a.a.a.0.3 N C V C C C C C C C C C C C C C C C C C V V V C C C C C C C C C C C C C C C C C C C C C C C B h t.a.a.d.z.a.c.",
"a.a.a.a.a.y.d.d.+.t A.S.T.T.T.T.A.T.T.T.T.T.T.T.T.T.T.T.T.T.T.T.T.T.T.T.T.T.T.T.T.T.T.S.T.T.T.A.T.T.T.T.T.T.T.S  .u.v.%X*X*X$X$X",
"a.a.a.a.a.x.%X#Xf.l C.Y.U.U.U.U.I.I.U.U.U.U.I.I.I.I.I.U.I.I.U.U.I.I.I.I.U.U.I.I.U.U.U.I.U.U.U.I.Y.U.U.U.I.U.D.k @.#X=X*X*X%X=X=X",
"a.a.a.a.a.z.%X=X%Xo.n Y.I.I.I.I.I.I.I.I.I.I.I.I.I.I.I.I.I.I.I.I.I.I.I.I.I.I.I.I.I.I.I.I.U.I.I.I.I.I.I.I.I.U.Z.0 ).=X$Xx.z.z.v.%X",
"a.a.a.a.a.s.x.$X-X3.k n b b b b b b b b b b b b b b b b b b b b b b b b b b b b b b b b b b b b b b b b b n e k .X$Xz.a.a.s.s.v.",
"a.a.a.a.a.a.a.d.m.+X2.o.X.O.O.O.O.O.O.O.O.O.+.+.O.O.O.O.O.O.+.+.O.O.O.O.O.O.O.O.O.O.O.O.+.O.O.O.O.O.O.O.@.*.*.2.v.d.a.a.s.a.a.c.",
"a.a.a.a.a.a.a.s.d.d.d.y.y.a.a.a.a.a.a.a.a.s.s.a.y.a.a.a.p.;.a.s.a.a.a.a.a.a.a.y.a.a.a.a.a.a.a.a.a.y.a.a.y.u.s.s.s.a.a.a.s.a.s.c.",
"a.a.a.a.a.a.s.a.a.a.a.a.a.a.a.a.a.a.a.a.s.a.a.a.a.a.a.a.s.p.s.s.a.a.y.a.a.a.p.y.a.a.a.a.a.a.a.a.a.a.a.a.a.a.a.a.s.s.a.a.a.a.s.c.",
"a.a.a.a.a.a.a.a.a.a.a.a.a.a.a.a.a.a.a.a.s.a.a.a.a.a.a.a.s.s.s.s.a.a.a.a.y.a.a.a.a.y.a.a.a.a.a.a.a.a.a.a.a.a.a.a.s.a.a.s.a.a.s.c.",
"a.a.a.a.a.a.a.a.a.a.a.d.a.a.a.a.a.a.a.a.a.a.s.a.a.a.a.a.a.a.a.a.a.a.a.a.a.s.i.z.d.s.a.a.a.a.a.a.a.s.s.a.a.a.d.p.a.a.a.a.a.s.s.c.",
"a.a.a.a.a.a.a.a.a.a.a.a.a.a.a.a.a.a.a.a.a.a.a.s.a.a.a.a.s.i.s.a.a.a.a.s.x.#X&X&X&X#Xc.a.a.a.a.a.s.a.a.d.s.a.a.s.a.a.a.s.a.a.a.c.",
"a.a.a.a.a.a.a.a.a.a.a.a.a.a.a.a.a.a.a.a.a.s.s.p.a.a.s.a.v.%Xv.d.a.a.a.c.&X=X&X&X*X=X&Xx.a.a.a.a.a.a.s.p.a.a.s.s.a.a.a.a.a.a.a.c.",
"a.a.a.d.a.a.d.a.a.a.a.a.a.a.a.a.a.a.a.a.a.s.s.s.a.a.a.a.v.@X@X#Xd.d.v.&X*X#Xx.i.z.m.#Xz.a.a.a.a.a.a.a.s.a.s.a.a.s.a.a.a.a.a.a.c.",
"a.a.a.a.a.a.a.a.a.a.a.a.s.a.a.a.a.a.a.a.s.a.a.s.a.a.a.a.a.c.&X@X*X*X=X=X#Xs.a.a.a.a.a.a.a.a.a.a.a.a.a.a.a.a.a.a.s.p.s.s.a.a.s.c.",
"a.a.a.a.a.a.a.a.a.a.a.a.a.a.s.a.a.a.a.a.a.a.s.a.a.a.a.a.a.s.c.#X&X%X#Xv.s.a.y.a.a.a.s.a.a.a.a.a.a.s.a.a.d.p.a.a.s.s.s.s.a.a.s.c.",
"a.a.a.a.a.a.a.d.a.a.a.a.a.a.a.a.a.a.a.a.a.a.s.a.a.a.a.a.a.a.s.s.s.s.s.a.a.a.a.a.a.a.a.a.a.a.a.a.a.a.a.a.s.s.a.s.a.a.p.s.s.s.s.c.",
"a.a.a.d.a.a.a.a.a.a.a.a.a.a.a.a.a.s.a.a.a.s.a.s.a.a.a.a.a.s.a.a.s.s.y.a.a.a.a.a.a.a.a.a.a.a.a.a.a.a.a.a.s.s.s.a.a.a.s.s.s.s.s.c."
};
