/* XPM */
static char *result[] = {
/* columns rows colors chars-per-pixel */
"64 64 205 2 ",
"   c #08020C",
".  c #0B0312",
"X  c #100317",
"o  c #1B0528",
"O  c #22022D",
"+  c #260838",
"@  c #2A0B43",
"#  c #360448",
"$  c #341053",
"%  c #3A135D",
"&  c #3E1462",
"*  c #420559",
"=  c #480563",
"-  c #411565",
";  c #43166A",
":  c #45186C",
">  c #4B1977",
",  c #54127B",
"<  c #511E7E",
"1  c #59187A",
"2  c #760166",
"3  c #760269",
"4  c #7A026C",
"5  c #75096D",
"6  c #7A0373",
"7  c #740D73",
"8  c #7C047C",
"9  c #7D0C79",
"0  c #731277",
"q  c #73157C",
"w  c #85096D",
"e  c #830574",
"r  c #84057B",
"t  c #8C067D",
"y  c #89087C",
"u  c #90057E",
"i  c #981277",
"p  c #A3187C",
"a  c #AC1D7C",
"s  c #5C0B81",
"d  c #541E83",
"f  c #581987",
"g  c #591D86",
"h  c #7D0584",
"j  c #7D0A82",
"k  c #7F068C",
"l  c #701E84",
"z  c #7B1988",
"x  c #680B90",
"c  c #780A96",
"v  c #681796",
"b  c #641992",
"n  c #6D159A",
"m  c #71149E",
"M  c #542081",
"N  c #722791",
"B  c #6B3398",
"V  c #7C0DA7",
"C  c #7513A2",
"Z  c #781CA4",
"A  c #7B10A9",
"S  c #7A2FAA",
"D  c #6A3AA2",
"F  c #6743A9",
"G  c #6A41A9",
"H  c #6F4AB3",
"J  c #6555BD",
"K  c #5D5FC8",
"L  c #625BC2",
"P  c #7F57D0",
"I  c #7D59D1",
"U  c #5E6BD2",
"Y  c #5C74DA",
"T  c #6060C7",
"R  c #6262CA",
"E  c #676DDB",
"W  c #6E6EDF",
"Q  c #7564D9",
"!  c #716ADD",
"~  c #5B7CE3",
"^  c #6776E5",
"/  c #6A73E2",
"(  c #637AE6",
")  c #617EE9",
"_  c #890680",
"`  c #870A84",
"'  c #990686",
"]  c #960984",
"[  c #9A0C85",
"{  c #9A098B",
"}  c #810795",
"|  c #86099A",
" . c #940B9E",
".. c #A30C8E",
"X. c #AB188D",
"o. c #A30C92",
"O. c #AA0C96",
"+. c #AE0D9A",
"@. c #B40E9E",
"#. c #A7129C",
"$. c #B91995",
"%. c #B62689",
"&. c #850AA4",
"*. c #8C0AA4",
"=. c #840BAC",
"-. c #8B0BAE",
";. c #990CA7",
":. c #8F1AA4",
">. c #9C13AE",
",. c #9019AF",
"<. c #860CB2",
"1. c #890CB5",
"2. c #8C0CBA",
"3. c #930DB1",
"4. c #8B18B4",
"5. c #8D12BA",
"6. c #9612B3",
"7. c #9116BD",
"8. c #951CBD",
"9. c #A70EA7",
"0. c #B50FA2",
"q. c #B90EA2",
"w. c #A917AA",
"e. c #AB1FAC",
"r. c #B612A4",
"t. c #BA12A3",
"y. c #B519A7",
"u. c #B41AA8",
"i. c #9028B2",
"p. c #9A36BB",
"a. c #9838BC",
"s. c #A423AD",
"d. c #A922AF",
"f. c #B623A8",
"g. c #A835AD",
"h. c #A626B1",
"j. c #A824B0",
"k. c #A32BB4",
"l. c #C62889",
"z. c #CD2D8B",
"x. c #D12F8A",
"c. c #CA2895",
"v. c #D4269F",
"b. c #D4289D",
"n. c #DC2D9D",
"m. c #DB3293",
"M. c #E83997",
"N. c #E3349D",
"B. c #EC359B",
"V. c #C51AA1",
"C. c #CA1FA0",
"Z. c #C227A7",
"A. c #CC21A0",
"S. c #CB2BA4",
"D. c #D326A0",
"F. c #E13AA0",
"G. c #8940BC",
"H. c #F5429A",
"J. c #F94499",
"K. c #961CC2",
"L. c #981FC4",
"P. c #9B23C5",
"I. c #9E26C9",
"U. c #9F29CB",
"Y. c #943EC0",
"T. c #A12CC7",
"R. c #A32ECE",
"E. c #A42ED0",
"W. c #A732D2",
"Q. c #A833D3",
"!. c #8C46C5",
"~. c #894BC9",
"^. c #9344C2",
"/. c #8254CE",
"(. c #835AD0",
"). c #A45DC8",
"_. c #5881E6",
"`. c #5787ED",
"'. c #5B84EC",
"]. c #5789EF",
"[. c #5988EF",
"{. c #578DF3",
"}. c #598EF2",
"|. c #5491F6",
" X c #5E91F3",
".X c #5592F8",
"XX c #6384EB",
"oX c #7798ED",
"OX c #6395F2",
"+X c #6C9AF1",
"@X c #729EF1",
"#X c #77A1F1",
"$X c #7BA4F1",
"%X c #9CAFEC",
"&X c #80A7F1",
"*X c #84AAF1",
"=X c #8AAEF0",
"-X c #8EB0F0",
";X c #94B4F0",
":X c #98B7F0",
">X c #9BB9F0",
",X c #9FBDF8",
"<X c #A1BFF8",
"1X c #AAC4F6",
"2X c #B0C8F4",
/* pixels */
"{.{.{.{.{.{.}.{..X{.{.{.{.{.{.}..X{.{.{.{.{.{.{.{.{.{.{.{.{.{.{.{.{.{.{.{.{.{.{.{.{.{.[.|.{.{.{.{.{.{.|.{.{.}.{.{.{.{.{.{.}. X<X",
"{.{.{.{.{.}.{.{.{.{.{.{.{.{.{.{.{.{.{.{.{.{.{.{.{.{.{.{.{.{.{.{.{.{.{.{.{.{.{.{.{.|.{.|.{.{.{.|.{.{.}.}.{.{.{.{.{.{.{.{.{.}. X<X",
"{.{.{.{.{.{.{.{.{.{.{.{.{..X{.{.{.{.{.{.{.{.{.{.{.{.{.{.{.{.{.{.{.{.{.{.{.{.{.{.|.[.{.{.{.{.[.[.}.{.{.{.{.{.|.{.{.}.}.{.{.}. X<X",
"{.{.{.{.}.{.{.{.{.{.{.{.{.{.{.}.{.{.{.{.{.{.{.{.[.{.{..X{.{.{.}.{.{.{.{.{.{.{.{.].{.{.[.[.|.{.|.{.{.{.{.{.}.}.{.}.}.}..X{.}. X<X",
"{.{.{.{.{.{.{.{.{.{.{.{.{.{.{.}.{.{.{.{.{.{.{.{.{.[.W I Q ( [.{.{.{.{.[.{.{.{.{.|. XOX|.[.{.].{.{.{.{.{.{.{.{.{.{.{.{.{.{.}. X<X",
"{.{.}.{.{.{.{..X{.}.{.{.{.{.{.{.{.{.{.{.{.{.{.].W !.e.r.u.e.Y.I / [.{.{.{.{.{.+X*X-X;X;X*X+X|.{.{.{.{.{.{.{.}.{.{.{.{.{.}.}. X<X",
"|.{.{.{.{.{.}.}.{..X}.{.}.{.{.{.{.{.{.{.{.{.{.! e.0.r.0.0.0.q.q.e.!./ {.{.{.+X:X>X;X;X:X>X;XOX{.{.{.{.}.}.{.{.{.{.{.{.{..X}. X<X",
"{.{.{.{.{.}.}.}.{.{.{.{..X{.{.{.{.{.{.{.{.{.].W !.P ~.h.0.0.t.D.V.0.d.(.XX#X;X:X$X+XOX+X$X*XOX{.{.{.{.{.{.{.{.{.{.{.{.{.{.}. X<X",
"{.{.{.{.{.{.{.{.{.{.{.{.}.{.}.{.{.{.{.{.{.{.{.].}.{.~ N e t [ c.B.v.t.r.).%X:X$X X{.{.{.[. X|.].{.{.{.{.{.{.{.{.{.{.{.{.{.}. X<X",
"{.{.{.{.{.{.{.{.{.{.{.{.{.{.{.{.{.{.{.{.{.{.{.{.{.].D 5 2 4 4 e p m.b.t.y.).oX|.].{.].{.|.[.].|.{.{.{.{.{.{.{.{.}.{.{.{.{.{. X<X",
"{.{.{.{.{.{.{.{.{.{.{.{.{.{.}.{.{.{.{.{.{.{.{.{.`.F 7 2 3 3 3 3 2 i m.v.r.y.G._.{.].{.{.|.{.{.|.{.{.{.{.{.{.{.{..X{.{.{.{.}. X<X",
"{.{.{.{.{.{.{.{.{.{.{.{.{.{.{.{.{.{.{.{.{.{.{.{.T 7 3 3 2 4 3 6 2 2 i M.v.@.+.S _.{.{.{.[.|.[.{.{.{.{.{.{.{.{.].{.{.{.[.}.}. X<X",
"{.{.{.{.{.{.{.].{.{.{.{.{.{.{.{.{.{.{.{.{.{.{.Y l 3 3 3 3 3 k k 8 8 6 a m.V.0.` J `.{.{.{.].|.[.{.{.{.{.{.}.}.OXOX}.{.{.{.{. X<X",
"{.{.{.{.{.}.{.{.{.}.OXOXOX}.[.{.{.{.{.{.{.{.`.G 3 3 3 3 2 h =.1.=.=.&.k c.D.r.' 0 U {.{.{. X[.{.{.{.{.{.+X*X;X;X;X*X+X{.{.{. X<X",
" XOX{.{.}.}.{. X@X-X;X;X%X*XOX}.{.{.{.{.{.].Y l 3 3 3 3 h =.1.1.1.1.1.<.d.N.C.{ 2 B '.{.@X;X$X{.{.{.{.+X;X,X:X:X;X>X;X+X{.{. X<X",
"*X;X#X{.{.{.}.&X>X>X;X=X;X<X=X X{.{.{.{.].{.L 3 3 r ] { -.1.1.2.5.2.1.1.1.S.D.{ 2 7 U |.@X:X:X$XOXOX@X;X:X&XOX}.OX$X*XOX{.{. X<X",
"$X:X:X$X+X+X&X>X;X@X}.}.OX&X$X}.{.{.{.].{.`.B 4 { @.r.9.3.2.K.P.E.L.2.1.1.#.@.t 2 5 L |.{.@X;X:X;X:X>X:X*X}.{.{.{.{.{.{.{.{. X1X",
"{.$X:X>X:X:X>X;X@X{.{.{.{.{.{.{.{.{.{.{.{.Y z o.r.A.S.6.1.P.E.W.U.K.1.1.=.r e 4 3 5 J |.].{.+X*X;X=X=X@X}.{.{.{.{.{.].{.{.[.|.,X",
"{.}.+X*X=X=X$XOX{.{.{.{.{.{.{.{.}.{.{.{.{.R #.0.C.B.f.2.P.W.R.L.2.1.1.1.1.k 4 3 3 5 J |.{.{.{.{.OX}.{.{.{.{.{.{.{.{.{.{.{.{. X<X",
"{.{.{.{.[.{.{.{.[.{.{.{.{.{.{.{.{.{.{.}.{.!.r.t.n.Z.6.L.W.R.K.A C n n C <.&.6 4 2 5 F ].{.{.{.{.{.{.{.}.{.{.{.{.{.{.{.{.{.{. X<X",
"[.|.[.|.|.[.|.[.{.{.{.{.{.{.{.{.{.{.{.{.! e.r.v.n.6.L.Q.E.K.A b d M M g V <. .' 4 3 0 K {.{.{.{.{.{.{.{.{.{.{.{.{.{.{.{.{.}.OX<X",
"|.[.|.[.[.|.[.|.{.}.{.{.{.{.{.{.{.{.{.[.a.r.t.N.V.2.E.E.K.A v d M d < < m 1.3.q.y 3 5 N _.{.{.{.}.{.{.{.{.{.{.{.{.{.{.{.{.|.OX<X",
"}.{.[.|.{.|.|.|.{..X{.{.{.{.{.{.{.{.{.! e.r.v.N.-.1.K.K.K.m d d d > & & , =.3.9.t 3 2 7 K {.{.{.{.{.{.{.{.{.{.{.{.{.{.{.{.{.}.<X",
"{.{.|.{.{.[.|.[.{.{.{.{.{.{.{.{.{.{.[.Y.0.V.M.X.V K.K.2.V f d f > % % % - n 2.9._ 3 2 5 D `.{.{.{.{.{.{.{.{.{.{.{.{.{.{.{.{.OX<X",
"{.{.{.{.{.{.{.{.}..X{.{.{.{.{.{.{.{./ d.0.n.c.8 ,.Q.L.<.m M M d & % % % % s <.3._ 4 3 3 N ~ {.{.{.{.{.{.}.{.{.}.{.{.{.{.{.{.OX<X",
"}.{.}.|.{.{.{.{.}.{.{.{.{.{.{.{.].`.~.0.c.N.i ` P.Q.K.<.v M d & % % % % % , <.-._ 3 3 3 _ a.'.{.{.{.{..X{.{.{..X{.{.{..X{.{. X<X",
"{.{.}.{.{.{..X}.{.{.{.{.{.{.{.{.{.( h.0.N.c.e :.Q.W.K.V M M & % % % % % $ , 2.1._ 3 3 3 t s.XX{.{.{.{.}.{.{.{.{.{.{.}.}.{.}. X<X",
"{.{.{.{.{.{.{.}.{.{.{.{.{.{.{.{.{.Q r.q.A.[ 6 i.Q.E.K.m M M & % % % % % O * 2.3._ 3 3 3 t d.( {.{.{.{.{.{.{.}.{.{.{.}.}.{.{. X<X",
"{.}.{.{.{.{.{.{.{.{.{.{.{.}.{.[.{.~.q.q.+.r :.U.W.W.I.Z M > & $ % % & $ X O V -._ 3 3 3 ' e.^ {.{.{.{.{.{.{.{.{.{.{.{.{.{.}. X<X",
"{.{.{.{.{.}.{.{.{.{.}.{.{.{.{.{.'.p.q.r.{ ` T.Q.W.W.W.i.M > & % % % % @   o V 1.r 3 3 3 { e.) {.{.{.{.}.{.{.{.{.{.{.{.{.{.}. X<X",
"{.{.{.{.{.{.{. X{.{.{.{.{.{.{.[.) k.q.0.e ` R.Q.W.W.W.Z M M & % % % % + . O =.-.r 3 3 6 o.d.) .X}.{.{.{.{.{.{.{.{.{.{.{..X}. X<X",
"{.{.{.}.{.{.{.{.{.{.}.{.}..X{.{.~ k.q.o.3 9 U.Q.W.W.E.4.g f & & % % - @ . # 1.*.6 3 3 e O.T.) {.{.{.{.}.{.{..X}.{.{.{.{.{.}. X<X",
"{.{.{.{.{.{.{.{.{.{.{.{.{.{.{.{.XXh.r.` 2 9 P.W.W.W.W.4.b d ; % % % % $ X = 2.| 4 3 4 _ q.!.`.{.{.{.{.{.{.{.{.{.{.{.{.{.}.}. X<X",
"}.{.}.{.{.{.{.{.{.{.{.{.{.{.].{.~ k.w.z 3 8 8.W.W.W.W.7.n d ; % % % % % + x 2.} 3 3 4 { u.Q {.{.{.{.{.{.{.{.{.{.{.{.{.}.{.}. X<X",
"{.{.{.}.{.{.{.{.{.{.{.{.{.{.}.{.'.k.k.D 3 6 ,.W.W.W.W.I.V f ; % % % % % & c 1.k 3 3 4 O.k.) {.{.{.{.{.{.{..X}.}.{.{.{.{.{.{. X<X",
"{.{.{.{.{.{.{.{.{.{.{.{.{.{.}.}.}.^.Y.J 7 3 &.E.Q.W.W.E.5.b > % % % % % & V -.8 3 4 t 0.!.}.{.{.{.{.{.{.{.{.}.{.{.{.{.{.{.{.OX<X",
"}.{.{.{.{.{.}.{.{.{.{.{.{.{.{.{.{./ W U q 5 k P.W.W.W.W.K.A d : : & % % , V =.6 4 4 ..y.I {.[.{.{.{.{.{.{.{.{.{.{.{.{..X{.{. X<X",
"{..X{.{.{.{.}..X{.{.{.{.{.{.{.{.{.{.{.~ l 3 8 5.E.W.W.W.P.1.C f M > % % c 1.k 3 2 r $.u.E {.{.{.{.{.{.{.}.{.{.{.{.{.{.{..X{. X<X",
"{.{.{.{.{.{.}.}.{.{.{.{.{.{.{.{.{.{.{.`.D 3 8 1.I.W.W.W.U.5.1.A g d & , =.&.8 3 4 X.N.g._.{.[.|.{.{.{.{.}.{.{.{.{.{.{.{.{. X X<X",
"{.{.{.{.{.{..X}.}.{.{.{.}.{.{.{.{.{.{.{.K 0 _ =.K.E.W.W.W.I.5.1.A f 1 c &.8 3 3 r c.m.H ].{.{.{.{.{.{.{.}..X{.{.{.{.{.{.{.{. X<X",
"{.{.{.{.{..X{.{.{.{.{.{.{.{.{.{.{.{.].{.~ N { >.<.I.W.Q.Q.Q.P.<.2.=.j h 8 3 3 4 ..M.%.K |.{.{.{.{.{.{.{.{.{.{.{.{.{.}.{.{.}. X<X",
"{.{.{.{.{.}.{.{.{.{.{.{.{.{.{.{.{.{.{.{.{.F $.F.w.5.U.U.W.W.W.7.1. .r 6 4 3 3 y b.m.N ~ |.].{.{.{.{.{.{.{.{.{.{.{.{.{.{.{.}. X<X",
"{.{.{.{.{.{.{.{.{.|.{.{.{.{.|.{.{.{.{.{. XR c.J.S.1.5.5.7.P.K.-.;.y 4 4 3 3 4 $.M.p G .X{.{.{.|.{.{.{.{.{.{.{.{.{.{..X{.{.}. X<X",
".X}.}.{.{.{.{.{.{.{.{.{.{.{.{.{.{.{.{.{.|.XXg.J.N.>.<.1.1.1.1.<.` 4 3 3 2 4 u n.%.9 R .X[.{.{.{.{.{.{.{.{.{.{.{.{.{.{.{.}.}. X<X",
"{.{.{.{.{.{.{.{.{.{.{.{.{.|.|.].[.|.{.{.{.}.^.B.J.X.| <.<.1.1.1.} 4 3 3 3 y c.z.w l _.].{.{.{.{.{.{.{.{.{.{.{.{.{.{.{.{..X{. X<X",
"{.{.{.{.}.{.{.}.{.{.{.{.{.{.].|.|.{.{.].}.{.(.B.J.z.e h &.1.1.1.&.6 3 3 e ..l.i 2 F ].].{.{.{.{.}..X{.{.{.{.{.{.{.{.{.{.{.{. X<X",
"{.{.{.{.{.{.{.{.{.|.{.{.].{.].{.].{.{.{.[.|.! n.J.H.i 3 6 c &.=.k 3 3 3 4 e 4 4 7 U {.{.{.{.{.{.{.{.{.{.{.{.{.{.{.{.[.{.{.{. X<X",
"{.{.{.{.{.{.{.}.].{.{.].{.{.}. XOX X{.{.{.{.XX^.N.J.l.4 3 6 6 6 3 3 3 3 3 3 4 2 B [.{.{.{.{.{.{.{.[.{.{.{.{.{.{.{.{.}. X X X X<X",
"{.{.{.{.[. X X}.{.{.}.{.}.@X=X;X;X-X*XOX{.}.].! Z.H.H.a 5 2 2 4 3 3 3 3 3 3 3 j Y {.{.{.{.{.{.{.{. X}.{.}.}.}.{.}.+X*X;X;X;X*X1X",
"{.{.{.{.}.&X-X@X{.{.}.{.@X>X:X;X;X;X>X=X}.}.{.) k.D.J.M.i 4 2 4 3 3 3 3 3 6 ` L [.{.{.{.{.{.{.{.{.$X;X@X}.}.{.}.$X:X:X;X;X;X>X2X",
"{.{.{.{.}.$X:X:X$XOXOX$X:X:X@XOX X+X*X*X X{.].]./.y.n.J.M.a w 4 2 3 4 2 6 { k.^ {.{.{.{.{.{.{.{.}.$X>X>X@XOXOX$X;X:X$XOX XOX*X2X",
"{.{.{.{.{. X@X:X,X;X;X>X;X$X}.}.{.{.}.}.}.}.{.{.`./.u.n.H.M.x.p e 4 4 r o.p./ {.{.{.{.{.{.{.{.{.{.}.@X:X>X;X:X>X:X$X{.{.{.{. X1X",
"{.{.{.{.{.{.{.@X=X;X-X*X+X[.{.{.{.{.{.{.{.{.{.{.{.[./.r.V.v.D.V.+.o.o.#.Y.~ {.{.{.{.{.{.{.{.{.{.{.{.}.+X=X-X-X*X@X|.{.{.{.{. X<X",
"{.{.{.{.[.{.{.{.[. X X|.{.{.{.{.{.}.{.{.{.{.{.{.].{.[./.s.r.t.r.r.r.j.(.) ].{.{.{.{.{.{.{.{.{.{.{.{.}.{. X X}.{.}.].{.{.{.{. X<X",
"{.{.{.{.{.{.{.{.{.].{.{.{.{.{.].{.}.{.{.{.{.}.{.{.{.].].( /.p.h.j.!.^ }.{.{.{.{.{.{.{.{.{.{.{.{.{.{.{.{.}.].{.{.].{.{.{.{.{. X<X",
".X{.{.{.{.{.{.{.|.|.{.{.{.{.{.{.{.{.{.{.{.{.{.{.{.{.{.{.{.{.[.~ ~ ].{.{.{.{.].{.].].{.{.{.{.{.{.{.{.{.{.}.}.{.{.{.{.{.{.{.{. X<X",
"{.{.{..X{.}.{.{.[.|.{.{.{.{.{.{.}.{.{.{.{.{.{.{.|.].{.}.].{.{.{..X{.{.{.{. XOX X X{.{.{.{.[.{.{.{.{.{.{..X}.{.}.{.{.{.{.{.{.OX<X",
"{.{.{.{.{.{.{.}.{.{.{.|.}.{.{.{.{.{.{.{.}.{.{.{.{.|.].[.|.}.{.].{.{.}. X#X=X;X;X-X&X X{.{.{.{.{.{.{.{.{.{.{.{.{.{.{.{.{.|.{. X<X",
"{.{.{.{.{.}.{.{.{.{.{.{.{.{.{.{.{.{.{.}.{.{.|.{.{.].|. X=X-X+X{.{.{.{.*X>X:X%X;X:X>X&X{.{.{.{.{..X}.{.{.{.{.{.{.{.{.{.{.{.{. X<X",
"{.{.}.{.{.{.{.{.{.{.{.{.{.{.{.}.{.{.{.{.{.{.}.}.{.|.].}.=X>X-X+XOX+X*X>X;X+XOX X+X=X@X{.{.{.{.{.{.{.{.{.{.{.}.{.{.{.{.{.{.{. X<X",
"{.{.{.{.{.{.{.{.{.{.{.{.{.{.{.{.{.{.{.{.{.{.{.{.{.].|.]. X=X>X>X:X>X>X-X+X{.{.{.{.}.{.{.{.{.{.{.}.{.{.{.{.{.{.{.{.{.{.{.{.}.OX<X",
"{.{.{.{.{..X{.{.}.{.{.{.{.}.{.{.{.}.{.{.{.{.{.{.{.}.{.{.{. X$X=X;X=X$XOX{.{.{.{.{.{.{.[.{.{.{.{.{.{.{.{.{.{.}.{.{.{..X{.{.|.OX<X",
"{.{.{.{.}.}.{.{.{.{.}.{.{.{.{.|.{.{.{.}.{.{.[.|.{.{.].|.|.].{. X}.}.{.{.{.].{.{.{.{.{.{.{.{.{.{.{.{.{.}.{.{.{.{.{.{.{.}.{.{.}.<X",
"{.{.}..X}.}.}.{.{.{.{.{.{.{.}.}.{.{.{.}.|.{.|.{.{.{.{.{.[.{.{.{.[.{.{.{.{.{.{.{.{.{.{.{.{.{.{.{.{.{..X{.{.{.{.{.{.{.{.{.{.{.OX<X"
};
