/* XPM */
static char *result[] = {
/* columns rows colors chars-per-pixel */
"64 64 148 2 ",
"   c #161616",
".  c #1D1D1D",
"X  c #22211E",
"o  c #1E1E20",
"O  c #1F2124",
"+  c #232425",
"@  c #21252B",
"#  c #2C2C2B",
"$  c #222730",
"%  c #242933",
"&  c #252D3C",
"*  c #2B3139",
"=  c #333333",
"-  c #3D3C3C",
";  c #273042",
":  c #283246",
">  c #29354A",
",  c #333741",
"<  c #3C3E41",
"1  c #2C3A55",
"2  c #2E3D5B",
"3  c #3F4043",
"4  c #3F4654",
"5  c #2F4060",
"6  c #304265",
"7  c #33476D",
"8  c #2F4874",
"9  c #344A74",
"0  c #3E5072",
"q  c #38517F",
"w  c #434343",
"e  c #4F4F4F",
"r  c #535353",
"t  c #5D5D5D",
"y  c #434D60",
"u  c #465777",
"i  c #636362",
"p  c #686665",
"a  c #6B6B6B",
"s  c #767676",
"d  c #7C7B7B",
"f  c #807F7F",
"g  c #375180",
"h  c #3A568B",
"j  c #3C588E",
"k  c #3C5A92",
"l  c #3F5F9B",
"z  c #3F609D",
"x  c #49608D",
"c  c #55688D",
"v  c #496496",
"b  c #41619E",
"n  c #4B679E",
"m  c #4163A3",
"M  c #4467AC",
"N  c #4469AE",
"B  c #4B6CAB",
"V  c #5171AB",
"C  c #466CB4",
"Z  c #476FBA",
"A  c #4770BB",
"S  c #4871BE",
"D  c #4A74C4",
"F  c #4B77C9",
"G  c #4D79CC",
"H  c #4E7DD4",
"J  c #4F7FD8",
"K  c #7684A0",
"L  c #7889AB",
"P  c #7D92B9",
"I  c #5181DB",
"U  c #7E9BD5",
"Y  c #7599DF",
"T  c #7C9CDB",
"R  c #5385E4",
"E  c #5487E9",
"W  c #558AEC",
"Q  c #5B8EEF",
"!  c #5F90ED",
"~  c #578DF3",
"^  c #598EF2",
"/  c #5D91F2",
"(  c #6C95E3",
")  c #6492EA",
"_  c #6A96EA",
"`  c #769AE0",
"'  c #6394F2",
"]  c #6B9AF1",
"[  c #729EF1",
"{  c #7DA0E1",
"}  c #76A1F1",
"|  c #7BA4F1",
" . c #858585",
".. c #8C8A87",
"X. c #878789",
"o. c #8D8C8C",
"O. c #918F8F",
"+. c #939292",
"@. c #989797",
"#. c #9D9B9B",
"$. c #A19F9F",
"%. c #A5A29F",
"&. c #808BA1",
"*. c #96A4BF",
"=. c #A5A4A4",
"-. c #A8A7A6",
";. c #AAAAAA",
":. c #B0AFAF",
">. c #ABACB3",
",. c #A8AEBD",
"<. c #ADB1BC",
"1. c #B6B4B5",
"2. c #B8B6B6",
"3. c #B1B4BC",
"4. c #B9B7B8",
"5. c #BCBBBB",
"6. c #C1BFBF",
"7. c #8FA4CC",
"8. c #9EABC5",
"9. c #94A7CB",
"0. c #9CABCA",
"q. c #86A1D5",
"w. c #89A2D3",
"e. c #B1B7C4",
"r. c #B4B9C5",
"t. c #85AAF1",
"y. c #8AAEF1",
"u. c #8BB0F5",
"i. c #94B4F0",
"p. c #98B7F0",
"a. c #9CB9F0",
"s. c #BFC0C5",
"d. c #BFC1C9",
"f. c #A9C3F3",
"g. c #C2C2C2",
"h. c #C2C4CB",
"j. c #CCCCCC",
"k. c #C6CAD4",
"l. c #D2D2D3",
"z. c #DCD9D4",
"x. c #D8D7D8",
"c. c #DCDBDB",
"v. c #E3E3E2",
"b. c #ECECEC",
"n. c #F0F0EF",
"m. c #F3F4F4",
"M. c #F7F8F8",
"N. c #FDFDFD",
/* pixels */
"u.^ ~ ~ ~ ~ ~ ~ ~ ~ / ~ ~ ~ ~ ~ ~ ~ ~ ~ ~ ~ ~ ~ ~ ~ ~ ~ ~ ~ ~ ~ ~ ~ ~ ~ / ~ ~ ~ ~ ~ ~ ~ ~ ~ ~ ~ ~ ~ ~ ~ ~ ~ ~ ~ ~ ~ ~ ~ ~ ~ / ~ ",
"u.^ ~ ~ ~ ~ ~ ~ ~ ~ ~ ~ ~ ~ ~ ~ ~ ~ ~ ~ ~ ~ ~ ~ ~ ~ ~ ~ ~ ~ ~ ~ ~ ~ ~ ~ ~ ~ ~ ~ ~ ~ ~ ~ ~ ~ ~ ~ ~ ~ ~ ~ ^ ~ ~ ~ ^ ~ ~ ~ ~ ~ ~ ~ ",
"u.^ ~ ~ ~ ~ ~ ~ ~ ~ ~ ~ / ~ ~ ~ ~ ~ ~ ~ ~ ~ ~ ~ ~ ~ ~ ~ ~ ~ ~ ~ ~ ~ ~ ~ ~ ~ ~ ~ ~ ~ ~ ~ ~ ~ ~ ~ ~ ~ ~ ~ ~ ~ ~ ~ ~ ~ ~ ~ ~ ~ ~ / ",
"u.^ ~ ~ ~ ~ ~ ~ ~ ~ ~ ~ ~ ~ ~ ~ ~ ~ ~ ~ ~ ~ ~ ~ ~ / ~ ~ ~ ~ ~ ~ ~ ~ ~ ~ ~ ~ ~ ~ ~ ~ ~ ~ ~ ~ ~ ~ ~ ~ ~ / ~ ~ ~ ~ ~ ~ ~ ~ ~ ~ ~ ~ ",
"u.^ ~ ~ ~ ~ ~ ~ ~ ~ ~ ~ ~ ~ ~ ~ ~ ~ ~ ~ ~ ~ ~ ~ ~ ~ ~ ~ ~ ~ ~ ~ ~ ~ ~ ~ ~ ~ ~ ~ W / / / ! ^ ~ ~ ~ ~ ~ ~ ~ ~ ^ ~ ~ ~ ~ ~ ~ / ~ ~ ",
"u.^ ~ ~ ~ ~ ~ ~ ~ ~ ~ ~ ~ ~ ~ ~ ~ ~ ~ ~ ~ ~ ~ ~ ~ ~ ~ ~ ~ ~ ~ ~ / / ~ ~ ~ ~ ~ / [ y.i.i.u.| / ~ ~ ~ ~ ~ ~ ~ ~ ~ ~ ^ ~ ~ ~ ~ ~ ~ ",
"u.^ ~ ~ ^ ~ ~ ~ ~ ~ ~ ~ ~ ~ ~ ~ ~ ~ ~ ~ ~ ~ ~ ~ ~ ~ ~ ~ ~ ~ ~ / u.y.' ~ ~ ~ ~ t.a.a.p.p.a.a.i./ ~ ~ ~ ~ ~ ~ ~ ~ ~ ^ ^ ~ ~ ~ ~ / ",
"u.^ ~ ~ ~ ~ ~ ~ ^ ~ ~ ~ / ~ ~ ~ ~ ~ ~ ~ ~ ~ ~ ~ ~ ~ ~ ~ ~ ~ ~ ^ y.a.u.[ / ] | a.i.} / / ] t.t./ ~ ~ ~ ~ ~ ~ ~ ~ ~ ~ ~ ~ ~ ~ ~ ~ ",
"u.~ ~ ~ ~ ~ ~ ~ ~ ~ ^ ~ ~ ~ ^ ~ ~ ~ ~ ~ ~ ~ W ~ E D C Z H E ~ ~ / t.a.a.p.a.a.p.] ~ ~ ~ ~ W ~ ~ ~ ~ ~ ~ ~ ~ ~ ~ ~ ~ ~ ~ ~ ~ ~ ^ ",
"u./ ~ ~ ~ ~ ~ ~ ~ ~ ~ ~ ~ ~ ~ ~ ~ ~ ~ ~ ~ ~ ~ D 2 % O $ % 6 I ~ ~ / | i.i.u.| ] / ~ ~ ~ ~ ~ ~ ~ ~ ~ ~ ~ ~ ~ ~ ~ ^ ~ ~ ~ ~ ^ ~ ^ ",
"u.^ ~ ~ ~ ~ ~ ~ ^ ~ ~ ~ ~ ~ ~ ^ ~ ~ ~ ~ ~ ~ R 2 . . o o O > D ~ W ~ ~ ~ / ~ ~ ~ ~ ~ ~ ~ ~ ~ ~ ~ ~ ~ ~ ~ ~ ~ ~ ~ ~ ~ ^ ~ ~ ~ ~ ^ ",
"u.^ ~ ~ ~ ~ ~ ~ ~ ~ ~ ~ ~ ~ ~ ~ ~ ~ ~ ~ ~ ~ J : . . o O m I ~ ~ ~ ~ ~ ~ ~ ~ ~ ~ ~ ~ ~ W ~ ~ ~ ~ ~ ~ ~ ~ ~ ~ ~ ~ ~ ~ ~ ~ ~ ~ ^ ^ ",
"u.~ ~ ~ ~ ~ ~ ~ ~ ~ ~ ~ ~ ~ ~ ~ ~ ~ ~ ~ ~ ~ m . . . . $ G ~ ~ ~ ~ ~ ~ ~ ~ ~ ~ ~ ~ ~ ~ ~ ~ ~ ~ ~ ~ ~ ~ ~ ~ ~ ~ / / / ^ ~ ~ ~ ~ ^ ",
"u.~ ~ ~ ~ W ~ ~ ~ / / ' / / ~ ~ ~ ~ ~ ~ ~ ~ 9 . . . . $ G ~ ~ ~ ~ ~ ~ ~ ~ ~ ~ ~ ~ ~ ~ ~ ~ ~ ! ~ ~ ~ ~ ~ ~ ] | i.i.i.u.[ ^ ~ ~ ^ ",
"i.' ~ ~ ~ ~ ~ / | u.p.p.i.u.' ~ W ~ ~ ~ ~ I > . o o . $ F ~ ~ ~ ~ ~ ~ ~ ~ ~ ~ ~ ~ ~ ~ ~ ~ | i.[ / ~ ~ ~ [ p.a.p.i.p.a.p.] ~ ~ ^ ",
"f.i.] ~ ~ ~ / t.a.a.i.u.i.a.i./ ~ ~ ~ ~ ~ m O . . o o O F ~ ~ ~ ~ ~ ~ ~ ~ ~ ~ ~ ~ ~ ~ ~ ~ } a.a.} / ' } i.a.t.' / / } u.' ~ ~ ^ ",
"f.a.p.} ] ] u.a.i.] / ^ / | | / ~ ~ ~ W I : . . . o . @ D ~ ~ ~ ~ ~ ~ ~ ~ ~ ~ ~ ~ ~ ~ ~ ~ ~ } p.a.a.p.a.a.| / ~ ~ ~ ~ / ~ ~ ~ ~ ",
"u.| p.p.p.p.a.u.' ~ ~ ~ ~ ~ ~ ~ ~ ~ ~ ~ M O . . o . . + C ~ ~ ~ ~ ~ ~ ~ ~ ~ ~ ~ ~ ~ ~ ~ ~ ~ ~ ] u.u.i.y.] / ~ ~ ~ ~ ~ ~ ~ ~ ~ ~ ",
"u./ } u.y.y.| ' ~ ~ ~ ~ ~ ~ W ~ ~ ~ ~ H 1 . . . . o . O N ~ ~ ~ ~ ~ ~ ~ ~ ~ ~ ~ ~ ~ ~ ~ ~ W ~ ~ / / ~ ~ ~ ~ ~ ~ ~ ~ ~ ~ ~ ~ ~ ~ ",
"u./ ~ ~ / ~ ~ ~ ~ ~ ~ ~ ~ ~ ~ ~ W ~ A > o . . . o . . O g G W ~ ~ ~ ~ ~ ~ ~ ~ ~ ~ ~ ~ ~ ~ ~ ~ ~ ~ ~ W ~ ~ ~ ~ ^ ~ ~ ~ ~ ~ ~ ~ / ",
"u.~ ~ ~ ~ ~ ~ W ~ ~ W ~ W ~ ~ ~ ~ F & . . . . . . . . . . % L ` ! ! ~ ~ ~ ~ ~ ~ ~ ~ ~ ~ ~ ~ ~ ~ ~ ~ ~ ~ ~ ~ ~ ~ ~ ~ ~ ~ ~ ~ ~ ~ ",
"u.~ ~ ~ ~ ~ ~ ~ ~ ~ ~ ~ ~ E H C 9 & . . . . . . . . . . . + +.1.<.8.7.Y ~ ~ W ~ ~ ~ ~ ~ ~ ~ ~ ~ ~ ~ ~ ~ ~ ~ ~ ~ ~ ~ ~ ~ ~ ~ ~ / ",
"u.~ ~ ~ ~ ~ ~ ~ W I A z 9 > $ O o o . . . . . o . . . . . . f 5.1.1.1.>.c m H W ~ ~ ~ ~ ~ ~ ~ ~ ~ ~ ~ ~ ~ ~ ~ ^ ~ ~ ~ ~ ~ ~ ~ ~ ",
"u.~ ~ ~ W ~ R m 5 & O . X + + o .     . . . o . . X + = w r #.2.2.1.4.+.# . & 7 m I ~ ~ W ~ ~ ~ ~ ~ ~ ~ ~ ~ ~ ~ ~ ^ ~ ~ ~ ~ ~ / ",
"u./ ~ ~ R N 1 O . . + s 1.g.2.;.@. .p e X . . . - s @.=.;.:.2.1.1.1.o.- . o . . + & h I W ~ ~ ~ ~ ~ ~ ~ ~ ~ ~ ~ ~ ~ ^ ~ ~ ^ ~ ^ ",
"u.~ ~ E 9 O . . . . p b.N.N.N.N.N.N.n.5.= . . o a %.#.%.#.@.@...d t # . o . o . . . . & m E ~ ~ ~ ~ ~ ~ ~ ~ ~ ~ ^ ~ ~ ~ ~ ~ ~ ^ ",
"u.~ ~ F % . o o . . ..N.N.M.M.b.s.d t = . . . . + # # # # # # + o . . . . . . . o . . . O 7 I ~ ~ ~ ~ ~ ~ ~ ~ ~ ~ ~ ^ ~ ~ ~ ~ ^ ",
"u.~ ~ h X . o o o . 3 =.l.x.;.i # . o O . . . . . . o o . . . . . . . . . o . . . . . . . . 5 I ~ ~ ~ ~ ~ ~ ~ ~ ~ ~ ~ ~ ~ ~ ~ ^ ",
"u.W W 8               . + # .   o . . . . . . . . X . . . . . . . . . . . X o . o . . . . . o 1 G ~ ~ ~ ~ ~ ~ ~ ~ ~ ~ ~ ~ ~ ^ ^ ",
"u.~ ~ P d a a a a a s d s s d p = o . . . . . . . . . X = w w = # = - - w = = # o . . . . o . o > A W ~ ~ ~ ~ ~ ~ ~ ~ ~ ~ ~ ~ ^ ",
"u.~ _ k.n.N.N.N.N.N.N.N.N.N.N.M.j.i . . . . . X . . . i j.b.b.l.1.j.b.b.b.v.j.g.d % . . . .   o o ; F ~ ~ ~ ~ ~ ~ ~ ~ ~ ~ ~ ~ ^ ",
"u.~ ! q.d.v.M.N.N.N.N.N.N.N.N.N.N.c.i . . . . o o . - l.N.N.N.N.N.N.N.N.N.N.N.N.m.5.e . . . . o o   5 E ~ ~ ~ ~ ~ ~ ~ ~ ~ ~ ~ ~ ",
"u.~ ~ Q { 8.d.x.m.M.N.N.N.N.N.N.N.n.%.+ . . . o . . w 2.b.N.N.N.N.N.N.N.N.N.N.N.N.M.l.w . o . . . . O 9 G I I I D A S D I E W ~ ",
"u.~ ~ ~ ~ Q ( q.e.j.z.v.m.N.N.N.m.g.-.- . . . . . . - =.6.x.b.M.M.n.+.X.6.c.v.b.b.b.l.e . . . . . o . . $ & & % O * , 3 4 q R ~ ",
"u.^ ~ ~ ~ ~ ~ ~ ) T q.0.r.h.l.x.j.2.-.- . . . X . . + O.1.1.5.6.g.6.f r - - = = - w - = = # # # # + + . . . . . + = 3 3 - , F ~ ",
"u.^ ~ ~ ~ ~ ~ ~ ~ ~ ~ ~ ! ` U q.9.9.&.# . . . . . . + i f X.*.0.9.8.3.2.%...d p i d O.;.-.-.$.+...O.o.a # . . . # - - - - - b ~ ",
"u.^ ~ ~ ~ ~ ~ ~ ~ ~ ~ ~ ~ ~ ~ ~ ~ Q G % . o . o . . + - - w V ! W ! ( U w.w.0.8.,.<.<.3.3.3.<.e.3.3.3.d.K & . . . = - - - - 0 W ",
"u.~ ~ ~ ~ ~ ~ ~ ~ ~ ~ ~ ~ ~ ~ ~ ~ ~ W 9 o o . . . . X = - - y I ~ ~ ~ ~ ~ ~ ~ ! ! ) ) ) ) ) ) / ) ) ) ) / D > O . o = - - - e I ",
"u.~ ~ ~ ~ ~ ~ ~ ~ ~ ~ ~ ~ ~ ~ / ~ W ~ H % . . o . . o X = < < v ~ ~ ~ ~ ~ ~ ~ ~ ~ ~ ~ ~ ~ ~ ~ ~ W ~ ~ ~ ~ ~ M O . . O + 6 x n W ",
"u./ ~ ~ ~ ~ ~ ~ ~ ~ ~ ~ ~ ~ ~ ~ ~ ~ ~ ~ z O . . . . . o X - < u E ~ ~ ~ ~ ~ ~ ~ ~ ~ ~ ~ ~ ~ ^ ~ ~ ~ ~ ~ ~ ~ W k O . . . > H W ~ ",
"u.^ ~ ~ ~ ~ ^ ~ ~ ~ ~ ~ ~ ~ ~ ~ ~ ~ ~ ~ E k O o . . . . . # < x W ~ ~ ~ ~ ~ ~ ~ ~ ^ ~ ~ ~ ^ ~ ~ ~ ~ ~ ~ ~ ~ ~ R 5 . . o o j ~ ~ ",
"u.^ ~ ~ ~ ~ ~ ~ ~ ~ ^ ~ ~ ~ ~ ~ ~ ~ ~ ~ ~ W l $ . . . . o & B R ~ ~ ~ ~ ^ ~ ~ ~ ~ ~ ~ ~ ~ ~ ~ ~ ~ ~ ~ ~ ~ ~ W ~ M O . . . 5 W / ",
"u.^ ~ ~ ~ ~ ~ ~ ~ ~ ~ ~ ~ ^ ~ ~ ~ ~ ~ ~ ~ ~ ~ Z 5 O O O O z E W ~ ~ ~ ~ ~ ~ ~ ~ ^ ~ ~ ~ ^ ~ ~ ^ ~ ~ ~ ~ ~ ~ ~ ~ I 5 o o . 5 W ~ ",
"u.~ ~ ~ ~ ~ ~ ~ ~ ~ ~ ~ ~ ~ ~ ~ ~ ~ ~ ~ ~ ~ ~ ~ E A z m D ~ ~ ~ ~ ~ ~ ~ ~ ~ ~ ~ ~ ~ ~ ~ ~ ~ ~ ~ ~ ~ ~ ~ ~ ~ ~ ~ ~ S @ . O 5 W ~ ",
"u./ ~ ~ ~ ~ ~ ~ ~ ~ ~ ~ ~ ~ ~ ~ ~ ~ ~ ~ ~ ~ ~ ~ ~ ~ ~ ~ ~ ~ ~ ~ ~ ~ ~ ~ ~ ~ ~ ~ ~ ~ ~ ~ ~ ~ ~ ~ ~ ~ ~ ~ ~ ~ ~ ~ ~ ~ z $ . : I ~ ",
"u.~ ~ ~ ~ ~ ~ ~ ~ ~ ~ ~ ~ ~ ~ ~ ~ ~ ~ ~ ~ ~ ~ ~ ~ ~ ~ ~ ~ ~ ~ ~ ~ ~ ~ ~ ~ ~ ~ ~ ~ ~ ~ ~ ~ ~ ~ ~ ~ ~ ~ ~ ~ ~ ~ ~ ~ ~ W N > 5 R ~ ",
"u.~ ~ ~ ~ ~ ~ ~ ~ ~ ~ ~ ^ ~ ~ ~ ~ ~ W ~ ~ ~ ~ ~ ~ ~ ~ ~ ~ ~ ~ ~ ~ ~ ~ ~ ~ ~ ~ ~ ~ ~ ~ / ~ ~ ~ ^ ~ ~ ~ ~ ~ ~ ~ ~ ~ ~ ~ W I R ~ ~ ",
"u.~ ~ ~ ~ ~ ~ ~ ~ ~ ~ ~ ~ ~ ^ ^ / ^ ~ ~ ~ ~ ~ ~ ~ ~ ~ ~ ~ ~ ~ ~ ~ ~ ~ ~ ~ ~ ~ ~ ~ ~ ~ ~ ~ ~ ~ ~ ~ ~ ~ ~ ~ ~ ~ W ~ ~ ~ ~ / / / / ",
"u./ ~ ~ ~ / / ~ ~ ~ ~ ~ ~ ] t.i.p.i.u.' ^ ~ ~ ~ ~ ^ ~ ~ ~ ~ ~ ~ ~ ~ ~ ~ ~ ~ ~ ~ ~ ~ ~ ^ ~ ~ ~ ~ ~ ~ ~ / ~ ~ ~ ~ ~ ~ ] t.i.i.i.y.",
"u.~ ~ ~ ~ u.u.] ~ ~ ~ ~ } p.a.p.p.p.a.i./ ~ ~ ~ ~ ~ ~ ~ ~ ~ ~ ~ ~ ~ ~ ~ ~ ~ ~ ~ ~ ~ ~ ~ ^ ~ ~ ~ ~ ~ t.u.] / ~ ~ ~ } p.a.i.i.p.a.",
"u.~ ~ ~ ~ | a.p.} / ' | p.p.} ) / / | u.' ~ ~ ~ ^ ~ ~ ~ ~ ~ ~ ~ ~ ~ ~ ~ ~ ~ ~ ^ ~ ~ ~ ~ ~ ~ ~ ~ ~ W | a.a.} / ) } p.p.| ' ! / | ",
"u.~ ~ ~ ~ ^ | p.a.p.a.a.p.| ^ ~ ~ ~ ^ ^ ^ ~ ^ ~ ~ ~ ~ ~ ~ ~ ~ ~ ~ ~ ~ ~ ~ ~ ~ ~ ^ ~ ~ ~ ~ ~ ^ ~ ~ ~ / } p.a.p.p.a.p.| / ~ ~ ~ / ",
"u.~ ~ ~ ~ ~ ~ } y.i.i.t.] ~ ~ ~ ~ ~ ^ ^ ~ ~ ~ ~ ~ ~ ~ ~ ^ ~ ^ ~ ~ ~ ~ ~ ~ ~ ~ ~ ~ ~ ~ ~ ~ ~ ~ ~ ~ ~ ~ ~ ] u.i.y.t.] / ~ ~ ~ ~ ~ ",
"u./ ~ ~ ^ ~ ~ ~ ^ ! ^ ^ ~ ~ ~ ~ ~ ~ ~ ~ ~ ~ ^ ~ ~ ~ ~ ~ ~ ~ ~ ~ ~ ~ ~ ~ ^ ~ ~ ~ ~ ~ ~ ~ ~ ~ ~ ~ ~ ~ ~ ~ ~ ! / / / ~ ~ ~ ~ ~ ~ / ",
"u.~ ~ ~ ~ ~ ^ ^ ~ ~ ~ ~ ~ ~ ~ ~ ~ ~ ~ ~ ~ ~ ~ ~ ~ ~ ^ ~ ~ ~ ~ ~ ~ ~ ~ ~ ~ ~ ~ ~ ^ ~ ~ ~ ~ ~ ~ ~ ~ ~ ~ ~ ~ ~ ~ ~ ~ ~ ~ ~ ~ ~ ~ ~ ",
"u.~ ~ ~ ~ ~ ~ ~ ~ ~ ~ ~ ~ ~ ~ ~ ~ ~ ~ ~ ~ ~ ~ ~ ~ ~ ~ ~ ~ ~ ~ ~ ~ ~ ~ ~ ~ ~ ~ ~ ~ ~ ~ ~ ~ ~ ~ ~ ~ ~ ~ ~ ~ ~ ~ ~ ~ ~ ~ ~ ~ ~ ~ ~ ",
"u.~ ~ ~ ~ ~ ~ ~ ~ ~ ~ ^ ~ ~ ~ ~ ~ ~ ~ ~ ~ ~ ~ ~ ~ ~ ~ ~ ~ ~ ~ ~ ~ ~ ~ ~ ~ / / / / / ~ ~ ~ ~ ~ ~ ~ ~ ^ ~ ~ ~ ~ ~ ~ ~ ~ ~ ~ ~ ~ / ",
"u./ ~ ~ ~ ~ ~ ~ ~ ~ ~ ~ ~ ~ ~ ~ ~ ^ ~ ~ ~ ^ ~ ^ ~ ~ ~ ~ ~ Q ~ ~ ~ ~ ~ ^ / | u.p.i.u.[ ^ ~ ~ ~ ~ ~ ~ ~ ~ ~ ~ ~ ~ ~ ~ ~ ~ ~ ~ ~ ~ ",
"u.~ ~ ~ ~ ~ ~ ~ ~ ~ ~ ~ ~ ~ ~ / ~ ~ ~ ~ ~ ~ ~ ~ ~ ~ ~ ~ } i.| Q ~ ~ ~ ] p.a.a.a.p.a.a.[ ~ ~ ~ ~ ^ ~ ~ ~ ~ ~ ~ ~ ~ ~ ~ ~ ~ ~ ~ / ",
"u.~ ~ / ~ ~ ~ / ~ ~ ~ ~ ~ ~ ~ ~ ~ ~ ~ ~ ~ ~ ~ ~ ~ ~ ~ ~ } p.a.| ] / } u.a.| ] / / } u.] ~ ~ ~ ~ ~ ~ ^ ~ ~ ~ / ~ ~ ~ ~ ~ ~ ~ ~ ~ ",
"u.~ ~ ~ ~ ~ ~ ~ ~ ~ ~ ^ ~ ~ ~ ~ ~ ~ ~ ~ ~ ~ ~ ~ ~ ~ ~ ~ ~ ] i.a.i.i.a.a.u./ ~ ~ ~ ~ ^ ~ ~ ~ ^ ~ ~ ~ ~ ~ ~ ~ ~ ~ ~ ~ ~ ~ ~ ~ ~ ^ ",
"u./ ~ ~ ~ ~ ~ ~ ~ ~ ~ ~ ~ ~ ~ ~ ~ ~ ^ ~ ~ ~ ~ ~ ~ ~ ~ ~ ~ ~ ] y.i.i.y.] / ~ ~ ~ ~ ~ ~ ~ ~ ~ ~ ~ ^ ~ ~ ^ ~ ~ ~ ~ ~ ~ ~ ~ ~ ~ ~ ^ ",
"u.~ ~ ~ ~ ~ ~ ~ ~ ~ ~ ~ ~ ~ ~ ~ ~ ~ ~ ~ ~ Q ~ ~ ~ ~ ~ ~ ~ ~ ~ ~ Q Q ~ ~ ~ ~ ~ ~ ~ ~ ~ ~ ~ ~ ~ ~ ~ ~ ~ ~ ~ ~ ~ ~ ~ ~ ~ ~ ~ ~ ~ ^ ",
"u./ ~ ~ ~ ~ ~ ~ ~ ~ ~ ~ ~ ~ ~ ~ ~ ~ ~ ~ ~ ~ ~ ~ ~ ~ ~ ~ ~ ~ ~ ~ ~ ~ ~ ~ ~ ~ ~ ~ ~ ~ ~ ~ ~ ~ ~ ~ ~ ^ ~ ~ ~ ~ ~ / ~ ~ ~ ~ ~ ~ ~ ^ "
};
