/* XPM */
static char *result[] = {
/* columns rows colors chars-per-pixel */
"64 64 158 2 ",
"   c #161616",
".  c #171718",
"X  c #1D1D1D",
"o  c #1E1F21",
"O  c #1F2124",
"+  c #222223",
"@  c #282827",
"#  c #20242A",
"$  c #27282B",
"%  c #2C2C2C",
"&  c #222731",
"*  c #232933",
"=  c #252C3A",
"-  c #292F38",
";  c #2E333B",
":  c #323232",
">  c #3D3D3C",
",  c #273142",
"<  c #283347",
"1  c #29354A",
"2  c #3C3E42",
"3  c #333A48",
"4  c #2B3953",
"5  c #2E3D5B",
"6  c #2F405F",
"7  c #364155",
"8  c #314365",
"9  c #384867",
"0  c #324569",
"q  c #344A74",
"w  c #364E7A",
"e  c #38507E",
"r  c #444444",
"t  c #4B4B4B",
"y  c #414856",
"u  c #414B5C",
"i  c #545454",
"p  c #5A5A5A",
"a  c #435068",
"s  c #405479",
"d  c #475A7E",
"f  c #656464",
"g  c #696867",
"h  c #6E6D6E",
"j  c #747474",
"k  c #787777",
"l  c #7A7A7A",
"z  c #827F7D",
"x  c #395484",
"c  c #3C588D",
"v  c #3D5A92",
"b  c #3F5E9A",
"n  c #3F609E",
"m  c #475F8B",
"M  c #485E89",
"N  c #5A6B8E",
"B  c #4A6494",
"V  c #41619F",
"C  c #6C7C9B",
"Z  c #4163A2",
"A  c #4C6AA3",
"S  c #4367AA",
"D  c #4469AE",
"F  c #466CB5",
"G  c #486EB6",
"H  c #476FBA",
"J  c #4971BD",
"K  c #4A74C4",
"L  c #4C79CD",
"P  c #507AC8",
"I  c #4E7CD4",
"U  c #4F7FD8",
"Y  c #7687A8",
"T  c #7085AD",
"R  c #4F80D9",
"E  c #5182DC",
"W  c #6F8EC7",
"Q  c #7994C8",
"!  c #7F99CB",
"~  c #7898D5",
"^  c #7599DE",
"/  c #7D9DDB",
"(  c #5385E4",
")  c #5387E8",
"_  c #558AED",
"`  c #5B8EED",
"'  c #5F90EC",
"]  c #578DF3",
"[  c #598DF3",
"{  c #588FF8",
"}  c #5D91F2",
"|  c #5890F8",
" . c #6792E6",
".. c #6994E6",
"X. c #6291EB",
"o. c #779AE0",
"O. c #749CE8",
"+. c #6394F2",
"@. c #6798F4",
"#. c #6E9DF4",
"$. c #729EF2",
"%. c #76A0F1",
"&. c #7CA4F1",
"*. c #848484",
"=. c #83868D",
"-. c #8B8A8A",
";. c #949393",
":. c #9C9A9A",
">. c #8A98B4",
",. c #939DB3",
"<. c #A09FA0",
"1. c #A3A2A1",
"2. c #A8A7A7",
"3. c #ABAAAA",
"4. c #ACAEB6",
"5. c #AEB3BF",
"6. c #B5B4B4",
"7. c #B8B6B5",
"8. c #BCBCBC",
"9. c #C1BFBF",
"0. c #849FD4",
"q. c #8FA4CE",
"w. c #9DAAC6",
"e. c #95A7CA",
"r. c #95A8CF",
"t. c #89A3D4",
"y. c #90A6D2",
"u. c #9FAFD1",
"i. c #ADB3C1",
"p. c #A5B1CB",
"a. c #AEB6C8",
"s. c #B4B9C7",
"d. c #B0B7C8",
"f. c #A4B5D7",
"g. c #8FACE3",
"h. c #80A7F1",
"j. c #84AAF1",
"k. c #8AAEF0",
"l. c #8EB1F1",
"z. c #94B4F0",
"x. c #99B7F0",
"c. c #9CB9F0",
"v. c #BCC1CD",
"b. c #C3C3C3",
"n. c #C4C5CB",
"m. c #CDCDCD",
"M. c #CECFD3",
"N. c #D3D2D2",
"B. c #D8D8D7",
"V. c gainsboro",
"C. c #E1DFDC",
"Z. c #E5E5E5",
"A. c #EAEAEA",
"S. c #F0EFEF",
"D. c #F1F0EE",
"F. c #F5F5F5",
"G. c #F8F7F7",
"H. c #FDFDFD",
/* pixels */
"#.[ ] ] ] ] ] ] { ] ] ] ] ] ] ] ] ] [ ] ] ] ] [ ] ] ] ] ] ] ] ] ] [ ] ] ] ] ] ] ] ] ] ] ] ] | ] ] [ ] ] ] ] | ] ] ] ] ] | ] ] #.",
"#.[ ] ] [ ] ] ] ] ] | ] ] [ ] ] ] ] ] ] ] | ] ] ] ] ] { ] ] ] ] ] ] ] ] [ ] ] | ] ] ] ] ] ] ] ] ] ] ] ] [ ] ] ] ] ] [ ] ] ] [ #.",
"#.[ ] ] ] ] [ ] ] ] ] ] ] ] ] ] ] ] ] ] ] ] [ ] ] ] ] ] ] ] ] ] ] ] ] ] ] ] ] ] ] ] ] ] ] ] ] _ ] ] ] ] ] ] ] ] ] ] ] ] ] ] [ #.",
"#.[ ] [ ] ] ] ] ] [ ] ] ] ] ] [ ] [ ] ] ] ] ] ] ] [ ] ] ] _ ] ] ] ] ] ] ] ] ] ] ] ] ] ] ] ] ] ] ] ] [ ] ] ] ] ] ] ] ] [ ] ] } #.",
"#.[ [ ] ] ] ] ] ] ] ] [ ] ] ] | ] ] ] ] | ] ] ] ] ] ] [ ] ] ] ] ] ] ] ] ] ] ] ] _ } } } } ] ] _ ] ] [ ] ] ] ] ] ] ] [ ] ] ] ] #.",
"#.[ ] ] ] ] | ] ] ] { ] [ ] ] ] ] [ ] | ] ] ] [ | ] ] ] ] ] ] ] } ] ] ] ] ] ] X.&.l.z.z.l.%.} ] ] ] ] ] ] [ ] ] ] ] ] ] ] ] | #.",
"#.[ ] ] ] ] ] ] ] ] ] ] ] [ ] ] ] ] ] [ ] ] ] ] ] ] [ ] ] ] ] #.z.&.} ] ] ] +.l.c.c.z.z.c.c.&.] ] ] ] ] ] ] [ | ] ] ] ] ] ] ] #.",
"#.| ] ] ] [ ] ] ] ] ] ] ] ] ] ] ] ] ] ] ] ] ] ] ] ] ] ] ] ] ] @.z.c.j.@.@.%.l.c.k.#.+.+.$.j.#.] ] ] ] ] [ ] ] ] ] [ | ] ] ] [ #.",
"#.[ ] ] ] ] ] ] ] [ [ ] ] ] ] [ | ] ] ] [ ] ] ] ] [ ] ] ] ] ] ] @.l.c.g.! T T Q X.] ] ] ] } ] ] ] ] ] ] ] ] ] ] ] ] ] ] ] ] [ #.",
"#.[ ] ] ] ] ] ] ] ] ] ] ] ] ] ] ] ] ] ] ] ] ] { ] ] ] ] ] ] ] ] [ +.W u - $ % - 0 L ] ] ] ] ] _ ] ] ] ] ] ] ] ] ] ] ] ] ] ] [ #.",
"#.[ ] [ ] ] ] ] ] ] ] ] ] ] ] | ] ] ] ] ] ] [ ] ] ] ] ] ] ] ] ] ] ] G < + X X X . w ] ] ] ] ] ] ] ] ] ] ] ] ] ] ] ] ] ] ] ] [ #.",
"#.[ ] ] ] ] ] ] | ] ] ] ] ] ] ] ] [ ] ] ] ] ] ] ] ] ] ] ] ] ] ] ] ] ` I x O X o X 8 ) ] ] _ ] ] ] ] ] ] ] ] ] ] ] ] ] ] ] ] | #.",
"#.[ ] ] ] ] _ ] ] ] ] ] ] _ ] ] ] ] ] ] ] | ] ] [ ] ] | ] ] ] ] ] ] ] { D O X X X = K ] ] ] ] ] ] ] _ ] [ ] [ } +.} [ ] ] ] [ #.",
"#.| ] ] ] ] ] ] ] +.+.X.} [ ] ] ] ] ] ] ] ] ] [ ] ] ] ] ] ] [ ] _ ] ] ] F O X X X O v { ] } } ] ] ] ] ] ` $.k.z.z.z.j.+.] ] ] #.",
"&.} ] ] [ ] ] +.&.z.z.z.z.h.+.] ] ] ] ] ] ] ] ] ] [ ] ] ] ] ] ] ] ] ] { D O o X X X 8 ) } k.k.@.] ] ] } &.c.c.z.z.z.c.l.} _ ] #.",
"c.k.+.] [ [ +.l.c.z.z.l.z.c.j.] ] ] ] [ ] ] ] ] ] ] ] ] ] ] ] ] ] ] ] ] S O X o X X * H } j.c.z.$.+.+.&.x.z.%.+.+.@.j.j.} ] [ #.",
"c.c.l.#.@.$.l.c.k.@.} } @.j.%.] ] ] ] ] ] ] ] ] ] ] ] ] ] ] ] ] ] [ ] | V o X X X X X 8 ( } j.c.c.z.x.c.z.#.] ] ] ] _ ] ] ] ] #.",
"&.k.c.x.x.c.c.k.} ] ] ] ] [ ] ] ] ] ] ] ] ] ] [ ] ] ] ] ] ] ] ] ] ] _ | V o o o X X X = L ] } %.k.z.l.&.@.] ] _ ] ] ] ] ] ] [ #.",
"#.+.%.k.k.j.$.} ] ] ] ] _ ] ] ] ] ] ] ] ] [ ] ] ] ] ] ] ] ] ] ] [ ] ] | m X X X X X o O q R _ ' } } ' [ ] ] ] ] ] ] ] ] ] ] ] #.",
"#.] [ } [ [ ] ] ] ] ] ] ] ] ] ] ] ] ] ] ] ] ] ] ] ] ] ] ] ] ] ] ] ] ( K 0 . o X o X X X O 0 R ] ] ] ] ] ] ] ] ] ] ] ] ] ] ] [ #.",
"#.] [ ] [ _ [ ] ] ] ] ] ] ] ] ] ] ] ] ] ] ] ] ] ] ] ] ] _ ] ` X. .^ C - o X X X X X X X X X 8 R _ ] ] ] ] ] ] ] ] ] ] ] [ ] [ #.",
"#.] ] ] [ [ ] ] ] | ] ] ] ] ] ] ] ] ] ] ] ] ] ] ] ] ] ] ` ^ q.w.5.6.z @ X X X X X o o X X X o 4 v F I ( _ ] ] ] _ ] ] ] ] ] } #.",
"#.[ ] ] [ ] ] ] ] ] ] ] ] ] ] ] ] ] ] ] ] ] ] ] ] ) K b N 4.7.7.6.6.g X . X X o X X X X X + + X O & = 5 e n J R ] ] ] ] ] ] ] #.",
"#.[ ] ] ] ] ] ] ] ] ] ] ] ] ] ] ] ] ] ] _ ] ] I b 6 = O > :.7.7.6.6.;.i > > @ X X X X X X .     . + @ @ + O & 1 w F ) ] ] ] ] #.",
"#.[ [ ] ] ] ] [ ] ] ] ] ] ] ] ] ] ] ] ] _ L x , + X X X X r :.6.6.7.7.3.2.1.;.h : X + X : p h *.:.3.8.8.<.i o X O & q K ) ] ] #.",
"#.| [ ] ] ] ] ] ] ] ] | ] ] ] ] ] ] ] E V , O X X X X X X X : f l -.;.;.:.:.<.:.t X X X t 8.C.D.G.G.G.H.G.b.> X X X X - n [ _ #.",
"#.[ ] ] ] ] ] ] ] ] ] ] ] ] ] ] ] ] I q + X X o X X o X X X X . X @ % % : % % % + X X X + t h ;.m.D.G.H.H.Z.i o o X o . 4 ) [ #.",
"#.[ ] ] | ] ] ] ] [ ] ] ] ] ] ] ] I 8 X X X X X X o X o o X X X X X X X X X X X X X X X X . X X 7 j 6.M.b.z % o o o o o - K | #.",
"#.[ ] ] ] ] ] ] ] ] ] ] ] ] ] ] K 4 o X o X X X X X o X X X X X X X X X X o X X X + X X X X X X .   @ : % o . X X . . . O S { #.",
"#.[ ] ] ] ] ] ] [ ] ] ] ] ] ] J 1 o X X X X o o o : : > r r r : % > t r % X X o X X X X X X X + r h k k k l j h h h h h =.~ ] #.",
"#.] ] ] _ ] ] ] ] ] ] ] ] ] K 1 X X o X X X X ; *.9.m.V.A.Z.Z.b.7.N.A.A.8.i X X X X X X X X % k B.F.G.G.G.G.G.G.G.G.G.F.Z.f.[ #.",
"#.| ] ] [ ] ] ] ] | ] ] ] U 5 . X X X X X o p 7.H.H.H.H.H.H.H.H.H.H.H.H.G.9.% X + X X X X + *.D.H.H.H.H.H.H.H.H.H.G.D.B.d.^ [ #.",
"#.] [ _ R G G F H L I R J q O X X o X o X t N.H.H.H.H.H.H.H.H.H.H.H.H.H.Z.3.> . X X X X X > 9.S.H.H.H.H.H.H.H.G.Z.N.s.y.O.[ [ #.",
"#.[ _ v 7 7 7 ; & = , , * O X o X X X X . p m.Z.Z.Z.B.N.7.*.3.D.G.G.Z.B.9.;.% . X o o X . p 6.N.F.H.H.G.S.C.B.n.p.0. .` ] ] ] $.",
"#.| L 3 > > > > @ X X X X o @ @ % % % : : ; r r r > > 7 t i -.b.b.9.8.6.7.l o X X X X X X p 6.7.N.B.M.s.a.r.0...' ] ] ] ] ] ] #.",
"$.| B > > > > > @ X X X : g -.-.-.;.:.1.3.2.-.j f g k -.:.6.5.w.e.e.,.*.z i o X X X o X . 2 >.e.e.0./ o.' ] ] ] ] ] ] ] ] ] [ #.",
"#._ s > > > > : O X o = Y v.s.a.5.5.5.5.i.5.5.i.i.p.u.y.t.0...` ' ` B > > > + X X X o X . 4 U ] ] ] ] ] ] ] ] ] ] [ ] ] ] ] [ #.",
"#.E u > > > : o X X 1 F ' X. . ......... . . . . .' ' _ ] ] ] ] [ P y r > : X X X X X X o Z ] ] ] ] ] ] ] ] ] ] ] ] ] ] ] ] [ #.",
"#._ A m 9 + O X X & S ] ] _ ] ] ] ] _ ] ] ] ] ] ] ] ] ] ] ] ] ] ) M > > : o X X o X X X 8 U ] _ ] ] ] ] ] ] ] ] ] ] [ ] ] ] [ #.",
"#.] ` I 4 X X o O c ) ] ] ] ] ] ] ] ] ] ] ] ] ] ] ] ] ] ] ] ] ] ( a > : o X X X X X X = H ] ] ] _ ] ] ] ] ] ] ] ] ] ] ] ] ] [ #.",
"#.[ { b o X X X 6 ( ] ] ] ] ] ] ] ] ] ] ] [ ] ] ] ] | ] ] ] ] ] ( d 2 % X o X X X X * Z _ ] ] ] ] ] ] ] ] ] ] ] [ ] ] ] ] | [ #.",
"#.] ] w X X X o n ] ] ] ] ] ] ] ] ] ] [ ] ] ] ] ] ] ] ] ] ] ] ] [ E B % X o X X X < S ] ] ] ] ] ] ] ] ] ] ] ] ] ] ] [ ] ] ] [ #.",
"#.] [ q X o X 5 R ] ] ] ] ] ] ] ] ] ] ] ] ] ] ] ] [ ] ] [ ] ] ] ] ] ) q O o . & q K ] ] ] ] ] ] | ] ] ] ] ] ] ] { ] ] ] ] ] [ #.",
"#.[ [ w X o # F ] _ ] ] ] ] ] ] [ ] ] ] ] ] [ ] ] ] ] [ ] ] ] ] ] ] ] ( D b n K ) ] _ ] ] ] ] ] ] ] ] ] ] | ] ] ] ] ] ] ] ] [ #.",
"#.] ( 4 X & v ( _ ] ] ] ] [ ] ] ] ] ] ] ] ] ] ] ] ] ] ] ] ] ] ] ] ] ] _ ] ] ] ] ] ] ] ] ] ] ] ] ] ] ] ] ] ] ] ] ] ] ] ] ] ] [ #.",
"#.] ) q < V _ ] ] ] ] ] ] ] ] ] ] ] ] ] | ] [ ] ] | ] ] ] ] ] | ] ] ] ] ] _ ] ] ] ] ] ] ] ] ] ] ] ] ] ] ] ] ] ] ] ] ] ] ] | [ #.",
"#.] ] ( U ] ] ] ] ] _ ] [ ] _ ] ] ] ] ] ] ] ] ] ] ] ] ] [ ] ] ] ] ] ] ] ] ] ] ] ] ] ] ] ] ] ] ] ] ] ] ] ] _ ] ] ] ] ] ] ] ] ] #.",
"#.] ] ] ] ] ] ] ] ] ] ] ] ] [ } } } ] ] ] ] ] ] ] ] [ ] ] ] ] [ ] ] ] ] ] ] ] ] ] ] ] ] ] ] ] ] ] ] ] ] ] ] ] ] ] ] ] } } } } $.",
"#.] ] ] ] } [ ] ] ] ] ] ` %.j.z.z.z.h.X.] ] ] ] ] ] ] ] ] ] ] ] ] ] ] ] ] } ] ] ] ] ] ] ] ] ] ] ] ] } } _ ] ] ] ] } $.k.z.z.l.z.",
"#.[ ] ] +.k.j.@.] ] ] } j.c.c.z.z.z.c.k.} ] ] ] ] ] ] ] ] [ ] ] | ] ] ] ] ] ] ] ] ] ] ] [ [ ] [ ] } k.k.@.] ] ] ' j.c.c.z.z.z.c.",
"#.[ ] ] +.k.c.k.@.X.@.j.c.z.$.+.} @.j.j.[ ] ] ] ] ] ] [ ] ] ] ] ] ] ] ] ] ] ] ] [ ] ] ] ] ] ] ] ] +.k.c.l.@.} @.&.c.z.$.+.+.#.k.",
"#.] ] ] ] X.j.c.c.z.c.c.z.@.] ] ] ] [ [ ] ] ] ] ] ] ] ] ] ] ] | ] ] ] ] ] ] ] ] [ ] ] ] ] | ] ] _ ] +.j.c.c.z.x.c.z.#.] ] ] _ #.",
"#.[ ] ] ] ] } &.k.z.k.&.+.[ ] ] | ] ] ] ] ] ] ] [ ] ] ] ] ] ] ] ] ] ] ] ] ] | ] ] ] ] ] ] ] ] ] ] ] ] } %.l.l.l.&.+.[ ] ] ] ] #.",
"#.[ ] ] ] ] ] ] } } ' [ ] _ ] ] ] ] ] ] ] ] ] ] ] ] ] ] ] ] ] ] ] ] ] ] ] ] ] ] ] | ] ] ] ] [ ] ] ] ] ] ] } } ' [ ] ] ] ] ] ] #.",
"#.[ ] ] ] ] ] ] ] ] ] ] ] ] ] ] ] ] ] ] ] ] ] [ ] [ ] | ] ] [ ] ] ] | ] ] ] ] ] ] ] ] ] ] ] ] ] ] ] ] ] ] ] ] ] ] [ ] ] ] ] ] #.",
"#.[ ] ] ] ] ] ] ] ] ] ] ] ] ] ] ] ] [ ] ] ] ] ] ] ] ] ] ] ] ] ] ] ] ] ] _ ] ] ] ] ] ] ] [ ] ] ] ] ] ] ] ] ] ] ] ] ] [ ] ] ] ] #.",
"#.[ ] | ] [ ] ] ] ] ] ] ] ] ] | | ] ] [ ] ] | ] ] ] ] _ ] _ ] ] ] ] ] ] ] } } +.+.[ ] ] _ ] ] ] ] ] ] ] ] ] ] ] ] ] ] ] ] [ [ #.",
"#.[ ] ] ] ] ] ] ] ] ] ] [ ] ] ] ] ] ] ] ] ] ] ] ] ] ] ] } [ ] ] [ ] _ [ $.j.z.z.z.j.@.[ ] ] ] ] ] [ ] ] ] ] ] [ ] ] ] [ ] ] [ #.",
"#.[ ] ] ] ] ] ] ] ] ] ] [ ] ] ] ] ] ] ] ] [ ] ] ] ] ] } j.l.#.` ] ] } %.z.c.z.z.z.c.z.+.] ] ] ] ] ] ] ] [ ] ] ] ] ] ] ] ] ] [ #.",
"#.[ ] [ ] ] | ] ] ] ] [ ] ] ] ] ] ] [ ] ] ] ] ] ] ] ] } &.c.z.$.+.+.&.c.z.&.+.} @.&.j.' ] ] ] ] | ] { ] ] ] ] ] [ ] ] ] ] ] [ #.",
"#.[ ] ] ] ] ] ] ] [ ] ] ] ] ] [ ] ] [ ] ] ] ] ] ] ] ] ] [ &.c.c.z.x.c.c.%.] ] _ ] ] [ ] ] ] ] ] ] ] ] [ ] ] ] ] | ] ] ] ] ] [ #.",
"#.| ] ] ] ] [ ] ] ] ] ] ] ] ] ] ] ] ] ] ] ] ] ] ] ] ] ] ] ` %.j.z.l.j.@.} ] ] ] ] ] ] ] ] [ ] ] ] ] ] ] ] [ ] | ] ] ] [ ] ] | #.",
"#.[ ] ] ] ] ] ] ] | [ ] ] ] ] | | ] ] ] ] ] ] ] ] ] ] ] ] ] ] } } } [ ] ] ] ] ] ] ] ] ] ] ] ] | ] ] ] ] ] ] ] [ ] ] ] ] ] [ [ #.",
"#.[ ] [ [ ] ] ] ] ] ] ] ] ] ] ] ] ] ] ] [ ] ] ] ] ] ] ] ] ] ] ] _ ] ] _ ] ] ] ] ] ] ] ] ] ] ] ] ] [ ] ] ] ] ] ] ] ] ] ] ] ] [ #."
};
