/* XPM */
static char *result[] = {
/* columns rows colors chars-per-pixel */
"64 64 135 2 ",
"   c #161616",
".  c #1D1D1D",
"X  c #21211F",
"o  c #1E1F20",
"O  c #1F2023",
"+  c #222323",
"@  c #272828",
"#  c #2B2B2B",
"$  c #302F2F",
"%  c #32312F",
"&  c #222730",
"*  c #252A35",
"=  c #2A2E35",
"-  c #252C3A",
";  c #282F3B",
":  c #2A313E",
">  c #343433",
",  c #383737",
"<  c #36393F",
"1  c #3D3D3D",
"2  c #262F40",
"3  c #273042",
"4  c #2A3344",
"5  c #2B364B",
"6  c #3F3F40",
"7  c #2C3A54",
"8  c #3E4045",
"9  c #3D414A",
"0  c #384356",
"q  c #3E4758",
"w  c #2F4060",
"e  c #304264",
"r  c #3F4A60",
"t  c #32476C",
"y  c #354B74",
"u  c #3D4F71",
"i  c #374D79",
"p  c #3F547A",
"a  c #444444",
"s  c #4C4B4B",
"d  c #444D5F",
"f  c #545353",
"g  c #5A5A5A",
"h  c #605F5F",
"j  c #4D5666",
"k  c #48546B",
"l  c #465676",
"z  c #465A7F",
"x  c #646363",
"c  c #6C6B6B",
"v  c #747373",
"b  c #797876",
"n  c #7C7B7B",
"m  c #395383",
"M  c #3B568B",
"N  c #3E5A8F",
"B  c #3D5B93",
"V  c #3F609D",
"C  c #5E739C",
"Z  c #677289",
"A  c #637391",
"S  c #697791",
"D  c #697A98",
"F  c #4163A4",
"G  c #4969A4",
"H  c #4367AB",
"J  c #4368AD",
"K  c #456BB3",
"L  c #4A6FB5",
"P  c #476FB9",
"I  c #4871BD",
"U  c #5276BA",
"Y  c #627DAD",
"T  c #4A75C4",
"R  c #4C77CA",
"E  c #4D79CD",
"W  c #4E7CD4",
"Q  c #4F80DA",
"!  c #5181DD",
"~  c #7795CF",
"^  c #648EDE",
"/  c #6C93DC",
"(  c #5385E4",
")  c #5588E7",
"_  c #5487E8",
"`  c #5589ED",
"'  c #578DF3",
"]  c #598EF3",
"[  c #5D91F2",
"{  c #749CEA",
"}  c #6395F2",
"|  c #6E9CF3",
" . c #729EF1",
".. c #7CA3EB",
"X. c #76A1F1",
"o. c #7BA4F1",
"O. c #838282",
"+. c #8B8A8A",
"@. c #8F9091",
"#. c #939292",
"$. c #9D9B9B",
"%. c #A09E9E",
"&. c #A4A2A2",
"*. c #A8A6A6",
"=. c #ABA9A9",
"-. c #B0AEAE",
";. c #A5ADBC",
":. c #B5B3B3",
">. c #B9B7B7",
",. c #BCBABA",
"<. c #8DA8DB",
"1. c #BEBFC0",
"2. c #8AAAE4",
"3. c #9CB7EA",
"4. c #9EBBEF",
"5. c #84AAF1",
"6. c #8AADF1",
"7. c #8EB0F0",
"8. c #93B4F0",
"9. c #99B7F0",
"0. c #9CB9F0",
"q. c #A6BAE0",
"w. c #A1BDF1",
"e. c #ABC6F9",
"r. c #B1C8F5",
"t. c #B8CFFA",
"y. c #C3C4C6",
"u. c #DBDCDE",
"i. c #CAD6ED",
"p. c #C1D5F9",
"a. c #D2DEF4",
"s. c #DBE1EE",
"d. c #D4E0F6",
"f. c #E0E3E7",
"g. c #E0E8F7",
/* pixels */
"e.e.e.e.e.e.e.e.e.e.e.e.e.e.e.e.e.e.e.e.e.e.e.e.e.e.e.e.e.e.e.e.e.e.e.e.e.e.e.e.e.e.e.e.e.e.e.e.e.e.e.e.e.e.e.e.e.e.e.e.e.e.e.t.",
"' ' ' ' ' ' ] ' ] ' ' ' ] ' ] ' ' ' ' ' ' ' ' ' ' ' ' ' ' ' ' ' ' ' ' ' ' ' ' ' ' ' ' ' ' ' [ ' ' ' ' ' ' ' ] ' ' ' ' ' ' ' ] | ",
"' ' ' ' ] ' ' ' ' ] ' ' ' ' ' ' ' ' ' ' ' ' ' ' ' ' ' ' ' ' ' ' ' ' ' ' ' ' ' ' ' ' ' ' ' ' ' ' ' ' ' ' ' ' ] ' ' ' ] ' ' ' ] | ",
"' ' ' ' ' ' ] ' ' ' ' ] ] ' ' ' ' ' ' ' ' ' ' [ ' ' ' ' ' ' ' ' ' ' ' ' ' ' ' ' ' ' ' ' ' ' ' ' ' ' ' ' ' ' ' ' ' ' ' ' ' ] ] | ",
"' ' ' ' ' ' ' ] ' ' ' ' ' ' ' ' ' ' ' ' ' ' ' ' ' ' ' ' ' ' ' ' ' ' ' ' ' ' ' ' ' ' ' ' ' ' ' ' ' ' ' ' ' ' ' ' ' ' ' ] ' ' ' | ",
"' ' ' ' ' ' ' ] ' ' ' ' ' ' ' ] ' ' ' ' ' ' ' ' ' ' ' ` P B P ' ' ' ' ' ' ' ' ' } X.X.X.X.} ` ' ' ' ' ' ' ' ' ' ' ' ' ' ' ' ] | ",
"' ' ' ' ' ' ' ' ' ' ' ' ' ' ' ' ' ' ' ' ' ' ' ' ' ' ` F - o - m / | ] ` ' ' ' | 8.0.3.e.3.7.| ' ' ' ' ' ' ] ] ' ] ' ' ' ] ] ' | ",
"' ' ' [ ' ' ' ' ' ' ' ' ' ' ' ' ' ' ' ' ' ' ' ' ' ' H - . . . o j <.o.[ ' ` | 8.0.5.X.o.5.9.o.` ' ' ' ' ] ] ' ] ' ' ] ' ' ] ] | ",
"' ' ' ' ' ' ' ' ' ' ' ] ' ' ' ' ' ' ' ' ' ' ' ' ] U ; . . . . . O S 3.5.o.5.9.9.o.' ' ' [ | } ' ' ' ' ' ' ' ' ' ' ' ' ' ] ' ] | ",
"' ' ' ] ' ' ' ' ' ' ' ' ' ] ' ] ' ' ' ' ' ' ' ' 5.;.% . . . . +   O.i.e.0.3.9.o.[ ' ' ' ' ' ' ' ' ' ' ' ' ' ' ' ' ' ' ' ' ' ] | ",
"] ' ' ' ] ' ' ' ] ] ' ] ] ' ' ' ' ' ' ' ' ' ' | a.-.@ . . O . .   h u.r. . .} ' ' ' ' ' ' ' ' ' ' ' ' ' ' ' ' ' ] ' ' ' ' ' ] | ",
"' ' ' ' ' ' ' ' ' ' ' ' ' ' ' ' ' ' ' ' ' ' ' r.f.g   . . . . . . @ :.d.| ' ' ` ' ' ' ' ' ' ' ' ' ' ' ' ' ' ' ' ' ' ' ' ' ] ] | ",
"' ' ' ' ' ' ' ' ' ' ' ' ' ' ' ' ' ' ' ' ] ] 6.s.@.+ . . O . . X O   g u.t.[ ' ' ` ' ' ` ' ' ' ' ' ' ' ' ' ' ' ' ' ' ' ' ' ' ] | ",
"' ' ' ' ' ' ' ' ' ' ' ] ' ' ' ' ' ' ' ' ] [ p.y.1 . . . . . . . . O O +.g.o.' ' ' ' ' ' ' ' ' ' ' ' ' ' ' [ | o.o.X.[ ] ' ' ] | ",
"' [ ' ' ' ' ] ] ] | X.o.o.X.[ ' ' ' ' ' '  .s.v + . . . . X . . . . . 1 y.0.' ' ' ' ' ' '  . .[ ' ' ' ' | 7.w.w.w.0.8.| ' ' ' | ",
"[ o.| ] ' ] ' [ o.8.0.0.w.w.7.| ' ' ' ' ` ~ 1.1 . . . X . . . + . . X X +.q.) ' ' ' ' ' [ 7.3.o.[ ' ' | 8.0.5.o.o.o.w.o.' ] ] | ",
"| 0.9.X.[ ' [ o.9.8.o.| | 6.9.X.' ' ' ` _ C b O . . X . . . . . . . . O s Z Q ' ' ' ` ' ' | 9.0.6.o.6.9.0.o.[ ' ' ' | } ' ` ' | ",
"[ X.9.0.7.5.7.0.8.| ' ' ' [ } [ ' ' ' ' Q 5 + O . . . . . X . . . . . . X - I ' ' ' ' ' ' ' | 8.0.0.9.9.o.[ ' ' ' ' ' ' ' ' ' | ",
"' ' X.7.9.0.0.7.| ' ' ' ' ' ' ' ' ' ' ' E * . . . . . . O . . . . . X . . O J ` ' ' ' ' ' ' ' [  . . .} ' ' ' ' ' ' ' ' ' ' '  .",
"' ' ' [  . .} [ ' ' ' ' ' ' ' ' ` ' ' ' T O . . . . . . . . X . X . . . . O V ` ' ` ' ' ' ' ' ' ` ' ' ' ' ' ' ' ' ' ' ' ' ' ' | ",
"' ' ' ' ' ' ' ' ' ' ' ' ' ' ' ' ' ' ` ' F O . . . .   . . . . . . . . . . O V ) ' ` ' ' ' ' ' ' ' ' ' ' ' ' ' [ ' ' ' ' ' ' ' | ",
"' ' ' ' ' ' ' ` ' ' ' ' ' ' ' ' ' ' ' E 5 X . . O a s @ . . . X s x % . . . w Q ' ' ' ' ' ' ' ' ' ' ' ' ' ' ' ' ' ' ' [ ' ' ' | ",
"' ' ' ' ' ' ' ' ' ' ' ' ' ' ' ' ' ' ` y # @ .   a $.$.#   . . s &.>.c O . . X y ( ' ' ` ' ' ' ' ' ' ' ' ' ' ' ' ' ' ' ' ' ' [ | ",
"' ' ] ' ' ' ' ' ' ' ' ' ' ' ' ' ' ' F = , @ X   g :.=.s   . # +.>.,.O.O . X % * V ' ' ' ' ' ' ' ' ' ' ' ' ' ' ' ' ' ' ' ' ' ' | ",
"' ' ' ' ' ' ' ] ] ' ' ' ' ' ' ' ' W 4 = 1 @ .   h :.>.+.  . f >.:.,.O.@ . X 1 > 4 T ' ' ' ' ' ' ' ' ' ' ' [ ' ' ' ' ' ' ] ' ' | ",
"' ' ' ' ' ' ' ' ] ] ' ' ' ' ' ' ` M # , 1 # .   a =.>.$.X . v ,.:.,.x X . O , 1 $ t ` ' ' ' ' ' [ ' ' ' ' ' ' ' ' ' ] ' ' ' ' | ",
"' ' ' ' ' ' ' ' ' ' ] ' ' ' ' ' Q w > 6 6 % . . # +.,.*.> . +.,.>.&.a X X @ 1 6 , ; T ' ' ' ' ' ' ' ' ' ' ' ' ' ' ' ' ' ' ' ' | ",
"' ' ' ' ' ' ' ' ' ' ' ' ' ' ' ' Q 5 , 6 6 , O . . f -.>.s . #.,.:.c O X . % 1 6 1 ; J ' ' ' ' ' ' ' ' ' ' ' ' ' ' ] ] ' ' ' [ | ",
"' ] ' ' ] ' ' ' ] ' ' ] ' ' ' ' T : 1 1 1 1 O . . @ O.,.v a %.>.$., . . . > 6 1 1 = J ' ' ' ' ' ' ' ' ' ' ' ' ' ' ' ' ' ' ' ' | ",
"' ' ' ' ' ' ' ' ' ' ' ' ' ' ' ' E : , 6 6 > O . . X s =.-.=.:.:.c . . . O 1 6 6 1 = J ' ' ' ' ' ' ' ' ' ' ' ' ' ' ' ' ' ' ' [ | ",
"' ' ' ' ' ' ' ' ' ' ] ' ' ' ' ' ( t # , > # w & . . @ n >.,.>.#., . . X # # , , @ ; Q ' ' ' ' ' ' [ ' ' ' ' ' ' ' ' ] ' ' ' ' | ",
"' ' ] ' ' ' ' ' ' ' ' ' ' ' ' ' ' Q i : : y Q t . . . % x v h , . . . 0 Y d ; = w J _ ' ' ' ' ' ' ' ' ' ' ' ' ' ' ' ' ' ' ] [ | ",
"' ' ' ' ' ' ' ' ' ' ' ' ' ' ' ' ' ' ` Q Q _ ' J O . . . O O . . . . O V [ ^ T T _ ' ' ' ' ' ' ' ' ' ' ' ' ' ' ' ' ' ' ' ' ' ' | ",
"' ' [ ' ' ' ' ' ' ' ' ' ' ' ' ' ' ` ' ` ' ` ' ` y . . . . . . . . . w ! ' ' ' ' ' ' ' ' ' ' ' ' ' ' ' ' ' ' ' ' ' ' ' [ ' ' [ | ",
"' ' ' ' ' ' ' ' ' ' ' ' ' ' ' [ ' ' ' ' ' ' ' ' Q ; . . . . . O . O P ' ' ' ' ' ' ' ' ' ' ' ' ' ' ' ' ' ' ' ' [ ' ' ' ' ' ' ' | ",
"' ' ' ' ' ' ' ' ' ' ' ' ' ' ' ' ' ' ' ' ' ' ` ' ` B . . . . . . . y _ ' ' ' ' ' ' ' ' ' ' ' ' ' ' ' ' ' ' ' ' ' ' ' ' ' ' ' ' | ",
"' ' ' ' ' [ ' ' [ ' ' ' ' ' ' ' ' ' ' ' ' ' ' ' ' Q 5 . . . . . & P ' ' ' ' ' ' ' ' ' ' ] ' ' ' ' ' ' ' ' ' ' ' ' ' ' ' ' ' [ | ",
"' ' ' ' ' ' ' ' ' ' ' ' ' ' ' ' ' ' ' ' ' ' ' ' ' _ m . . . . . w ( ' ' ' ' ' ' ' ' ' ' ' ' ' ' ' ' ' ' ' ' ' ' ' ' ' ' ' ' ' | ",
"' ' ' ' ' ' ' ' ' ' ' ' ' ' ' ' ' ' ' ' ' ' ' ' ' ' P & . . . O M ' ' ' ' ' ' ' ' ' ' ' ' ' ] ' ' ' ' ' ' ' ' ' ' ' ' ' ' ' ' | ",
"' ' ' ' ' ' ' ' ' ' ' ' ' ' ' ' ' ' ' ' ' ' ' ' ` ' ( e . . . 2 R ' ' ' ' ' ' ' ' ' ' ' ' ' ' ' ' ' ' ' ' ' ' ' ' ' ' ' ' ' ' X.",
"' ' ' ' ' ' ' ' ' ' ' ' ' ' ' ' ' ' ' ' ' ' ' ' ' ' ' V O   . t ` ' ' ' ' ' ' ' ' ' ' ' ] ' ' ' ' ' ' ' [ ' ' ' ' ' ' ' ' ' ' | ",
"' [ ' ' ' ' ' ' ' ' ' ' ' ' ' ' ' ' ' ' ' ' ' ' ' ' ' J O O O m ' ' ' ' ' ' ' ' ' ' ' ' ' ' ' ' ' ' ' ' ' ' ' ' ' ' ' ' ' ' ' X.",
"' ' ' ' ' ' [ ' ' ' ' ' ' ' ' ' ' ' ' ' ' ' ' ' ' ' ' K & . O M ' ' ' ' ' ' ' ' ' ' ' ' ' ' ] ' [ ' ' ' ' ' ' ' ' ' ' ' ' ' ' | ",
"' ' ' ' ' ' ' ' ' ' ' ' ' ' ' ' ' ' ' ' ' ' ' ' ' ` ' I & O O B ' ' ' ' ' ' ' ' ' ' ' ' ' ' ' ' ' ' ' ' ' ' ' ' [ ' ' ' ' ' ' | ",
"' ' ' ' ' ' ' ' ' ' ' ' ' ' ' ' ' ' ' ' ' ' ' ' ' ' ' P O . . V ' ' ' ' ' ' ' ' ' ' ' ' ' ' ' ' ' ' ' ' ' ' ' ' ' ' ' ' [ ' ' | ",
"' ' ' ' ' ' ' ' ' ' ' ' ' ' ' ' ' ' ' ' ' ' ' ' ` ' ` M O . . m ' ' ' ' ' ' ' ' ' ' ' ' ' ] ' ' ' ' ' ' ' ' ' ' ' ' ' ' ' ' ' | ",
"' ' ' ' ' ' ' ' ' ' ' ' ' ' ' ' ' ' ' ' ' ' ' ' ' ` R 3 O O . ; T ' ' ` ' ' ' ' ' ' ' ' ' ' ' ' ' ' ' ' ' ' ' ' ' ' ' ' ' [ ' | ",
"' ' ' ' ' ' ' [ ' ' ' ' ' ' ' ' ' ' ' ' ' ' ' ' ' _ y . . . X . e ( ' ' ' ' ' ' ' ' ' ' ' ' ' ] ' ' ' ' ' ' ' ' ' ' ' ' ' ' ' | ",
"' ' ' ' ' ' ' ' ' ' ' ' ' ' }  .X.X.| } ' ' ' ' ' Q *   X X X . O F ` ' ' ' ' ' ' ' ' ' ' ' ' ' ' ' ' ' ' ' ' ' ' ' }  .X.X. .X.",
"[ ' ' ' ' [ X.| ' ' ' ' ' X.8.4.w.0.4.6.} ` ' ' _ m . . % , @ X . 7 Q ` ' ' ' ' ' ' ' ' ' ' ' ' ' [ X.| ' ' ' ` ] X.8.4.4.4.0.0.",
"' ' ' ' ' } 9.9.X.[ ' [ X.0.9.o.X...6.0.o.' ' ' H O . O 1 1 1 X . . V _ ' ' ' ' ' ' ' ' ' ' ' ' ' | 9.9.X.' ' ] X.0.0...X.X.6.0.",
"' ' ' ' ' [ X.0.0.o.o.6.9.0.X.[ ' ' [ | } ` ' P : . O > 6 1 6 % . . * J ' ' ' ' ' ' ' ' ' ' ' ' ' ] X.9.0.5.o.6.0.0. .' [ [ [ o.",
"' ' ' ' ' ' [ | 8.0.0.0.7. .' ' ' ' ` ' ' ' ! w . . O , a 1 6 1 # . . w Q ' ' ' ' ' ' ' ' ' ' ' ' ' '  .8.0.0.0.8. .' ' ' ' ' | ",
"' ' ' ' ' ' ' ' } X.X. .} ' ' ' ' ' ' ' ' ) M O . @ % 1 1 1 1 6 < @ . . i ' ' ' ' ' ' ' ' ' ' ' ' ' ' ' }  .X.| [ ' ' ' ' ' ' | ",
"' ' ' ' ' ' ' ' ' ' ' ` ' ' ' ' ' ' ' ' ` V O O % 1 1 1 a 1 1 1 6 > @ X - I ' ' ' ' ' ' ' ' ' ' ' ' ' ' ' ' ' ' ' ' ' ' ' ' ' | ",
"' ' ' ' ' ' ' ' ' ' ' ' ' ' ' ' ' ' ` ` Q 4 @ , 8 6 8 1 1 1 1 1 6 6 1 , = i ' ' ' ' ' ' ' ' ' ' ' ' ' ' ' ' ' ' ' ' ' ' ' ' [ | ",
"' ' ' ' [ ' ' ' ' ' ' ' ' ' ' ' ' ' ' ` N % 6 6 1 1 6 9 r l k q 8 1 6 6 1 9 Q ) ' ' ' ' ' ' ' ' ' ' ' ' ' ' ' ' ' ' ' ' ' ' [ | ",
"' ' ' ' ' ' ' ' ' ' ' ' ' ' ' ' ' ' ` ' N > < < 0 u G Q ( ) ) Q L p r 9 6 > z { X.| [ ' ' ' ' ' ' ' ' ' ' ' ' ' ' ' ' ' ' ' [ | ",
"' ' ' ' ' ' ' ' ' ' ' ' ' ' ' ' ' ' ' ' Q p N H Q ) ' ' } ..} ' ' ` ! U A j D 3.w.0.o.[ ' ' ' ' ' ' ' ' ' ' ' [ ' ' ' ' ' ' ' | ",
"' ' ' ' ' ' ' ' ' ' ' ' [ ' ' ' ' ' ' ' ` ' ' [ ' ' ' ' o.0.7.} ' ' [ o.0.2.....o.8.0.} ' ' ' ' [ ' ' ' ' ' ' ' ' ' ' ' ' ' [ | ",
"' ' ' [ ' ' ' ' ' ' ' ' ' ' ' ' ' ' ' ' ' ` ' ' ' ' ' ' } o.w.0.o.o.7.0.8.| ' ' [ } | ' ' ' ' ' ' ' ' ' ' ' ' ' ' ' ' ' ' ' ' | ",
"' ' ' ' ' ' ' ' ' ' ' ' ' ' ' ' ' ' ' ' ' ' ' ' ' ' ' ' ` ] o.4.w.0.9.7.} ' ' ' ' ' ' ' ' ' ' ' ' ' ' ' ' ' ' ' [ ' ' ' ' ' ' | ",
"' ' ' ' ' ' ' ' ' ' ' ' ' ' ' ' ' ' ' ' ' ' ' ' ' ' ' ' ' ' ' | o.X.| ] ' ` ' ' ' ' ' ' ' ' ' ' ' ' ' ' ' ' ' ' ' ' ' ' ' ' ' | ",
"' ' ' ' ' ' ' ' ' [ ' ' ' [ ' ' ' ' ' ' ' ' ' ' ' ' ' ' ' ' ' ' ` ' ` ' ' ' ' ' ' ' ' ' ' ' ' ' ' ' ' ' ' ' ' ' ' ' ' ] ' ' ' | "
};
