/* XPM */
static char *result[] = {
/* columns rows colors chars-per-pixel */
"64 64 207 2 ",
"   c #3D3E18",
".  c #3E3E3E",
"X  c #5D2506",
"o  c #5E2708",
"O  c #572F0F",
"+  c #5D2B0C",
"@  c #55300F",
"#  c #5B2D12",
"$  c #582F18",
"%  c #4C3612",
"&  c #433B16",
"*  c #573211",
"=  c #54311D",
"-  c #622708",
";  c #612A0B",
":  c #6A2F0D",
">  c #62300E",
",  c #6D310E",
"<  c #72330F",
"1  c #7A340D",
"2  c #632E12",
"3  c #683413",
"4  c #6A3413",
"5  c #6E3B19",
"6  c #753510",
"7  c #793711",
"8  c #7C3913",
"9  c #713D1B",
"0  c #4C362A",
"q  c #543625",
"w  c #443B35",
"e  c #483931",
"r  c #413D3B",
"t  c #693A24",
"y  c #2C481F",
"u  c #33441C",
"i  c #3A411A",
"p  c #045A27",
"a  c #065E2E",
"s  c #0A5C2C",
"d  c #1C5125",
"f  c #135629",
"g  c #145629",
"h  c #10592C",
"j  c #234D22",
"k  c #2A4920",
"l  c #2D5027",
"z  c #07602F",
"x  c #0A612F",
"c  c #066230",
"v  c #086432",
"b  c #0A6B35",
"n  c #0B6F38",
"m  c #15633B",
"M  c #0C743A",
"N  c #0D7A3E",
"B  c #137B3F",
"V  c #74411D",
"C  c #7F4A1F",
"Z  c #7A4A25",
"A  c #674538",
"S  c #3D3F40",
"D  c #3E4041",
"F  c #1C6B48",
"G  c #0E7E40",
"H  c #277154",
"J  c #377C6A",
"K  c #434343",
"L  c #474748",
"P  c #4C4B4B",
"I  c #555454",
"U  c #5C5B5B",
"Y  c #6A5753",
"T  c #676666",
"R  c #786768",
"E  c #797878",
"W  c #843D14",
"Q  c #893F15",
"!  c #8B4116",
"~  c #8B4319",
"^  c #954619",
"/  c #964618",
"(  c #97481A",
")  c #98481A",
"_  c #87521B",
"`  c #8A4C23",
"'  c #815027",
"]  c #82532C",
"[  c #945B2E",
"{  c #895C33",
"}  c #8D6138",
"|  c #93673D",
" . c #AE7924",
".. c #976E41",
"X. c #9C7345",
"o. c #9B744A",
"O. c #A47B4C",
"+. c #A57F50",
"@. c #817A7C",
"#. c #0F8343",
"$. c #108645",
"%. c #108946",
"&. c #118D49",
"*. c #13944D",
"=. c #14984F",
"-. c #159C51",
";. c #428377",
":. c #B4812B",
">. c #DAAB3B",
",. c #F7C335",
"<. c #AB8555",
"1. c #B48D54",
"2. c #B18C5B",
"3. c #91837A",
"4. c #B99864",
"5. c #DFB552",
"6. c #E5BA4E",
"7. c #C09F6A",
"8. c #C2A36D",
"9. c #CAA96A",
"0. c #DABD66",
"q. c #C7A972",
"w. c #CAAC74",
"e. c #CEB077",
"r. c #CEB179",
"t. c #D4B87C",
"y. c #D4B97F",
"u. c #F4C648",
"i. c #EDC75E",
"p. c #F1C753",
"a. c #F2C95A",
"s. c #EDC967",
"d. c #F0CB65",
"f. c #E3C577",
"g. c #EACB75",
"h. c #E9CB7B",
"j. c #857985",
"k. c #568E8F",
"l. c #688B91",
"z. c #6C9DAB",
"x. c #79A5BB",
"c. c #789BDB",
"v. c #7A9DDA",
"b. c #7FA0D6",
"n. c #5C8FEF",
"m. c #5E90ED",
"M. c #578DF3",
"N. c #598DF1",
"B. c #5A90F4",
"V. c #6794E7",
"C. c #6A96E5",
"Z. c #6C98E7",
"A. c #6392EA",
"S. c #7199E0",
"D. c #898688",
"F. c #878494",
"G. c #969596",
"H. c #A19F9F",
"J. c #B4B29B",
"K. c #9092AC",
"L. c #9CA9B6",
"P. c #A5A4A4",
"I. c #ACAAAA",
"U. c #B0AFAF",
"Y. c #BCBBAC",
"T. c #A1AFBE",
"R. c #ABB4B7",
"E. c #A5B0BC",
"W. c #B5B4B3",
"Q. c #B8B6B6",
"!. c #B6B8B0",
"~. c #BBB9B9",
"^. c #D5BB82",
"/. c #D8BE83",
"(. c #CCBD92",
"). c #C4BFA6",
"_. c #C0BDA9",
"`. c #DBC286",
"'. c #DEC68A",
"]. c #CEC39E",
"[. c #DDCA95",
"{. c #D3C69B",
"}. c #D8C899",
"|. c #E7CB83",
" X c #E8CD83",
".X c #E7CE8B",
"XX c #E5CD8E",
"oX c #E7D08F",
"OX c #EAD18D",
"+X c #E4CE90",
"@X c #E8D293",
"#X c #C6C0A4",
"$X c #CAC2A2",
"%X c #8CA5CD",
"&X c #85ADCB",
"*X c #95A9C7",
"=X c #9BACC2",
"-X c #95A7CA",
";X c #84A1D3",
":X c #89A5D1",
">X c #8BB0D2",
",X c #97B4DB",
"<X c #9DBCE7",
"1X c #A3BAE9",
"2X c #A5BEF0",
"3X c #A6C1F3",
"4X c #A9C4F8",
/* pixels */
"M.M.M.M.M.M.M.M.M.M.M.M.M.M.M.M.M.M.M.M.M.M.M.M.M.M.M.M.M.M.M.M.M.M.M.M.M.M.M.M.M.M.M.M.M.M.M.M.M.M.M.M.M.M.M.M.M.M.M.M.M.N.M.M.",
"M.M.M.M.M.M.M.M.M.M.M.M.M.N.M.N.M.M.M.N.M.M.N.M.M.M.N.N.A.V.A.A.M.M.M.M.M.M.M.M.M.M.M.M.M.M.M.M.M.M.M.M.M.M.M.M.M.M.M.M.M.M.M.M.",
"M.M.M.M.M.M.M.n.A.V.m.M.M.M.M.M.M.M.M.m.V.;X*X%X;X;X%XR.Y.#X#XY.T.c.M.M.M.M.M.M.M.M.M.M.M.M.M.M.n.V.V.C.V.A.M.M.M.M.M.M.M.M.M.N.",
"M.M.M.M.M.A.-X!.#X#XY.=XA.M.m.n.n.V.-XR.#X[.[.[.[.[.[.XXoX Xg.XX+X$X:XM.M.n.M.M.M.M.M.A.C.;X*XE.W.Y.$X$X#XY.R.b.M.M.M.M.M.M.M.M.",
"M.M.M.M.v._.+X+X+X+X+X+X#X!.!.Y.Y.$X[.oXXXXXXX.XXXXXXX+X.Xu.,.p.|.+X{.;XM.M.M.M.A.;XE.Y.{.[.[.XXXXXXXXXXXX+X+X}.E.V.M.M.N.M.M.M.",
"M.M.M.v.$X+XXX+X+X+X+X+XXX'.`.w.4.2.2.4.8.r.y.`.'.XXoXoX.Xs.u.u. X+X+X{.R.=X*XT._.}.+X+X+X+XoXXX+X+X+X+X+X+X+X+X+XR.A.M.M.M.M.B.",
"M.M.A.Y.+X+XXXXX+XXX+X+X`.2.{ 5 : ; : , 4 9 Z { | <.8.w.r.t.t.f.XXXXoXoXOXOXoXOXoX+X+XoXoX+XXX'.'.XX+XXXXX+X+X+X+X+X%XM.N.M.M.M.",
"M.M.v.}.+X+XoX X.X+X/.2.{ 3 + + 7 ! ! 8 ; + o o + ; 4 9 Z Z ] } ..O.2.4.4.r.^././.`.^.w.4.O...| X.<.q.XX+X+X+XoX+XoX!.m.M.M.M.M.",
"M.M.-X[.+X+Xg.u.d.q.] 4 7 8 ! ! / ( ) ^ , + ; ; ; ; - + o - + ; ; ; 3 4 4 9 Z ] ] ] Z 9 , ; 1 ! ~ Q ` +.`.+X+X+X+XXX].V.M.M.M.M.",
"M.M.*X[.XX+Xd.,.5.] ; < ^ ( ^ ^ ) ( ( ^ : + ; ; + % u j k & ; ; + ; ; + - ; ; ; ; + ; ; ; : ~ ( ^ ) ) ~ X.`.XX+X+XXX{.C.M.M.M.M.",
"M.M.%X[.XXXXh.i.1., ; 8 ) ( ( ( / / / 1 ; O & i k h a a a g % + ; ; - ; ; ; ; ; ; + ; ; ; , ^ ^ ) ) ) ^ 8 4.+XXXXXoX{.V.M.M.M.M.",
"M.M.c.{.+XoX+XoXX.- ; , ~ ^ ^ ^ ^ ! < O & j a a z a a a a s g u O + O + ; ; O %   & % @ O ; W ^ ^ ^ ) ) 7 <.XXXXXX.X$XV.M.M.M.M.",
"M.M.m.W.+X+X+X@XX.; ; ; < 1 7 < < ; i j h a a a b b a a a a a s j j j u i u j s a h h f k % - , 8 ) ) ) Q 1.XXXXs.u.J.n.M.M.M.M.",
"M.M.M.c.{.+XXX@X<.; ; + ; + + + +   h a a a z #.#.b a a v N v a a a z a a a z z a z b z a g   + 6 ^ ^ ) ~ 8.XX.Xp.,.L.M.M.M.M.M.",
"M.M.M.M.E.oXoXh.9.C ; ; ; ; ; ; O d a a a c $.=.$.z a a N &.b a a z n N M b b z a x v c a a h k > ! ) ^ [ y..XXXs.0.c.M.M.M.M.M.",
"M.M.M.M.S.{.g.u.a.| ; ; ; ; ; ; % h a a x $.-.=.=.M a M -.N a c z z %.=.*.M a x b b c x a a x a i , 8 7 <.f.p.g.+X=Xm.M.N.M.M.M.",
"M.M.M.M.M.T.h.,.u.9.5 ; ; ; ; ; % f a z N -.=.%.#.M a G -.&.#.#.G &.*.*.#.a b $.-.=.%.#.v c M c k + + Z ^.i.,.s.#XV.M.M.M.M.M.M.",
"M.M.M.M.M.S.$Xp.,.s.| - + o ; ; @ d a z &.-.#.z c a a G -.-.-.-.-.-.M x v a b -.-.-.-.&.v c M c k + ; X.+Xg.p.g.Y.A.M.M.M.M.M.M.",
"M.M.M.M.M.N.:Xf.i. X8.4 : 1 : ; O j a z #.-.&.M n b M *.-.&.G *.-.-.G b v v M *.-.-.&.b c M M c u + 2 <.XXXX.XXXY.A.M.M.M.M.M.M.",
"M.M.M.M.M.M.A._.XXXX^.` ! / ! : O j a a N -.-.=.*.*.-.-.-.n a #.-.-.=.*.*.*.-.-.-.&.v a M &.M s & ; ; +.XX+XoXXXY.A.M.M.M.M.M.M.",
"M.M.M.M.M.M.A.Y.XXXX^.` ^ ( ( 7 + k a a n =.-.=.-.*.#.#.N c b *.-.-.-.-.-.-.-.-.-.G a M *.=.b h % ; ; O.XX+XXXXX#XV.M.M.M.M.M.M.",
"M.M.M.M.M.M.A.Y.XX+Xy.` / ( ( 8 + i s a b %.G M G M a a a z N -.-.-.-.-.-.&.#.#.G v c &.-.&.v g @ + ; | '. Xs.s.{.S.M.M.M.M.M.M.",
"M.M.M.M.M.M.m._.+X+Xt.` / ^ ( 8 + k a a z v z a a a z M b M %.-.-.-.-.-.G v a a a c M #.&.$.c d O ; ; ] /.g.,.u.XX%XM.M.M.M.M.M.",
"M.M.M.M.M.V.E.}.+XoX4.~ ) ) ^ 7 % f a a a a b #.M b b v v v b M $.-.-.#.c c M M M b v v v v a u ; ; + 4 8.|.u.p..XY.V.M.M.M.M.M.",
"M.M.M.M.S.!.XX+XXX'.O.! ) ) ^ 6   s a a x M &.=.=.&.M z v b c z v N N x v #.=.&.b s m H m g k O ; ; ; + X.'.h.|.XX[.%XM.M.M.M.M.",
"M.M.M.A.Y.+XXXXX+X8._ / ) ) Q 2 y a v a c G *.=.=.%.x c %.=.&.N c a z a N *.#.b s J z.,XF.* + ; + ; ; o Z t.+X+XXXXX{.v.M.M.M.M.",
"M.M.N.=X[.+XXXXXq.' W ) ^ ) 6 @ g b #.n z z z M $.b z N *.*.%.M v a a z b v z v J >X4X4X-Xt - o - 6 < ; ; 4.XXXXXX+XXXR.M.M.M.M.",
"M.M.Z.].+XXXXX^.{ : Q ) ^ ^ 6 & s n =.&.N M v a c z z M M b c p a p p a m H J z.<X2X4X2Xj.2 ; : Q ^ ^ 7 o <.+XXX+X+X+X).A.M.M.M.",
"M.M.%X[.XX+XXX4.3 ; Q ) ) ^ : u a N =.*.*.#.n z a b v s s a m k.k.k.k.l.x.,X<X3X3X2X,Xj.t ; ; , ^ ^ ) ! - +.XXXX+X+X+X$XA.M.M.M.",
"M.m.E.+X+XXXXXX.; ; 6 ^ ^ W + k z B N b z z z z M &.N s v F z.1X3X2X2X2X3X2X1X-XK.R A 4 o ; ; , ^ ^ ^ ~ - 2.XXXXXX+XXX#XA.M.M.M.",
"M.m.!.oX+XoX'.} ; ; ; < 6 : + j z #.N z z b N %.*.N c v H z.3X3X3X3X2X2X-Xj.Y t ; - o ; ; ; + , ^ ( ) Q V 9.XX+X+X+XXX).A.M.M.M.",
"M.m.Y..X+X+X'.{ ; ; ; ; o + +   z G &.z b %.G M b a m ;.&X2X3X3X3X3X1XG.Y - - - ; ; ; ; ; ; ; ; Q ^ ^ W  .6.g.oXXX+X+XY.n.M.M.M.",
"M.A._.XX+X+X'.| ; ; ; ; ; ; ; i a N &.v v M x v m H &X2X2X4X2X1X-Xj.R q = = q = = $ # # + ; o o : 6 < _ >.,.g.+X+X+XXXE.M.M.M.M.",
"M.A.Y.XX+XoXoX2.3 ; ; ; ; ; % g a v n c n b f u l.,X2X2X-Xj.@.R A e e r r r r r r r r w w e q + ; ; ; Z 6.p.|.XX+XoX{.v.M.M.M.M.",
"M.M.E.+X+X+X+X^.{ + ; ; ; ; u x a a a v G a j + R -X,Xj.Y $ q e r r . S . . . S S S . . . . r q ; ; ; ] y..XXX+X+X+X=Xn.M.M.M.M.",
"M.M.:X[.+X+X+XoXw.Z ; ; ; -   v a a a G G a k + 2 t Y r w r . S . r K S K . . . r S . . K . S w $ ; ; Z ^.+X+X+X+XR.m.M.M.M.M.M.",
"M.M.C.Y.XX+X+XXXoXq.Z ; ; ; @ d c a G *.n a   + 2 0 . . S K . r L T E U . . S S r S S . . . . . q - X Z /.+X+X+X}.;XM.M.M.M.M.M.",
"M.M.M.;X{.XX+XXXXX+X8.5 + ; ; & x x M n a g % o 2 w S r S . . . R I.Q.H.T K . . . S . . . S . S 0 ; X Z /.+X+X+X].c.M.M.M.M.M.M.",
"M.M.M.M.E.+X+X+X+XXX'.X.; ; + # d z c a d & + - + e S . S . K U P.Q.Q.Q.P.G.E T I P I U L . . . 0 ; ; Z ^.+X+X+X).V.M.M.M.M.M.M.",
"M.M.M.M.V.W.XX.XXXXXXX8.4 ; ; + % u u   $ ; ; ; + 0 S r S . L j.Q.R.U.W.W.Q.W.U.I.I.I.I.G.I . S 0 ; + Z t.+X+X+XY.A.M.M.M.M.M.M.",
"M.M.M.M.M.S.(.p.g.XX+Xw.9 - ; ; - ; - - ; + ; ; # e S S S r P H.W.j.T G.Q.U.I.Q.Q.Q.Q.Q.W.j.. S 0 + X Z t.+X+XXX).V.M.M.M.M.M.M.",
"M.M.M.M.M.m.J.,.p.|.+Xq.5 ; ; ; ; ; ; + ; - ; ; o e S S . S P H.W.T . T U.G.U D.~.Q.Q.Q.W.j.. . 0 # o V r.+X+XoX].S.M.M.M.M.M.M.",
"M.M.M.M.N.N.L.u.p..X+Xw.9 - ; ; ; ; ; ; : 6 : + 2 0 S K . . I P.~.G.L I I.D.S U G.W.Q.Q.Q.j.S S 0 # o 9 e.+X+XXX{.S.M.M.M.M.M.M.",
"M.M.M.M.M.n.v.[..X+X+Xe.9 ; ; ; ; ; ; < Q ^ ! , 2 0 S l . . I P.~.H.P I P.P.U r L E U.U.U.T r S 0 ; : 9 r.+X+XXX{.S.M.M.M.M.M.M.",
"M.M.M.M.M.M.Z.].+X+X+Xq.5 - ; + + ; : Q ) ) ) 8 ; = . . S S I I.~.P.P L T G.H.E L P H.Q.G.L K S 0 + o Z ^.+XXXXX}.;XM.M.M.B.M.M.",
"M.M.M.M.M.M.v.}.+X+X'.o.; ; ; : : ; ; Q ) ) ) 7 ; # w D r D I I.~.U.T K l T U.W.D.j.I.I.T r l . = ; o ] ^.+X+X+X+XR.A.M.M.M.M.M.",
"M.M.M.M.M.n.=XXX+XXXq.5 + ; 6 Q W < ; W ) / ^ : ; + 0 . D S U I.~.W.I.G.j.H.W.Q.W.H.D.U K . r 0 # ; ; o.XX+X+X+XoX+X;XM.M.M.M.M.",
"M.M.M.M.M.V.#XXXXX+X<.X ; , ! ) ^ Q : 6 Q ^ 7 : ; + + e K . I I.~.W.Q.~.~.Q.G.j.T I K . r e = + ; - 3 4.+X+X+X+X+X+XE.N.M.M.M.M.",
"M.M.M.M.N.*XoXXX.X'.X.X o 7 ^ ( ) ! ; ; : , - ; ; ; ; = w . K D.I.W.U.D.E U P K . . e q $ # + ; ; ; 9 e..X|.XXXX+XoX).C.M.M.M.M.",
"M.M.M.M.A.Y.oXg.p.f.| X + 1 ^ ( ( 7 ; ; ; + ; ; ; ; ; ; q r r P U E T K r r r e 0 = + ; - ; ; ; ; ; { `.p.u.h.+XXX+X+X%XM.M.M.M.",
"M.M.M.M.-X[.XXs.,.i.} X ; : 8 ! W ; ; ; ; ; ; ; ; ; ; ; + = e w r w w w e = + + - ; ; ; ; ; ; ; ; 9 8..Xu.u.|.+XXX+X+X=XM.M.M.M.",
"M.M.M.c.$XXXXXs.,.s.o.X ; ; ; ; ; ; ; ; ; ; ; ; ; ; ; ; ; ; + + # # # # ; ; ; X - o o + o - - ; 9 2.XXoXg.g.oXXX+X+X+X*XM.M.M.M.",
"M.M.M.R.+X+X+Xh.s.|.8.5 o o o o ; ; ; ; ; ; ; ; ; ; ; ; ; ; + ; : 4 4 5 _  .:.O.| ] V 5 4 4 9 { 7.XX+XXX+X+XoX+XXXXX[.;XM.M.M.M.",
"M.M.m.!.XX+X+XXX+XoX'.8.X.| { 4 + o ; + ; ; ; ; ; ; ; ; ; ; + 3 <.8.8.e.6.,.u.f.'.`.t.q.8.8.r.'.XXXX+X+XoX+X+X+X+XoXW.m.M.M.M.M.",
"M.M.M.R.+X+X+XXXoX+XXXXXXX'.`.7.+...} } } { V 4 ; + ; ; o o : ..`.+X+XXXg.s.g.XX+XXXXX+X+XXX+XXXXX+X+XXX+XoX+X+XXX[.v.M.M.M.M.M.",
"M.M.M.;X{.+X+X+X+X+X+X+XXX+XoXoX@X+X[.].].).K.3.o.] 9 5 5 Z O./.+X+XXXXX+X+X+X+X+XXX+XXXXXXX+X+XXX+X+X+X+X+X+X+XoX_.n.M.M.M.M.M.",
"M.M.M.M.*X}.XX+X+X+XXXXXXXXXoX[._.=Xc.C.C.A.M.A.T.(.w.q.q.r.XX+XXX+XXX+XoXXX+XXXoX+X).Y.).[.XXXX+X+X+X+X+X+X+X+X+X-XM.M.M.M.M.M.",
"M.M.M.M.m.%X_.[.OXoXOXOX+X}.W.:XV.M.M.M.M.M.M.M.n.:X}.OX@X+XXXXX+X+X+X+X+XXXOX}.!.%XC.m.C.v.W.XX+X+X+X+XoX+X+X+XY.C.M.M.M.M.M.M.",
"M.M.M.M.M.M.C.;XT.!.!.R.%Xc.m.M.M.M.M.M.M.M.M.M.M.M.;X$X[.+XXXXX+X+X+X+X+X$XT.v.A.M.M.M.M.M.C.R.[.+X+X+X+X+X+X{.;XM.M.M.M.M.M.M.",
"M.M.M.M.M.M.M.M.M.n.m.M.M.N.M.N.M.N.M.M.M.M.M.M.M.M.M.C.%XY.[.[.+X[.{.Y.-XS.M.M.M.M.M.M.M.M.M.m.*X).[.[.+X}.Y.;Xn.M.M.M.M.M.M.M.",
"M.M.M.M.M.M.M.M.n.M.M.M.M.M.M.M.M.M.M.M.M.M.M.M.M.M.M.M.M.n.;X*X%X:Xc.n.M.M.M.M.M.M.M.M.M.M.M.M.M.V.;X-X%Xc.N.M.M.M.M.N.M.M.M.M.",
"M.M.M.M.M.M.M.M.M.M.M.M.M.M.M.M.M.M.N.M.M.M.M.M.M.M.M.M.M.M.M.M.M.M.M.M.M.M.M.M.M.M.M.M.M.M.M.M.M.M.M.M.M.M.M.M.N.M.M.M.M.M.M.M.",
"N.M.N.M.M.M.M.M.M.M.M.M.M.M.M.M.M.N.M.N.M.M.M.M.M.M.M.M.M.M.M.M.M.M.M.M.M.M.M.M.M.M.M.M.M.M.M.M.M.M.M.M.M.M.M.N.M.M.M.M.N.M.N.M.",
"M.M.M.M.M.M.M.M.M.M.M.M.M.M.M.M.M.M.M.M.M.M.M.M.M.M.M.M.M.M.M.M.M.M.M.M.M.M.M.M.M.M.M.M.M.M.M.M.M.M.M.M.M.M.M.M.M.M.M.M.M.M.M.M."
};
