/* XPM */
static char *result[] = {
/* columns rows colors chars-per-pixel */
"64 64 168 2 ",
"   c #548BF2",
".  c #558BF2",
"X  c #568BF3",
"o  c #558CF2",
"O  c #568CF2",
"+  c #578CF2",
"@  c #568DF2",
"#  c #578DF2",
"$  c #568CF3",
"%  c #578CF3",
"&  c #568DF3",
"*  c #578DF3",
"=  c #588DF2",
"-  c #598DF2",
";  c #588DF3",
":  c #588EF2",
">  c #598EF2",
",  c #588EF3",
"<  c #5A8EF2",
"1  c #5A8FF2",
"2  c #5B8FF2",
"3  c #5C8FF2",
"4  c #5B90F2",
"5  c #5C90F2",
"6  c #5D90F2",
"7  c #5D91F2",
"8  c #5E91F2",
"9  c #5F91F2",
"0  c #5E92F2",
"q  c #5F92F2",
"w  c #6093F1",
"e  c #6193F1",
"r  c #6092F2",
"t  c #6093F2",
"y  c #6193F2",
"u  c #6293F2",
"i  c #6294F1",
"p  c #6394F1",
"a  c #6395F1",
"s  c #6194F2",
"d  c #6294F2",
"f  c #6394F2",
"g  c #6395F2",
"h  c #6495F1",
"j  c #6696F1",
"k  c #6797F1",
"l  c #6495F2",
"z  c #6696F2",
"x  c #6796F2",
"c  c #6797F2",
"v  c #6897F2",
"b  c #6798F2",
"n  c #6898F1",
"m  c #6998F1",
"M  c #6A99F1",
"N  c #6B99F1",
"B  c #6B9AF1",
"V  c #6898F2",
"C  c #6998F2",
"Z  c #6A99F2",
"A  c #6B9AF2",
"S  c #6C9AF1",
"D  c #6D9AF1",
"F  c #6D9BF1",
"G  c #6E9BF1",
"H  c #6C9AF2",
"J  c #6E9BF2",
"K  c #6E9CF1",
"L  c #6F9CF1",
"P  c #6E9CF2",
"I  c #709CF1",
"U  c #709DF1",
"Y  c #719DF1",
"T  c #719EF1",
"R  c #729EF1",
"E  c #739FF1",
"W  c #709DF2",
"Q  c #749FF1",
"!  c #759FF1",
"~  c #75A0F1",
"^  c #76A1F1",
"/  c #77A1F1",
"(  c #77A2F1",
")  c #78A2F1",
"_  c #79A2F1",
"`  c #79A3F1",
"'  c #7AA3F1",
"]  c #7BA4F1",
"[  c #7BA5F1",
"{  c #7DA5F0",
"}  c #7CA5F1",
"|  c #7DA5F1",
" . c #7EA5F1",
".. c #7DA6F1",
"X. c #7EA6F1",
"o. c #7FA7F1",
"O. c #80A7F0",
"+. c #80A7F1",
"@. c #81A8F1",
"#. c #83A8F1",
"$. c #82A9F1",
"%. c #83A9F1",
"&. c #83AAF1",
"*. c #84A9F1",
"=. c #84AAF0",
"-. c #85AAF0",
";. c #84AAF1",
":. c #86AAF0",
">. c #86ABF0",
",. c #87ABF0",
"<. c #86ABF1",
"1. c #86ACF0",
"2. c #86ACF1",
"3. c #87ACF1",
"4. c #88ABF1",
"5. c #89ADF0",
"6. c #88ADF1",
"7. c #89ADF1",
"8. c #8AADF0",
"9. c #8AADF1",
"0. c #8AAEF0",
"q. c #8BAEF0",
"w. c #8BAFF0",
"e. c #8AAEF1",
"r. c #8BAEF1",
"t. c #8CAFF0",
"y. c #8DAFF0",
"u. c #8CAFF1",
"i. c #8DAFF1",
"p. c #8DB0F1",
"a. c #8EB0F0",
"s. c #8FB1F0",
"d. c #8EB0F1",
"f. c #8EB1F1",
"g. c #90B1F0",
"h. c #91B2F0",
"j. c #91B3F0",
"k. c #91B2F1",
"l. c #92B2F0",
"z. c #92B3F0",
"x. c #93B3F0",
"c. c #92B3F1",
"v. c #93B4F0",
"b. c #94B4F0",
"n. c #95B4F0",
"m. c #94B5F0",
"M. c #95B5F0",
"N. c #96B5F0",
"B. c #96B6F0",
"V. c #97B6F0",
"C. c #97B7F0",
"Z. c #98B6F0",
"A. c #98B7F0",
"S. c #99B7F0",
"D. c #99B8F0",
"F. c #9AB8F0",
"G. c #9BB9F0",
"H. c #9CB9F0",
"J. c #9CBAF0",
"K. c #9DBAF0",
"L. c #9DBBF0",
"P. c #9CBAF1",
"I. c #9DBAF1",
"U. c #9EBAF0",
"Y. c #9EBBF0",
"T. c #9FBBF0",
"R. c #9FBCF0",
"E. c #ABC6F9",
/* pixels */
"E.E.E.E.E.E.E.E.E.E.E.E.E.E.E.E.E.E.E.E.E.E.E.E.E.E.E.E.E.E.E.E.E.E.E.E.E.E.E.E.E.E.E.E.E.E.E.E.E.E.E.E.E.E.E.E.E.E.E.E.E.E.E.E.",
"* * * * * * * * * * * * * * * * * * * * * * * * * * * * * * * * * * * * * * * * * * * * * * * * * * * * * * * * * * * * * * * * ",
"* * * * * * * * * * * * * * * * * * * * * * * * * * * * * * * * * * * * * * * * * * * * * * * * * * * * * * * * * * * * * * * * ",
"* * * * * * * * * * * * * * * * * * * * * * * * * * * * * * * * * * * * * * * * O # # # # # # $ # * * * * * * * * * * * * * * * ",
"* * * * * * * * * * * * * * * * * * * * * * * * * * * * * * * # O # # O * * * # O O $ $ $ $ O @ $ # * * * * * * * * * * * * * * ",
"* * * * * * * * * * * * * * * * * * * * * * * * * * * * * * * O O O o O O + O O O < h S F N d # O O * * * * * * * * * * * * * * ",
"* * * * * * * * * * * * * * * * * * * * * * * * * * * * * * $ O = S c + + + O @ i -.V.K.Y.H.b./ = O * * * * * * * * * * * * * * ",
"* * * * * * * * * * * * * * * * * * * * * * * * * * * * * * # O h M.N.R : & @ e 0.P.N.r.6.y.F.b.g O * * * * * * * * * * * * * * ",
"* * * * * * * * * * * * * * * * * * * * * * * * * * * * * * O O 5 +.F.A.] F Q u.Y.f.C = o < ! _ 1 O * * * * * * * * * * * * * * ",
"* * * * * * * * * * * * * * * * * * * * * * * * * * * * * * $ O O 1 ( F.K.H.H.K.d.z O O O O + # O O * * * * * * * * * * * * * * ",
"* * * * * * * * * * * * * * * * * * * * * * * * * * * * * * * O $ O > U ;.7.=.^ t $ O O # O O @ O O * * * * * * * * * * * * * * ",
"* * * * * * * * * * * * * * * * * * * * * * * * * * * * * * * * # O O O # = + O O O O # * * * * * * * * * * * * * * * * * * * * ",
"* * * * * * * * * O # # # # $ * * * * * * * * * * * * * * * * * * * O # @ @ @ # O * * * * O O # O @ * * # # # @ O + O O @ O # # ",
"$ # # $ * * * O O O o O O o O O O # * * * * * * * * * * * * * * * * * * * * * * * * * * # O O o O O # # O O O 1 q y y 8 # O O # ",
"O O O O O * O O O # r j n h 2 O O O * * * * * * * * * * * * * * * * * * * * * * * * * * O O 2 u # O # # O O C >.z.Z.V.g.[ 4 O O ",
"> j 9 @ O # O O a $.x.A.S.V.8.n # # * * * * * * * * * * * * * * * * * * * * * * * * * * @ # | M.] 2 % $ * S b.H.C.m.n.D.K./ . # ",
"B Z.t.c O O O t a.Y.A.h.a.m.Y.s.5 # * * * * * * * * * * * * * * * * * * * * * * * * * * @ @ / V.J. .p i Y b.K.;.x 5 5 W i.L o # ",
"d p.L.z.Y V Y p.J.d.b 5 2 d o.] < # * * * * * * * * * * * * * * * * * * * * * * * * * * $ O # T S.K.V.V.H.U.4.8 O O O O 1 # O O ",
"# f 9.H.F.A.F.J.s.c O O O O , : O $ * * * * * * * * * * * * * * * * * * * * * * * * * * # O O : K q.v.z.q.( 7 O O # # O O + O # ",
"O O 0 | y.a.5.} d o O $ O O # # $ # * * * * * * * * * * * * * * * * * * * * * * * * * * * # O O o 1 8 8 1 . O O $ * * * * * * * ",
"O O O = 5 6 2 # O O O * * * # * * * * * * * * * * * * * * * * * * * * * * * * * * * * * * * # O O O o o O # O # * * * * * * * * ",
"* # O @ O O O # # O * * * * * * * * * * * * * * * * * * * * * * * * * * * * * * * * * * * * * * * * * * * * * * * * * * * * * * ",
"* * * * * * * * * * * * * * * * * * * * * * * * * * * * * * * * * * * * * * * * * * * * * * * * * * * * * * * * * * * * * * * * ",
"* * * * * * * * * * * * * * * * * * * * * * * * * * * * * * * * * * * * * * * * * * * * * * * * * * * * * * * * * * * * * * * * ",
"* * * * * * * * * * * * * * * * * * * * * * * * * * * * * * * * * * * * * * * * * * * * * * * * * * * * * * * * * * * * * * * * ",
"* * * * * * * * * * * * * * * * * * * * * * * * * * * * * * * * * * * * * * * * * * * * * * * * * * * * * * * * * * * * * * * * ",
"* * * * * * * * * * * * * * * * * * * * * * * * * * * * * * * * * * * * * * * * * * * * * * * * * * * * * * * * * * * * * * * * ",
"* * * * * * * * * * * * * * * * * * * * * * * * * * * * * * * * * * * * * * * * * * * * * * * * * * * * * * * * * * * * * * * * ",
"* * * * * * * * * * * * * * * * * * * * * * * * * * * * * * * # O # # # # # # $ # * * * * * * * * * * * * * * * * * * * * * * * ",
"* * * * * * * * * * * * * * * * * * * * * * * O # # O # * * * O O O % * * * O # O * * * * * * * * * * * * * * * * * * * * * * * ",
"* * * * * * * * * * * * * * * * * * * * * * O O O O O O O O O O > n / ..| ~ d * O $ * * * * * * * * * * * * * * * * * * * * * * ",
"* * * * * * * * * * * * * * * * * * * * * * # O M { h + O O + 3 @.V.L.R.T.H.h.H O # * * * * * * * * * * * * * * * * * * * * * * ",
"* * * * * * * * * * * * * * * * * * * * * * @ # O.I.h.n = ; 8 X.H.B.&.' ] 5.F.X.O # * * * * * * * * * * * * * * * * * * * * * * ",
"* * * * * * * * * * * * * * * * * * * * * * O O f <.K.x.+.X.w.J.V.P #   . 5 K t O O * * * * * * * * * * * * * * * * * * * * * * ",
"* * * * * * * * * * * * * * * * * * * * * * # O O 8 *.F.J.K.G.z.J = O # # O $ O O * * * * * * * * * * * * * * * * * * * * * * * ",
"* * * * * * * * * * * * * * * * * * * * * * * # O @ 1 K ' ' U t + O O # # O # # O * * * * * * * * * * * * * * * * * * * * * * * ",
"* * * * * * * * * * * * * * * * * * * * * * * # O O O o o o o O O O # * * * * * * * * * * * * * * * * * * * * * * * * * * * * * ",
"* * * * * * * * * * * * * * * * * * * * * * * * * * * * * * * * * * * * * * * * * * * * * * * * * * * * * * * * * * * * * * * * ",
"* * * * * * * * * * * * * * * * * * * * * * * * * * * * * * * * * * * * * * * * * * * * * * * * * * * * * * * * * * * * * * * * ",
"* * * * * * * * * * * * * * * * * * * * * * * * * * * * * * * * * * * * * * * * * * * * * * * * * * * * * * * * * * * * * * * * ",
"* * * * * * * * * * * * * * * * * * * * * * * * * * * * * * * * * * * * * * * * * * * * * * * * * * * * * * * * * * * * * * * * ",
"* * * * * * * * * * * * * * * * * * * * * * * * * * * * * * * * * * * * * * * * * * * * * * * * * * * * * * * * * * * * * * * * ",
"* * * * * * * * * * * * * * * * * * * * * * * * * * * * * * * * * * * * * * * * * * * * * * * * * * * * * * * * * * * * * * * * ",
"* * * * * * * * * * * * * * * * * * * * * * * * * * * * * * * * * * * * * * * * * * * * * * * * * * * * * * * * * * * * * * * * ",
"* * * * * * * * * * * * * * * * * * * * * * * * * * * * * * * * * * * * * * * * * * * * * * * * * * * * * * * * * * * * * * * * ",
"* * * * * * * * * * * * * * * * * * * * * * * * * * * * * * * * * * * * * * * * * * * * * * * * * * * * * * * * * * * * * * * * ",
"* * * * * * * * * * * * * * * * * * * * * * * * * * * * * * * * * * * * * * * * * * * * * * * * * * * * * * * * * * * * * * * * ",
"* * * * * * * * * * * * * * * * * * * * * * * * * * * * * * * * * * * * * * * * * * * * * * * * * * * * * * * * * * * * * * * * ",
"* * * * * * * * * * * * # @ + + + + + O O # * * * * * * * * * * * * * * * * * * * * * * * * * * * * * * * * * * * * # # O O + + ",
"* * * # O O O O O O # # O O O > 7 8 6 > O O O * * * * * * * * * * * * * * * * * * * * * * * * * * # O O O # O # # O # O # 5 6 7 ",
"* * * O O $ 2 < o O O O O = R 7.z.n.z.:.k O O $ * * * * * * * * * * * * * * * * * * * * * * * * * O O - 5 X O O # O O l +.s.M.b.",
"* * * # O q q.t.n + O O > ] F.G.A.V.S.H.j.y O * * * * * * * * * * * * * * * * * * * * * * * * * * # ; ' z.! > O O O B v.K.D.V.Z.",
"* * * # O r u.T.x.D 8 p ' D.Z.` z y c ;.a.t O $ * * * * * * * * * * * * * * * * * * * * * * * * * # = ` G.G.' w r G k.U.3.N y f ",
"* * * $ O + y 7.K.A.x.M.H.F.' , O O O 1 8 # O $ * * * * * * * * * * * * * * * * * * * * * * * * * O # < ` F.G.b.b.D.K.e.q O O O ",
"* * * * # O O 0 +.b.N.b.7.I > O $ # # + + O # * * * * * * * * * * * * * * * * * * * * * * * * * * # $ # > E g.N.M.s.} q O # # # ",
"* * * * * O O O = s l y 1 o # O # * * * * * * * * * * * * * * * * * * * * * * * * * * * * * * * * * # O # @ 8 g f 8 + O O O * * ",
"* * * * * * # O O O O O O O # * * * * * * * * * * * * * * * * * * * * * * * * * * * * * * * * * * * * * # O O O O O # O # * * * ",
"* * * * * * * * * * * * * * * * * * * * * * * * * * * * # # # O # * * # * # # # # # # # # * * * * * * * * * * * * * * * * * * * ",
"* * * * * * * * * * * * * * * * * * * * * * * * * * * # O O # O O * # @ O O o . . . . O O O # * * * * * * * * * * * * * * * * * ",
"* * * * * * * * * * * * * * * * * * * * * * * * * * * $ O % = O O # # O $ 6 T @.6.3.| k = O O * * * * * * * * * * * * * * * * * ",
"* * * * * * * * * * * * * * * * * * * * * * * * * * * # # J #.V O O # O q 1.K.Y.Y.Y.T.A.D O # * * * * * * * * * * * * * * * * * ",
"* * * * * * * * * * * * * * * * * * * * * * * * * * * @ = +.K.b.A + O y ,.K.l.` J I %.G.) o # * * * * * * * * * * * * * * * * * ",
"* * * * * * * * * * * * * * * * * * * * * * * * * * * # O q &.J.M.3.2.c.P.x.v ; $ $ 2 m 5 O O * * * * * * * * * * * * * * * * * ",
"* * * * * * * * * * * * * * * * * * * * * * * * * * * O O o 6 @.S.Y.Y.S.r.Z + O # # O   O O O * * * * * * * * * * * * * * * * * "
};
